<svg width="30" height="30" viewBox="0 0 30 30" fill="none" xmlns="http://www.w3.org/2000/svg">
<path fill-rule="evenodd" clip-rule="evenodd" d="M2.3822 0H27.6174C28.2711 0 28.8664 0.268076 29.2981 0.699387C29.7319 1.13355 30 1.7289 30 2.3826V27.6178C30 28.2735 29.7315 28.8697 29.3006 29.3006C28.8664 29.7319 28.2711 30 27.6174 30H2.3822C1.72891 30 1.13316 29.7319 0.700622 29.2994C0.268495 28.8697 0 28.2735 0 27.6178V2.3826C0 1.7289 0.268076 1.13358 0.699387 0.701858C1.13029 0.268506 1.72646 0 2.3822 0ZM27.6174 1.18335H2.3822C2.05372 1.18335 1.75298 1.31881 1.53589 1.53589C1.3184 1.75216 1.18335 2.0529 1.18335 2.3826V27.6178C1.18335 27.9463 1.31881 28.247 1.53589 28.4641C1.75135 28.6824 2.05127 28.8167 2.3822 28.8167H27.6174C27.9471 28.8167 28.2478 28.6816 28.4653 28.4653C28.6812 28.247 28.8167 27.9463 28.8167 27.6178V2.3826C28.8167 2.0529 28.6816 1.75219 28.4653 1.5347C28.2478 1.31843 27.9471 1.18335 27.6174 1.18335Z" fill="#2B2A29"/>
<path fill-rule="evenodd" clip-rule="evenodd" d="M10.0013 9.1156L9.90003 8.99868C9.90037 8.01767 10.1836 7.05756 10.7159 6.23347C11.2484 5.40902 12.0074 4.75572 12.902 4.35197C13.7966 3.94823 14.7887 3.81118 15.7592 3.95727C16.7297 4.10337 17.6375 4.5264 18.3735 5.17561C19.1096 5.82482 19.6427 6.67263 19.9089 7.61731C20.1751 8.56199 20.163 9.56341 19.8742 10.5014C19.5853 11.4394 19.0319 12.2741 18.2805 12.9054C17.5515 13.5178 16.6662 13.9135 15.725 14.0487V20.875C15.725 21.0673 15.6486 21.2517 15.5127 21.3876C15.3767 21.5236 15.1923 21.6 15 21.6C14.8077 21.6 14.6233 21.5236 14.4874 21.3876C14.3514 21.2517 14.275 21.0673 14.275 20.875V14.0499C13.076 13.8777 11.9763 13.2841 11.174 12.3739C10.3523 11.4416 9.89929 10.2414 9.90003 8.99868V8.99998L10.0013 9.11691M13.6032 5.62783C14.0461 5.4444 14.5207 5.34999 15 5.34999C15.9681 5.34999 16.8965 5.73454 17.581 6.41905C18.2655 7.10356 18.65 8.03195 18.65 8.99999C18.65 9.96803 18.2655 10.8964 17.581 11.5809C16.8965 12.2654 15.9681 12.65 15 12.65C14.5207 12.65 14.0461 12.5556 13.6032 12.3721C13.1604 12.1887 12.758 11.9199 12.4191 11.5809C12.0802 11.242 11.8113 10.8396 11.6279 10.3968C11.4444 9.95394 11.35 9.47931 11.35 8.99999C11.35 8.52066 11.4444 8.04603 11.6279 7.60319C11.8113 7.16036 12.0802 6.75798 12.4191 6.41905C12.758 6.08012 13.1604 5.81126 13.6032 5.62783ZM9.05079 17.7265C8.95012 17.7769 8.86256 17.85 8.79502 17.94L5.04502 22.94C4.96424 23.0477 4.91505 23.1758 4.90295 23.3099C4.89086 23.444 4.91635 23.5788 4.97657 23.6992C5.03678 23.8197 5.12934 23.9209 5.24387 23.9917C5.3584 24.0625 5.49038 24.1 5.62502 24.1H24.375C24.5097 24.1 24.6416 24.0625 24.7562 23.9917C24.8707 23.9209 24.9633 23.8197 25.0235 23.6992C25.0837 23.5788 25.1092 23.444 25.0971 23.3099C25.085 23.1758 25.0358 23.0477 24.955 22.94L21.205 17.94C21.1375 17.85 21.0499 17.7769 20.9493 17.7265C20.8486 17.6762 20.7376 17.65 20.625 17.65H17.5C17.3077 17.65 17.1233 17.7264 16.9874 17.8623C16.8514 17.9983 16.775 18.1827 16.775 18.375C16.775 18.5673 16.8514 18.7517 16.9874 18.8876C17.1233 19.0236 17.3077 19.1 17.5 19.1H20.2625L22.925 22.65H7.07502L9.73752 19.1H12.5C12.6923 19.1 12.8767 19.0236 13.0127 18.8876C13.1486 18.7517 13.225 18.5673 13.225 18.375C13.225 18.1827 13.1486 17.9983 13.0127 17.8623C12.8767 17.7264 12.6923 17.65 12.5 17.65H9.37502C9.26247 17.65 9.15147 17.6762 9.05079 17.7265Z" fill="#2B2A29"/>
</svg>
