<svg width="43" height="50" viewBox="0 0 43 50" fill="none" xmlns="http://www.w3.org/2000/svg">
<path d="M35.8226 24.9415L33.4064 25.299C33.3703 25.3043 33.1138 25.3413 32.73 25.3931V32.5231C32.73 32.7547 32.5911 32.8859 31.8553 33.3481C31.339 33.6739 30.6913 33.6823 30.1654 33.3714C29.8049 33.1588 29.5441 32.8192 29.4307 32.4162L27.7747 26.5291C26.6806 26.6856 25.3681 26.8305 23.8499 26.9606C21.5588 27.1574 19.0685 27.297 16.7636 27.3869C16.6332 28.0913 16.4435 29.1088 16.1678 30.5864C17.016 30.9757 17.4337 31.4379 17.4337 31.9815C17.4337 32.6341 16.8315 33.1704 15.6027 33.604C14.7228 38.3129 13.8375 43.0218 12.9523 47.7297C12.3819 50.7473 7.72026 50.5527 7.72026 47.4007C7.72026 43.1392 7.72026 38.8788 7.72026 34.6184C5.57127 34.5835 4.4814 34.3423 4.4814 33.3936V32.6278H4.31601C4.30329 32.6479 4.28844 32.6669 4.26936 32.6828C4.24286 32.7039 4.21211 32.7198 4.17924 32.7272C4.17182 35.4413 4.0605 35.8654 4.03718 35.9246L3.88027 36.3234L3.72337 35.9246C3.70004 35.8644 3.5866 35.4307 3.5813 32.6341L2.67166 32.4512C2.3992 32.3951 2.20094 32.1539 2.20094 31.8768C2.2073 31.5796 2.41616 31.3416 2.69817 31.2961L3.5813 31.1576C3.5866 28.3653 3.70004 27.9316 3.72337 27.8734L3.88027 27.4736L4.03718 27.8734C4.0605 27.9316 4.17288 28.3568 4.17924 31.0846C4.21317 31.0952 4.24604 31.111 4.27254 31.1343C4.28526 31.1449 4.29586 31.1565 4.30647 31.1703L4.4814 31.1692V30.5695C4.4814 29.6197 5.57127 29.3796 7.72026 29.3447L7.72132 27.444C5.86176 27.3678 4.36478 27.2208 3.19539 27.0008C1.04534 26.5957 0.00106018 25.922 0 24.9415C0.00106018 23.961 1.04534 23.2872 3.19539 22.8821C4.36478 22.6621 5.86176 22.5151 7.72132 22.4389L7.72026 20.5383C5.57127 20.5034 4.4814 20.2633 4.4814 19.3134V18.7137L4.30647 18.7127C4.29586 18.7264 4.28526 18.738 4.27254 18.7486C4.24604 18.7719 4.21317 18.7878 4.17924 18.7983C4.17288 21.5262 4.0605 21.9513 4.03718 22.0095L3.88027 22.4093L3.72337 22.0095C3.70004 21.9513 3.5866 21.5177 3.5813 18.7254L2.69817 18.5868C2.41616 18.5413 2.2073 18.3033 2.20094 18.0061C2.20094 17.729 2.3992 17.4878 2.67166 17.4318L3.5813 17.2488C3.5866 14.4522 3.70004 14.0186 3.72337 13.9583L3.88027 13.5595L4.03718 13.9583C4.0605 14.0175 4.17182 14.4417 4.17924 17.1557C4.21211 17.1631 4.24286 17.179 4.26936 17.2001C4.28844 17.216 4.30329 17.2351 4.31601 17.2551H4.4814V16.4894C4.4814 15.5406 5.57127 15.2995 7.72026 15.2646C7.72026 11.0041 7.72026 6.74371 7.72026 2.48223C7.72026 -0.669721 12.3819 -0.864341 12.9523 2.15328C13.8375 6.86111 14.7228 11.57 15.6027 16.2789C16.8315 16.7125 17.4337 17.2488 17.4337 17.9014C17.4337 18.4451 17.016 18.9073 16.1678 19.2965C16.4435 20.7741 16.6332 21.7916 16.7636 22.4961C19.0685 22.586 21.5588 22.7256 23.8499 22.9223C25.3681 23.0524 26.6806 23.1973 27.7747 23.3539L29.4307 17.4667C29.5441 17.0637 29.8049 16.7242 30.1654 16.5116C30.6913 16.2006 31.339 16.2091 31.8553 16.5349C32.5911 16.9971 32.73 17.1282 32.73 17.3599V24.4898C33.1138 24.5417 33.3703 24.5787 33.4064 24.584L35.8226 24.9415Z" fill="#000000"/>
<path fill-rule="evenodd" clip-rule="evenodd" d="M27.2251 18.9375C27.2251 19.2136 27.0013 19.4375 26.7251 19.4375H19.8442C19.568 19.4375 19.3442 19.2136 19.3442 18.9375V18.9375C19.3442 18.6614 19.568 18.4375 19.8442 18.4375H26.7251C27.0013 18.4375 27.2251 18.6614 27.2251 18.9375V18.9375Z" fill="#000000"/>
<path fill-rule="evenodd" clip-rule="evenodd" d="M27.2251 33.2665C27.2251 33.5426 27.0013 33.7665 26.7251 33.7665H19.8442C19.568 33.7665 19.3442 33.5426 19.3442 33.2665V33.2665C19.3442 32.9903 19.568 32.7665 19.8442 32.7665H26.7251C27.0013 32.7665 27.2251 32.9903 27.2251 33.2665V33.2665Z" fill="#000000"/>
<path fill-rule="evenodd" clip-rule="evenodd" d="M20.7771 11.7729C20.7771 12.0491 20.5532 12.2729 20.2771 12.2729H16.9784C16.7023 12.2729 16.4784 12.0491 16.4784 11.7729V11.7729C16.4784 11.4968 16.7023 11.2729 16.9784 11.2729H20.2771C20.5532 11.2729 20.7771 11.4968 20.7771 11.7729V11.7729Z" fill="#000000"/>
<path fill-rule="evenodd" clip-rule="evenodd" d="M20.7771 40.431C20.7771 40.7072 20.5532 40.931 20.2771 40.931H16.9784C16.7023 40.931 16.4784 40.7072 16.4784 40.431V40.431C16.4784 40.1549 16.7023 39.931 16.9784 39.931H20.2771C20.5532 39.931 20.7771 40.1549 20.7771 40.431V40.431Z" fill="#000000"/>
<path fill-rule="evenodd" clip-rule="evenodd" d="M42.2706 25C42.2706 25.2761 42.0468 25.5 41.7706 25.5H38.4719C38.1958 25.5 37.9719 25.2761 37.9719 25V25C37.9719 24.7239 38.1958 24.5 38.4719 24.5H41.7706C42.0468 24.5 42.2706 24.7239 42.2706 25V25Z" fill="#000000"/>
</svg>
