<svg width="36" height="50" viewBox="0 0 36 50" fill="none" xmlns="http://www.w3.org/2000/svg">
<path d="M0.0933762 25L2.51521 24.6417C2.55134 24.6364 2.80851 24.5993 3.19319 24.5473V17.4006C3.19319 17.1684 3.3324 17.037 4.0699 16.5737C4.58742 16.2471 5.23671 16.2386 5.7638 16.5503C6.1251 16.7634 6.38652 17.1037 6.50023 17.5077L8.16012 23.4087C9.2568 23.2518 10.5724 23.1065 12.0941 22.9761C14.3906 22.7789 16.8868 22.639 19.197 22.5489C19.3277 21.8428 19.518 20.8229 19.7943 19.3418C18.9441 18.9516 18.5254 18.4883 18.5254 17.9434C18.5254 17.2893 19.129 16.7518 20.3607 16.3171C21.2427 11.5972 22.13 6.87721 23.0173 2.15833C23.5891 -0.866371 28.2616 -0.671297 28.2616 2.48805C28.2616 6.75953 28.2616 11.03 28.2616 15.3004C30.4157 15.3354 31.5081 15.5771 31.5081 16.5281V17.2956H31.6739C31.6866 17.2755 31.7015 17.2564 31.7206 17.2405C31.7472 17.2193 31.778 17.2034 31.8109 17.196C31.8184 14.4756 31.93 14.0504 31.9533 13.991L32.1106 13.5914L32.2679 13.991C32.2913 14.0515 32.405 14.4862 32.4103 17.2893L33.3221 17.4727C33.5952 17.5289 33.7939 17.7706 33.7939 18.0484C33.7875 18.3463 33.5782 18.5848 33.2955 18.6304L32.4103 18.7693C32.405 21.5682 32.2913 22.0029 32.2679 22.0612L32.1106 22.4619L31.9533 22.0612C31.93 22.0029 31.8173 21.5767 31.8109 18.8425C31.7769 18.8318 31.744 18.8159 31.7174 18.7926C31.7047 18.782 31.6941 18.7704 31.6834 18.7566L31.5081 18.7576V19.3588C31.5081 20.3108 30.4157 20.5515 28.2616 20.5865L28.2606 22.4916C30.1245 22.5679 31.625 22.7153 32.7971 22.9358C34.9522 23.3419 35.9989 24.0172 36 25C35.9989 25.9828 34.9522 26.6581 32.7971 27.0642C31.625 27.2847 30.1245 27.4321 28.2606 27.5084L28.2616 29.4135C30.4157 29.4485 31.5081 29.6892 31.5081 30.6412V31.2424L31.6834 31.2434C31.6941 31.2296 31.7047 31.218 31.7174 31.2074C31.744 31.1841 31.7769 31.1681 31.8109 31.1575C31.8173 28.4233 31.93 27.9971 31.9533 27.9388L32.1106 27.5381L32.2679 27.9388C32.2913 27.9971 32.405 28.4318 32.4103 31.2307L33.2955 31.3696C33.5782 31.4152 33.7875 31.6537 33.7939 31.9516C33.7939 32.2294 33.5952 32.4711 33.3221 32.5273L32.4103 32.7107C32.405 35.5138 32.2913 35.9485 32.2679 36.0089L32.1106 36.4086L31.9533 36.0089C31.93 35.9496 31.8184 35.5244 31.8109 32.804C31.778 32.7966 31.7472 32.7807 31.7206 32.7595C31.7015 32.7436 31.6866 32.7245 31.6739 32.7044H31.5081V33.4719C31.5081 34.4229 30.4157 34.6646 28.2616 34.6996C28.2616 38.97 28.2616 43.2405 28.2616 47.5119C28.2616 50.6713 23.5891 50.8664 23.0173 47.8417C22.13 43.1228 21.2427 38.4028 20.3607 33.6829C19.129 33.2482 18.5254 32.7107 18.5254 32.0566C18.5254 31.5117 18.9441 31.0483 19.7943 30.6582C19.518 29.1771 19.3277 28.1572 19.197 27.4511C16.8868 27.361 14.3906 27.2211 12.0941 27.0239C10.5724 26.8935 9.2568 26.7482 8.16012 26.5913L6.50023 32.4923C6.38652 32.8963 6.1251 33.2366 5.7638 33.4497C5.23671 33.7614 4.58742 33.7529 4.0699 33.4263C3.3324 32.963 3.19319 32.8316 3.19319 32.5994V25.4527C2.80851 25.4007 2.55134 25.3636 2.51521 25.3583L0.0933762 25Z" fill="#000000"/>
</svg>
