<svg width="36" height="50" viewBox="0 0 36 50" fill="none" xmlns="http://www.w3.org/2000/svg">
<path d="M35.9066 25L33.4848 25.3583C33.4487 25.3636 33.1915 25.4007 32.8068 25.4527V32.5994C32.8068 32.8316 32.6676 32.963 31.9301 33.4263C31.4126 33.7529 30.7633 33.7614 30.2362 33.4497C29.8749 33.2366 29.6135 32.8963 29.4998 32.4923L27.8399 26.5913C26.7432 26.7482 25.4276 26.8935 23.9059 27.0239C21.6094 27.2211 19.1132 27.361 16.803 27.4511C16.6723 28.1572 16.482 29.1771 16.2057 30.6582C17.0559 31.0484 17.4746 31.5117 17.4746 32.0566C17.4746 32.7107 16.871 33.2482 15.6393 33.6829C14.7573 38.4028 13.87 43.1228 12.9827 47.8417C12.4109 50.8664 7.73838 50.6713 7.73838 47.5119C7.73838 43.2405 7.73838 38.97 7.73838 34.6996C5.58434 34.6646 4.49191 34.4229 4.49191 33.4719V32.7044H4.32614C4.31339 32.7245 4.29851 32.7436 4.27938 32.7595C4.25281 32.7807 4.222 32.7966 4.18905 32.804C4.18161 35.5244 4.07003 35.9496 4.04665 36.009L3.88938 36.4086L3.7321 36.009C3.70872 35.9485 3.59502 35.5138 3.58971 32.7107L2.67793 32.5273C2.40483 32.4711 2.20611 32.2294 2.20611 31.9516C2.21248 31.6537 2.42183 31.4152 2.7045 31.3696L3.58971 31.2307C3.59502 28.4318 3.70872 27.9971 3.7321 27.9388L3.88938 27.5381L4.04665 27.9388C4.07003 27.9971 4.18268 28.4233 4.18905 31.1575C4.22306 31.1682 4.256 31.1841 4.28257 31.2074C4.29532 31.218 4.30595 31.2296 4.31657 31.2434L4.49191 31.2424V30.6412C4.49191 29.6892 5.58434 29.4485 7.73838 29.4135L7.73944 27.5084C5.87551 27.4321 4.37502 27.2847 3.20289 27.0642C1.04779 26.6581 0.00106267 25.9828 0 25C0.00106267 24.0172 1.04779 23.3419 3.20289 22.9358C4.37502 22.7153 5.87551 22.5679 7.73944 22.4916L7.73838 20.5865C5.58434 20.5515 4.49191 20.3108 4.49191 19.3588V18.7576L4.31657 18.7566C4.30595 18.7704 4.29532 18.782 4.28257 18.7926C4.256 18.8159 4.22306 18.8319 4.18905 18.8425C4.18268 21.5767 4.07003 22.0029 4.04665 22.0612L3.88938 22.4619L3.7321 22.0612C3.70872 22.0029 3.59502 21.5682 3.58971 18.7693L2.7045 18.6304C2.42183 18.5848 2.21248 18.3463 2.20611 18.0484C2.20611 17.7706 2.40483 17.5289 2.67793 17.4727L3.58971 17.2893C3.59502 14.4862 3.70872 14.0515 3.7321 13.9911L3.88938 13.5914L4.04665 13.9911C4.07003 14.0504 4.18161 14.4756 4.18905 17.196C4.222 17.2034 4.25281 17.2193 4.27938 17.2405C4.29851 17.2564 4.31339 17.2755 4.32614 17.2956H4.49191V16.5281C4.49191 15.5771 5.58434 15.3354 7.73838 15.3004C7.73838 11.03 7.73838 6.75954 7.73838 2.48805C7.73838 -0.671295 12.4109 -0.866371 12.9827 2.15833C13.87 6.87721 14.7573 11.5972 15.6393 16.3171C16.871 16.7518 17.4746 17.2893 17.4746 17.9434C17.4746 18.4883 17.0559 18.9517 16.2057 19.3418C16.482 20.8229 16.6723 21.8428 16.803 22.5489C19.1132 22.639 21.6094 22.7789 23.9059 22.9761C25.4276 23.1065 26.7432 23.2518 27.8399 23.4087L29.4998 17.5077C29.6135 17.1037 29.8749 16.7634 30.2362 16.5503C30.7633 16.2386 31.4126 16.2471 31.9301 16.5737C32.6676 17.037 32.8068 17.1684 32.8068 17.4006V24.5473C33.1915 24.5993 33.4487 24.6364 33.4848 24.6417L35.9066 25Z" fill="#000000"/>
</svg>
