<svg width="43" height="50" viewBox="0 0 43 50" fill="none" xmlns="http://www.w3.org/2000/svg">
<path d="M6.44807 24.9415L8.86424 24.584C8.90028 24.5787 9.15685 24.5417 9.54063 24.4898V17.3599C9.54063 17.1282 9.67952 16.9971 10.4153 16.5349C10.9316 16.2091 11.5794 16.2006 12.1052 16.5116C12.4657 16.7242 12.7265 17.0637 12.8399 17.4667L14.4959 23.3539C15.59 23.1973 16.9026 23.0524 18.4207 22.9223C20.7118 22.7256 23.2022 22.586 25.507 22.4961C25.6374 21.7916 25.8272 20.7741 26.1028 19.2965C25.2547 18.9073 24.837 18.4451 24.837 17.9014C24.837 17.2488 25.4392 16.7125 26.6679 16.2789C27.5479 11.57 28.4331 6.86111 29.3184 2.15328C29.8887 -0.864343 34.5504 -0.669725 34.5504 2.48223C34.5504 6.74371 34.5504 11.0041 34.5504 15.2646C36.6994 15.2995 37.7892 15.5406 37.7892 16.4894V17.2551H37.9546C37.9673 17.2351 37.9822 17.216 38.0013 17.2001C38.0278 17.179 38.0585 17.1631 38.0914 17.1557C38.0988 14.4417 38.2101 14.0175 38.2334 13.9583L38.3904 13.5595L38.5473 13.9583C38.5706 14.0186 38.684 14.4522 38.6893 17.2488L39.599 17.4318C39.8714 17.4878 40.0697 17.729 40.0697 18.0061C40.0633 18.3033 39.8545 18.5413 39.5725 18.5868L38.6893 18.7254C38.684 21.5177 38.5706 21.9513 38.5473 22.0095L38.3904 22.4093L38.2334 22.0095C38.2101 21.9513 38.0977 21.5261 38.0914 18.7983C38.0575 18.7878 38.0246 18.7719 37.9981 18.7486C37.9854 18.738 37.9748 18.7264 37.9642 18.7127L37.7892 18.7137V19.3134C37.7892 20.2633 36.6994 20.5033 34.5504 20.5383L34.5493 22.4389C36.4089 22.5151 37.9059 22.6621 39.0752 22.8821C41.2253 23.2872 42.2696 23.961 42.2706 24.9415C42.2696 25.922 41.2253 26.5957 39.0752 27.0008C37.9059 27.2208 36.4089 27.3678 34.5493 27.444L34.5504 29.3447C36.6994 29.3796 37.7892 29.6197 37.7892 30.5695V31.1692L37.9642 31.1703C37.9748 31.1565 37.9854 31.1449 37.9981 31.1343C38.0246 31.111 38.0575 31.0952 38.0914 31.0846C38.0977 28.3568 38.2101 27.9316 38.2334 27.8734L38.3904 27.4736L38.5473 27.8734C38.5706 27.9316 38.684 28.3652 38.6893 31.1576L39.5725 31.2961C39.8545 31.3416 40.0633 31.5796 40.0697 31.8768C40.0697 32.1539 39.8714 32.3951 39.599 32.4511L38.6893 32.6341C38.684 35.4307 38.5706 35.8644 38.5473 35.9246L38.3904 36.3234L38.2334 35.9246C38.2101 35.8654 38.0988 35.4413 38.0914 32.7272C38.0585 32.7198 38.0278 32.7039 38.0013 32.6828C37.9822 32.6669 37.9673 32.6479 37.9546 32.6278H37.7892V33.3936C37.7892 34.3423 36.6994 34.5835 34.5504 34.6184C34.5504 38.8788 34.5504 43.1392 34.5504 47.4007C34.5504 50.5527 29.8887 50.7473 29.3184 47.7297C28.4331 43.0218 27.5479 38.3129 26.6679 33.604C25.4392 33.1704 24.837 32.6341 24.837 31.9815C24.837 31.4379 25.2547 30.9757 26.1028 30.5864C25.8272 29.1088 25.6374 28.0913 25.507 27.3869C23.2022 27.297 20.7118 27.1574 18.4207 26.9606C16.9026 26.8305 15.59 26.6856 14.4959 26.5291L12.8399 32.4162C12.7265 32.8192 12.4657 33.1588 12.1052 33.3713C11.5794 33.6823 10.9316 33.6739 10.4153 33.3481C9.67952 32.8859 9.54063 32.7547 9.54063 32.5231V25.3931C9.15685 25.3413 8.90028 25.3043 8.86424 25.299L6.44807 24.9415Z" fill="#000000"/>
<path fill-rule="evenodd" clip-rule="evenodd" d="M15.0455 30.9454C15.0455 30.6693 15.2693 30.4454 15.5455 30.4454H22.4265C22.7026 30.4454 22.9265 30.6693 22.9265 30.9454C22.9265 31.2216 22.7026 31.4454 22.4265 31.4454H15.5455C15.2693 31.4454 15.0455 31.2216 15.0455 30.9454Z" fill="#000000"/>
<path fill-rule="evenodd" clip-rule="evenodd" d="M15.0455 16.6165C15.0455 16.3403 15.2693 16.1165 15.5455 16.1165H22.4265C22.7026 16.1165 22.9265 16.3403 22.9265 16.6165C22.9265 16.8926 22.7026 17.1165 22.4265 17.1165H15.5455C15.2693 17.1165 15.0455 16.8926 15.0455 16.6165Z" fill="#000000"/>
<path fill-rule="evenodd" clip-rule="evenodd" d="M21.4935 38.11C21.4935 37.8338 21.7174 37.61 21.9935 37.61H25.2922C25.5684 37.61 25.7922 37.8338 25.7922 38.11C25.7922 38.3861 25.5684 38.61 25.2922 38.61H21.9935C21.7174 38.61 21.4935 38.3861 21.4935 38.11Z" fill="#000000"/>
<path fill-rule="evenodd" clip-rule="evenodd" d="M21.4935 9.4519C21.4935 9.17576 21.7174 8.9519 21.9935 8.9519H25.2922C25.5684 8.9519 25.7922 9.17576 25.7922 9.4519C25.7922 9.72805 25.5684 9.9519 25.2922 9.9519H21.9935C21.7174 9.9519 21.4935 9.72805 21.4935 9.4519Z" fill="#000000"/>
<path fill-rule="evenodd" clip-rule="evenodd" d="M-1.43051e-06 24.8829C-1.43051e-06 24.6068 0.223856 24.3829 0.499999 24.3829H3.79871C4.07485 24.3829 4.29871 24.6068 4.29871 24.8829C4.29871 25.1591 4.07485 25.3829 3.79871 25.3829H0.499999C0.223856 25.3829 -1.43051e-06 25.1591 -1.43051e-06 24.8829Z" fill="#000000"/>
</svg>
