<svg width="32" height="50" viewBox="0 0 32 50" fill="none" xmlns="http://www.w3.org/2000/svg">
<path d="M16.6021 14.2581C16.0623 14.2581 15.6252 14.6952 15.6245 15.2351C15.6245 15.7735 16.063 16.2112 16.6014 16.2112C17.1406 16.2112 17.5776 15.7735 17.5776 15.2351C17.5783 14.6959 17.1406 14.2581 16.6021 14.2581ZM16.0658 18.116C15.5415 17.9904 15.0137 18.3125 14.8874 18.8368C14.3937 20.8856 13.6764 22.9217 12.8677 24.5697C12.6293 25.0535 12.8301 25.6389 13.3139 25.8765C13.7977 26.1142 14.383 25.9148 14.62 25.4303C15.5039 23.6319 16.2524 21.5107 16.7859 19.2944C16.9121 18.7694 16.5894 18.2423 16.0658 18.116ZM29.1832 32.3543C29.0136 32.0351 28.6816 31.8358 28.3198 31.8358C27.9587 31.8365 27.6267 32.0358 27.4579 32.3543C25.8772 35.3311 25.3906 35.5361 25.3906 36.7187C25.3906 38.3341 26.7044 39.648 28.3198 39.648C29.9359 39.6487 31.2498 38.3334 31.2505 36.7187C31.2498 35.5361 30.7652 35.3339 29.1832 32.3543ZM28.3198 37.695C27.7814 37.695 27.3436 37.2572 27.3436 36.7187C27.3436 36.3718 27.4621 36.3144 28.3205 34.8295C29.1733 36.3051 29.2967 36.3697 29.2974 36.7187C29.2967 37.2572 28.8583 37.695 28.3198 37.695ZM27.3436 20.216V18.1642H28.3198C28.8597 18.1642 29.2967 17.7265 29.2967 17.1874C29.2967 16.6482 28.8597 16.2112 28.3205 16.2112H24.4144C23.8745 16.2112 23.4375 16.6482 23.4368 17.1874C23.4375 17.7273 23.8745 18.1642 24.4137 18.1642H25.3906V20.1173H20.6033C21.1744 17.7116 21.4844 15.323 21.4844 13.2813V4.88296C21.4844 2.19066 19.2937 0 16.6014 0L4.88303 0.000692805C2.19073 -1.66273e-05 0.000709432 2.19066 0 4.88296V13.2813C0.000709432 20.277 3.43364 28.7802 5.88119 31.0724L6.22527 33.2503C7.06878 38.5789 5.5059 44.4388 2.18221 48.3946C1.93817 48.6854 1.88426 49.0912 2.04459 49.4353C2.20492 49.7794 2.55041 49.9993 2.92996 50L18.5545 49.9993C18.9291 49.9993 19.2689 49.7865 19.4335 49.4495C19.5966 49.1125 19.5534 48.7124 19.3221 48.4194L19.3114 48.4052C19.3044 48.3974 19.2987 48.3896 19.2923 48.3818C15.8962 44.3331 14.4391 38.4185 15.2599 33.2425L15.6032 31.0724C16.4028 30.3225 17.7393 28.1133 18.6701 25.9765H25.3906V28.9065C25.3906 29.445 25.8276 29.8827 26.3667 29.8827H30.2729C30.8128 29.8827 31.2498 29.4457 31.2498 28.9065V24.9997C31.2498 22.6422 29.5698 20.6693 27.3436 20.216ZM4.88374 1.95371H16.6014C17.8741 1.953 18.9603 2.76958 19.3632 3.9068H2.1212C2.52415 2.76958 3.6096 1.95371 4.88374 1.95371ZM1.95378 5.85988H19.5314V10.3513L1.95307 10.352L1.95378 5.85988ZM15.4606 46.0932C15.809 46.7736 16.1907 47.4269 16.6043 48.047L4.88019 48.0463C5.29449 47.427 5.67474 46.7742 6.02307 46.0939L15.4606 46.0932ZM8.15421 32.9453L7.97898 31.8358L13.5055 31.8365L13.3309 32.9368C12.752 36.5896 13.2096 40.5944 14.5845 44.1401L6.89994 44.1408C8.30178 40.544 8.73098 36.5826 8.15421 32.9453ZM14.3376 29.5733C14.1801 29.767 13.9091 29.8827 13.6112 29.8827H7.87328C7.57602 29.8834 7.30431 29.767 7.14682 29.5733C4.28355 26.0439 1.95378 18.7354 1.95307 13.2813V12.305L19.5307 12.3044L19.5314 13.2813C19.5314 18.4062 17.4017 25.7956 14.3376 29.5733ZM29.2967 27.9296H27.3436V25.0003C27.3436 24.4605 26.9066 24.0235 26.3675 24.0235H19.4441C19.6733 23.3871 19.8861 22.7344 20.0833 22.0704H26.3667C27.9828 22.0704 29.2967 23.385 29.2967 24.9997V27.9296Z" fill="#2B2A29"/>
</svg>
