<svg width="30" height="30" viewBox="0 0 30 30" fill="none" xmlns="http://www.w3.org/2000/svg">
<path fill-rule="evenodd" clip-rule="evenodd" d="M27.6174 0H2.3822C1.72646 0 1.13029 0.268506 0.699387 0.701858C0.268076 1.13358 0 1.7289 0 2.3826V27.6178C0 28.2735 0.268495 28.8697 0.700622 29.2994C1.13316 29.7319 1.72891 30 2.3822 30H27.6174C28.2711 30 28.8664 29.7319 29.3006 29.3006C29.7315 28.8697 30 28.2735 30 27.6178V2.3826C30 1.7289 29.7319 1.13355 29.2981 0.699387C28.8664 0.268076 28.2711 0 27.6174 0ZM2.3822 1.18335H27.6174C27.9471 1.18335 28.2478 1.31843 28.4653 1.5347C28.6816 1.75219 28.8167 2.0529 28.8167 2.3826V27.6178C28.8167 27.9463 28.6812 28.247 28.4653 28.4653C28.2478 28.6816 27.9471 28.8167 27.6174 28.8167H2.3822C2.05127 28.8167 1.75135 28.6824 1.53589 28.4641C1.31881 28.247 1.18335 27.9463 1.18335 27.6178V2.3826C1.18335 2.0529 1.3184 1.75216 1.53589 1.53589C1.75298 1.31881 2.05372 1.18335 2.3822 1.18335ZM15.4191 9.50482C15.1882 9.27386 14.8136 9.27386 14.5826 9.50482L4.42908 19.658C4.19812 19.8889 4.19812 20.2635 4.42908 20.4945C4.66003 20.7254 5.03463 20.7254 5.26558 20.4945L15.0009 10.7596L24.7362 20.4945C24.9671 20.7254 25.3417 20.7254 25.5727 20.4945C25.8037 20.2635 25.8037 19.8889 25.5727 19.658L15.4191 9.50482Z" fill="#2B2A29"/>
</svg>
