<svg width="48" height="30" viewBox="0 0 48 30" fill="none" xmlns="http://www.w3.org/2000/svg">
<path fill-rule="evenodd" clip-rule="evenodd" d="M15.0323 0H32.9677C37.1029 0 40.8613 1.68711 43.5853 4.40526C46.3093 7.12341 48 10.8737 48 15C48 19.1263 46.3093 22.8766 43.5853 25.5947C40.8613 28.3129 37.1029 30 32.9677 30H15.0323C10.8971 30 7.13875 28.3129 4.41474 25.5947C1.69074 22.8766 0 19.1263 0 15C0 10.8737 1.69074 7.12341 4.41474 4.40526C7.13875 1.68711 10.8971 0 15.0323 0ZM32.9677 2.54016H15.0323C11.5998 2.54016 8.47838 3.94233 6.21463 6.20128C3.95081 8.46017 2.54563 11.5749 2.54563 15C2.54563 18.4252 3.95081 21.5398 6.21463 23.7988C8.47838 26.0577 11.5998 27.4598 15.0323 27.4598H32.9677C36.4002 27.4598 39.5216 26.0577 41.7854 23.7988C44.0492 21.5398 45.4544 18.4252 45.4544 15C45.4544 11.5749 44.0492 8.46017 41.7854 6.20128C39.5216 3.94233 36.4002 2.54016 32.9677 2.54016ZM35.495 4.88013C36.198 4.88013 36.7679 5.44874 36.7679 6.15021C36.7679 6.85168 36.198 7.42029 35.495 7.42029H27.6983C25.8857 7.42029 24.4167 8.88617 24.4167 10.6949C24.4167 12.5037 25.8857 13.9696 27.6983 13.9696C28.8274 13.9696 29.9481 13.9723 31.067 13.9749C32.1821 13.9776 33.2954 13.9802 34.4131 13.9802C37.6629 14.0573 40.2405 16.5183 40.2405 19.795C40.2405 23.0062 37.6312 25.6099 34.4131 25.6099H27.2939C26.5909 25.6099 26.0211 25.0413 26.0211 24.3398C26.0211 23.6384 26.5909 23.0697 27.2939 23.0697H34.4131C36.2258 23.0697 37.6948 21.6038 37.6948 19.795C37.6948 17.9965 36.2204 16.5088 34.4155 16.5088C32.0759 16.5027 29.7361 16.4966 27.3964 16.4904C24.3048 16.3953 21.871 13.754 21.871 10.6949C21.871 9.48048 22.2443 8.35298 22.8825 7.42029H14.9785C12.2361 7.40522 7.74067 10.2491 7.73587 15.2328C7.97161 20.3574 11.6086 23.4297 16.8603 23.0133C18.6653 22.8731 20.5115 22.4639 21.8622 21.1711C21.8718 21.1511 21.8808 21.1319 21.8892 21.1133V21.0221C21.8892 20.4621 21.8892 19.9032 21.8869 19.3433C19.321 18.0953 17.6195 15.4656 17.2009 12.6867C17.0967 11.9935 17.5753 11.3471 18.27 11.243C18.9646 11.1389 19.6124 11.6164 19.7168 12.3097C20.0301 14.3904 21.4413 16.633 23.5349 17.2815C24.0793 17.4626 24.4412 17.9376 24.4299 18.5169C24.4027 19.7642 24.4134 21.0609 24.4239 22.3425L24.4239 22.3432C24.4294 23.0139 24.4349 23.6806 24.4349 24.3339C24.4349 25.0353 23.865 25.6039 23.162 25.6039C22.4344 25.6039 21.8892 25.0228 21.8892 24.3049C19.7201 25.3644 17.2503 25.6746 14.8571 25.6092C9.50125 25.4463 5.14783 20.5799 5.14783 15.2503C5.11897 9.7174 9.79005 5.00545 14.9785 4.88013H35.495ZM19.6471 9.33504C19.6471 10.039 19.0752 10.6096 18.3698 10.6096C17.6643 10.6096 17.0924 10.039 17.0924 9.33504C17.0924 8.6311 17.6643 8.06045 18.3698 8.06045C19.0752 8.06045 19.6471 8.6311 19.6471 9.33504Z" fill="#000000"/>
</svg>
