<svg width="68" height="70" viewBox="0 0 68 70" fill="none" xmlns="http://www.w3.org/2000/svg">
<path d="M62.2637 2.38364L53.4077 0.19888C52.1845 -0.103457 50.9493 0.642949 50.646 1.86419L49.8253 5.1859C49.6756 5.79256 50.0424 6.40523 50.647 6.56284C49.1998 11.8691 46.8148 16.872 43.6031 21.3356L43.501 21.4784C39.8977 26.4903 37.2877 32.1474 35.8107 38.1426L34.1741 44.7712L33.1026 38.9614C31.9894 32.8899 29.7214 27.088 26.4234 21.868L26.3283 21.7183C23.3901 17.0702 21.3095 11.9345 20.1854 6.5519C20.797 6.43195 21.1984 5.84013 21.0854 5.22753L20.4659 1.86216C20.2319 0.628029 19.0444 -0.187703 17.8093 0.0373149L8.83833 1.68772C7.59925 1.91472 6.77945 3.10526 7.00744 4.34236L7.628 7.70473C7.74398 8.31634 8.32883 8.72278 8.94341 8.61672C9.81077 14.0479 9.69877 19.5891 8.61036 24.9806L8.57662 25.151C7.35538 31.2047 7.30681 37.4368 8.4319 43.5103L12.7737 67.0529C13.1107 68.9056 14.8861 70.1358 16.7397 69.7987C16.7447 69.7978 16.7506 69.7967 16.7576 69.7957L34.6995 66.4879C34.9652 66.4373 35.2239 66.3531 35.4697 66.2401L50.2832 69.8998C50.5509 69.9662 50.8265 70 51.103 70C52.6742 69.998 54.0421 68.9235 54.4178 67.3979L60.1661 44.1596C61.6501 38.1683 61.9732 31.9482 61.1198 25.8351L61.095 25.6586C60.3317 20.2106 60.5508 14.6714 61.7433 9.3017C62.3499 9.44444 62.9615 9.07071 63.1112 8.46406L63.931 5.14331C64.2323 3.92207 63.4869 2.68498 62.2637 2.38364ZM62.9974 37.9225H65.2774V35.6416H62.9974V37.9225ZM59.5756 61.8686H61.8565V59.5877H59.5756V61.8686ZM62.9964 56.1668H65.2774V53.8859L67.5582 53.8869L67.5573 51.606H65.2774V49.3261L62.9964 49.3251V51.606H60.7165V53.8859H62.9964V56.1668ZM65.2774 53.8859H62.9964V51.606H65.2774V53.8859ZM5.70177 57.3078H7.98266V55.0268H5.70274L5.70177 57.3078ZM0 66.4294H2.28088V68.7093H4.5608V66.4294L6.84173 66.4284V64.1485H4.5608V61.8676H2.2819L2.28088 64.1485H0.000967979L0 66.4294ZM2.28088 66.4294V64.1485H4.5608V66.4294H2.28088ZM35.7195 20.1342L39.1414 15.5724L40.9653 16.9413L37.5444 21.5032L35.7195 20.1342ZM27.7359 19.2252L29.5608 17.8563L32.9826 22.4171L31.1587 23.785L27.7359 19.2252ZM45.8166 43.1039C42.023 43.1019 38.9461 46.1758 38.9431 49.9694C38.9412 53.1276 41.0912 55.8793 44.1562 56.6416C44.6964 56.7764 45.2516 56.8439 45.8086 56.8449C49.6032 56.8459 52.6821 53.7719 52.6831 49.9774C52.6861 46.1838 49.6121 43.1059 45.8166 43.1039ZM50.2297 51.0905C49.626 53.537 47.1548 55.0308 44.7093 54.4271C43.5347 54.1377 42.5236 53.3933 41.8981 52.3564C41.2736 51.3215 41.0843 50.0794 41.3737 48.9057C41.9774 46.4603 44.4486 44.9665 46.8951 45.5702C49.3405 46.1739 50.8334 48.646 50.2297 51.0905ZM29.1494 48.9593C28.4634 45.244 24.8949 42.7867 21.1796 43.4726C17.4663 44.1636 15.013 47.7271 15.692 51.4414C16.3779 55.1567 19.9455 57.6141 23.6618 56.9281C27.377 56.2432 29.8344 52.6745 29.1494 48.9593ZM23.2365 54.6889C20.7603 55.1409 18.3853 53.5033 17.9303 51.0281C17.4773 48.5499 19.1158 46.1729 21.593 45.7149C24.0711 45.2619 26.4482 46.9024 26.9012 49.3806C27.3552 51.8577 25.7147 54.2339 23.2365 54.6889ZM10.8129 25.607L10.8476 25.4355C12.0669 19.3848 12.1165 13.1577 10.9924 7.08819C10.8922 6.54894 10.4214 6.15636 9.87224 6.15636C9.80285 6.15636 9.73343 6.16235 9.66503 6.17524L9.25071 3.92901L18.2217 2.2756L18.637 4.51883C18.0195 4.63382 17.6101 5.22755 17.7241 5.8461C18.8373 11.9156 21.1033 17.7155 24.3992 22.9336L24.4944 23.0843C27.0182 27.085 28.9105 31.4506 30.102 36.0292L10.1904 39.7009C9.672 34.9993 9.88213 30.2451 10.8129 25.607ZM10.6751 43.0979C10.6047 42.7202 10.5542 42.3416 10.4938 41.9649L30.6254 38.2526C30.7037 38.6273 30.791 38.9991 30.8603 39.3748L34.3734 58.4329L14.1912 62.1541L10.6751 43.0979ZM34.2862 64.2456H34.2852L16.3432 67.5525C15.7257 67.6655 15.1319 67.2581 15.0159 66.6396L14.6025 64.3973L34.7857 60.6751L35.1991 62.9174C35.3131 63.5359 34.9057 64.1296 34.2862 64.2456ZM52.2053 66.8556C52.1339 67.1481 51.9486 67.3988 51.6918 67.5545V67.5525C51.4331 67.7082 51.1238 67.7548 50.8294 67.6834L37.2609 64.3328C37.487 63.7519 37.5494 63.1206 37.4394 62.508L37.1212 60.7782L52.7525 64.6412L52.2053 66.8556ZM57.9507 43.6115L53.3036 62.4257L36.6721 58.3209L35.1773 50.2252L38.0252 38.6888C38.1174 38.3171 38.2264 37.9512 38.3266 37.5805L58.2005 42.4903C58.1172 42.864 58.0439 43.2397 57.9507 43.6115ZM61.1693 6.81259C60.5577 6.66291 59.9402 7.03564 59.7885 7.64626C58.3026 13.6365 57.9804 19.8567 58.8369 25.9679L58.8607 26.1433C59.5099 30.831 59.4336 35.5881 58.6337 40.251L38.9828 35.3948C40.4469 30.8944 42.5979 26.6498 45.3566 22.8057L45.4587 22.6649C49.062 17.6541 51.672 11.9989 53.146 6.00573C53.2977 5.39511 52.924 4.77756 52.3134 4.6259L52.8605 2.41132L61.7175 4.59811L61.1693 6.81259Z" fill="#2B2A29"/>
</svg>
