<svg width="38" height="70" viewBox="0 0 38 70" fill="none" xmlns="http://www.w3.org/2000/svg">
<path fill-rule="evenodd" clip-rule="evenodd" d="M3.55552 63.1645H34.1803C33.8145 63.8544 33.5489 64.4759 33.2208 65.2134C32.9551 65.8111 32.413 66.6358 32.2663 67.2662H5.46962L3.55552 63.1645ZM0 46.3485V46.4843C0 48.1961 2.73476 48.1961 2.73476 46.4843V46.3485C2.73476 44.6366 0 44.6366 0 46.3485ZM31.0352 16.9538C33.0047 16.9538 33.0047 14.2191 31.0352 14.2191C29.3392 14.2191 29.3392 16.9538 31.0352 16.9538ZM17.0906 5.05919C17.0906 6.94251 20.6452 6.94251 20.6452 5.05919C20.6452 3.4435 18.18 3.35919 17.502 4.10359C17.3553 4.26417 17.0906 4.76777 17.0906 5.05919ZM10.1174 39.1016C9.89538 37.9528 10.724 35.2161 11.5428 33.9652C14.1507 29.9795 19.6004 28.7523 23.595 31.3672C27.0524 33.6301 28.5839 38.3176 26.9345 41.9742C26.758 42.3667 26.4408 43.0378 26.192 43.4184C25.8798 43.8962 25.5805 44.2005 25.2167 44.6307C24.8727 45.0381 24.4574 45.3642 24.0658 45.6675C22.6385 46.7717 21.0952 47.1702 19.2366 47.41C18.2841 47.533 16.2144 47.0423 15.585 46.7588C13.9753 46.0332 12.9712 45.2859 11.8917 43.8902C10.6785 42.3211 10.4594 40.867 10.1174 39.1016ZM7.38362 38.1451C7.38362 41.1357 8.0884 44.0151 10.0837 46.1086C11.4734 47.5677 11.8976 48.0801 13.9435 49.0842C17.6189 50.8872 22.239 50.4412 25.5309 48.089C27.1694 46.9184 28.3707 45.4286 29.2608 43.6156C30.7358 40.6083 30.7358 36.7753 29.2608 33.7679C28.0169 31.2343 26.3249 29.5423 23.7913 28.2993C19.8423 26.3615 14.4292 27.0692 11.4506 29.9071C10.621 30.6981 10.2958 30.8726 9.47012 32.0283C8.37185 33.5667 7.38362 36.0408 7.38362 38.1451ZM34.6115 70H3.12438C2.43151 69.9861 1.77732 69.2744 1.77732 68.6331C1.77732 68.0384 2.22232 67.7598 2.46121 67.403C2.00624 66.5416 1.64641 65.6317 1.1855 64.7138C0.965445 64.2777 0 62.3091 0 61.9344V51.4067C0 51.0062 0.693858 50.3124 1.09431 50.3124C1.84863 50.3124 2.73476 50.6306 2.73476 51.4067V60.4297H35V16.2699C35 15.7306 33.8859 13.6451 33.6311 13.1277L32.2663 10.1174H5.46962L3.55552 14.2191C10.4296 14.2191 18.637 14.0843 25.4387 14.2111C27.1734 14.2429 27.3706 15.7634 26.6589 16.5415C26.4468 16.7754 26.1494 16.9538 25.7034 16.9538H2.73476V40.4696C2.73476 42.232 0 42.232 0 40.4696V15.4492C0 15.0735 0.965445 13.1059 1.1855 12.6698C1.64641 11.7519 2.00624 10.8419 2.46121 9.98054C0.938693 9.57414 1.42644 7.38362 2.87163 7.38362H13.2625C13.2625 5.90076 12.7154 4.69933 12.7154 3.14509C12.7154 1.52643 14.1447 0 15.7227 0H22.0121C22.807 0 23.7705 0.558011 24.164 0.993156C25.8798 2.88738 24.4733 5.25646 24.4733 7.38362H34.8633C36.3085 7.38362 36.7971 9.57414 35.2736 9.98054C35.7296 10.8419 36.0884 11.7519 36.5503 12.6698C36.7693 13.1059 37.7348 15.0735 37.7348 15.4492V61.9344C37.7348 62.323 35.571 66.841 35.2736 67.403C35.5135 67.7598 35.9576 68.0384 35.9576 68.6331C35.9576 69.2744 35.3034 69.9861 34.6115 70ZM15.586 2.87154C16.6634 2.62076 21.0714 2.62076 22.1488 2.87154C22.2896 4.56355 21.6017 5.73225 21.6017 7.38362H16.1332C16.1332 5.76694 15.586 5.25542 15.586 2.87154Z" fill="#2B2A29"/>
</svg>
