<svg width="70" height="30" viewBox="0 0 70 30" fill="none" xmlns="http://www.w3.org/2000/svg">
<path fill-rule="evenodd" clip-rule="evenodd" d="M43.1597 17.0734L43.22 17.093C43.2258 17.0952 43.232 17.0952 43.2377 17.0939C43.2411 17.093 43.2445 17.0914 43.2474 17.0893L43.2501 17.0875L43.2518 17.0862C43.253 17.085 43.2542 17.0838 43.2554 17.0826C43.2643 17.0717 43.2652 17.0583 43.259 17.0462L43.206 16.9482C43.264 17.0365 43.3303 17.1181 43.4052 17.193C43.5566 17.3412 43.7319 17.4626 43.934 17.5493C43.9819 17.5698 44.031 17.5878 44.0811 17.6036C44.1442 17.6233 44.209 17.6393 44.2752 17.6518C44.378 17.6706 44.4847 17.6802 44.5947 17.6802C44.6881 17.6802 44.7799 17.6711 44.8693 17.6526C44.9755 17.6304 45.0785 17.5957 45.1776 17.5493C45.2768 17.5032 45.3688 17.4471 45.4544 17.3822C45.5291 17.3253 45.599 17.2621 45.6647 17.193C45.72 17.1332 45.7709 17.0683 45.8173 16.9993C45.8276 17.0047 45.8403 17.0035 45.8506 16.9964L46.4733 16.5607C46.5618 16.4988 46.6123 16.4075 46.6176 16.2996L46.6407 15.8212L46.391 15.3967L46.3741 15.3658L46.1757 15.0001C46.0375 14.746 45.8675 14.5564 45.6301 14.3923L45.5149 14.3137L46.204 13.9512C46.2516 13.9261 46.2975 13.9039 46.3438 13.8842C46.4171 13.8533 46.4912 13.8286 46.5743 13.8068L47.4281 13.5829C47.5105 13.5608 47.5804 13.5377 47.6592 13.5042L48.1968 13.279C48.3589 13.2108 48.4901 13.133 48.6265 13.0213L48.7168 12.948C48.7403 12.9291 48.7548 12.904 48.7594 12.876C48.7621 12.8597 48.7613 12.8426 48.7566 12.8253L48.7283 12.7111C48.7221 12.6864 48.7292 12.6626 48.7479 12.6458C48.7673 12.629 48.7921 12.6245 48.8152 12.6341C50.9948 13.4783 51.7594 14.5187 52.6726 15.7613L52.8989 16.0681C52.9681 16.161 53.0387 16.2552 53.1114 16.3506C53.3298 16.6364 53.5669 16.932 53.8392 17.2374C53.917 17.325 53.9977 17.4132 54.0816 17.5024L54.1423 17.5664L54.2222 17.6484C54.2768 17.7045 54.3326 17.761 54.39 17.8176C54.3987 17.8263 54.4112 17.8292 54.4227 17.8254C54.4351 17.8213 54.4431 17.8112 54.4448 17.7991L54.4874 17.5095C54.4885 17.5015 54.4919 17.4953 54.4973 17.4902C54.5006 17.4869 54.5048 17.4844 54.5095 17.4827C54.521 17.4793 54.5334 17.4819 54.5423 17.4898C54.5945 17.5396 54.6282 17.5706 54.6336 17.5715C54.6433 17.5748 54.6263 17.4371 54.5991 17.2504L54.5792 17.1174L54.5327 16.8185L54.4608 16.3749L54.4604 16.3661L54.4626 16.3569C54.4654 16.3501 54.4707 16.3439 54.4777 16.3401C54.49 16.3338 54.5042 16.3347 54.5148 16.3447L55.7353 17.4333C55.7468 17.4429 55.7619 17.4446 55.7743 17.4366C55.7867 17.4295 55.7929 17.4153 55.7894 17.4011L55.692 16.9901C55.6903 16.983 55.6903 16.9771 55.6928 16.9709L55.7521 16.8114C55.7557 16.7997 55.7646 16.7926 55.7752 16.79C55.7858 16.7875 55.7974 16.7909 55.8053 16.798L55.9914 16.9716L55.9978 16.9763L56.0021 16.9788C56.0066 16.9805 56.0113 16.9813 56.0161 16.9809L56.022 16.9796L56.0257 16.9788L56.0321 16.975C56.0374 16.9716 56.0413 16.9671 56.0439 16.9616C56.0478 16.9536 56.0482 16.9445 56.0445 16.9361L56.017 16.8637C55.9178 16.6034 55.7805 16.3996 55.5768 16.2083L54.8939 15.5705L54.8674 15.5441C54.8535 15.5294 54.8406 15.5143 54.8279 15.4993L54.8244 15.4953C54.8008 15.4682 54.7773 15.4412 54.7478 15.4165C53.609 14.4517 52.5517 13.0175 51.5737 11.6907L51.5709 11.687C51.3108 11.3342 51.0562 10.9889 50.8071 10.6616C50.5378 10.3075 50.421 9.91493 50.4546 9.47136C50.5494 8.20194 47.4423 5.46604 46.444 4.72024C45.9496 4.35077 45.6379 4.23533 45.1539 4.05613L45.1503 4.05479L45.1382 4.04976L44.9877 3.99452L44.8339 3.93635C44.5344 3.54921 44.6752 2.61925 44.8206 2.36228C44.8411 2.32587 44.8715 2.29155 44.9084 2.2589C44.9814 2.19419 45.0796 2.13525 45.1751 2.07797L45.1751 2.07794L45.1777 2.07642L45.1806 2.07463C45.2257 2.04763 45.2702 2.02101 45.3109 1.99439C45.3474 1.97054 45.381 1.94668 45.4095 1.92241L45.522 1.82573C45.4123 1.6512 45.3319 1.53151 45.231 1.43357C45.1249 1.33104 44.996 1.25193 44.7859 1.1586L44.6805 1.12847L44.6061 1.10754L44.4183 0.770631C44.3768 0.695297 44.3333 0.627496 44.2854 0.56388C44.2261 0.485198 44.1601 0.412793 44.0827 0.340388L43.9561 0.222365L43.8914 0.190557C43.654 0.0729521 43.4281 0.0168703 43.1624 0.00975495L42.8657 0.00180321C41.6044 -0.0325157 40.3918 0.419908 39.7834 1.62735C39.4744 2.24133 39.4314 2.49369 39.3568 2.93315C39.3312 3.08423 39.3016 3.25792 39.2564 3.47597C38.2661 8.24546 39.763 10.9353 44.84 12.2863C44.8531 12.2893 44.8642 12.2964 44.8723 12.306C44.878 12.3122 44.8823 12.3198 44.8852 12.3286C44.8932 12.35 44.8896 12.3713 44.8753 12.3896L44.7815 12.5127L44.7393 12.5654L44.7 12.611L44.1969 13.179C43.9861 13.4163 43.7514 13.5712 43.4503 13.6742L43.235 13.7478L43.1137 13.9114C43.057 13.9893 42.9782 14.0345 42.8826 14.047L42.6992 14.0692C42.4653 14.0985 42.375 14.3517 42.3111 14.5455L42.2634 14.6907C42.2526 14.7238 42.2466 14.7565 42.2456 14.7891C42.2452 14.8003 42.2455 14.8117 42.2464 14.823L42.2487 14.8443C42.255 14.8883 42.2705 14.931 42.2953 14.9715L42.413 15.1675C42.4441 15.218 42.4476 15.2754 42.4228 15.3294L42.3839 15.4165C42.3701 15.447 42.3584 15.4771 42.3486 15.5072C42.3366 15.5445 42.3276 15.5814 42.3214 15.619C42.3118 15.6772 42.3089 15.737 42.3121 15.8006C42.3151 15.8601 42.3208 15.9153 42.3298 15.9726L42.3422 16.0426L42.3458 16.0602L42.367 16.1602L42.4964 16.4481C42.5344 16.533 42.5787 16.6004 42.6416 16.6695C42.701 16.7344 42.7603 16.7971 42.8205 16.86C42.9188 16.9629 43.025 17.0294 43.1597 17.0734ZM45.9165 16.8327L46.3696 16.3527C46.3713 16.351 46.3722 16.3489 46.3725 16.3464L46.3723 16.3427L46.3709 16.3389L46.367 16.3347L46.2775 16.287C46.2499 16.2723 46.2246 16.256 46.2012 16.2384C46.1687 16.2138 46.14 16.1857 46.1142 16.1538C46.1003 16.3309 46.0605 16.5 45.995 16.662C45.9714 16.721 45.9453 16.7779 45.9165 16.8327ZM43.6083 14.6514C43.5363 14.7033 43.4686 14.7607 43.4052 14.8221C43.2547 14.9728 43.1395 15.1524 43.0535 15.3545C43.0282 15.4165 43.0068 15.4801 42.989 15.5445C42.9741 15.5985 42.9619 15.6537 42.9524 15.7099L42.9374 15.6466L43.0092 15.2453L43.196 15.0548C43.3041 14.9435 43.3838 14.8372 43.4618 14.7025L43.4768 14.6756L43.6083 14.6514ZM42.9281 16.04L42.9153 16.0538L42.9002 16.084C42.8506 16.1861 42.8524 16.2949 42.9064 16.3941L43.0535 16.662C42.9741 16.4657 42.9317 16.2585 42.9281 16.04ZM47.0737 12.4316L46.5264 12.3905C46.1985 12.3667 45.8909 12.4261 45.6176 12.5634C45.417 12.6638 45.2347 12.8061 45.0764 12.9886L44.8604 13.2376L44.8543 13.2443L44.8363 13.2656L44.6514 13.4971C44.633 13.5197 44.6163 13.5419 44.6003 13.5641L44.5795 13.5929C44.5557 13.6273 44.5334 13.6628 44.5105 13.7018L44.4316 13.8353C44.4025 13.8838 44.4149 13.9454 44.4591 13.9796L44.5326 14.0345L44.5503 14.0458C44.5565 14.0492 44.5628 14.0516 44.5694 14.0537C44.5838 14.0579 44.5993 14.0592 44.615 14.0567C44.6452 14.0525 44.67 14.0374 44.6885 14.0123C44.7121 13.9801 44.7387 13.9441 44.7624 13.9136C44.7948 13.8716 44.8216 13.8394 44.8267 13.8398L44.9701 13.7796C45.0676 13.7378 45.1544 13.7106 45.2572 13.6867L45.5114 13.6281L45.5671 13.6147L45.5923 13.6076L45.6309 13.5963L46.6991 13.2703C46.7568 13.2527 46.8046 13.2356 46.8594 13.2125L47.2465 13.0522L47.0835 12.4394C47.0826 12.4349 47.0791 12.4316 47.0737 12.4316ZM20.1316 29.9553H17.3379V13.8643H17.9066V14.6311C18.2901 14.0661 18.7772 13.7827 19.3679 13.7827C19.8551 13.7827 20.2804 13.9636 20.6444 14.3255C21.0084 14.6872 21.1908 15.1706 21.1908 15.7757C21.1908 16.3709 21.0084 16.8509 20.6444 17.215C20.2804 17.5791 19.8551 17.7612 19.3679 17.7612C18.7675 17.7612 18.2803 17.4904 17.9066 16.9493V19.6475H20.1316V20.7031C20.453 20.3159 20.7985 20.015 21.166 19.7969C21.5362 19.5784 21.9942 19.4701 22.5389 19.4701C23.012 19.4701 23.4601 19.5684 23.8844 19.7626C24.3086 19.9556 24.6833 20.2259 25.0065 20.5758C25.3308 20.9236 25.5877 21.3631 25.7763 21.8875C25.965 22.4143 26.058 22.9902 26.058 23.6172C26.058 24.245 25.965 24.8234 25.7763 25.3507C25.6879 25.5989 25.5849 25.827 25.4675 26.0355C25.3342 26.2723 25.1823 26.4837 25.0118 26.6711C24.8032 26.8967 24.5748 27.0897 24.3254 27.2504C24.2865 27.2755 24.2472 27.2998 24.2073 27.3232C24.1688 27.3459 24.1298 27.3676 24.0904 27.389C24.0254 27.4237 23.9591 27.4568 23.8915 27.4877C23.6534 27.5965 23.4087 27.6752 23.1568 27.7229C22.9599 27.7606 22.7588 27.7794 22.5531 27.7794C22.3616 27.7794 22.1802 27.7669 22.0092 27.7422C21.6885 27.6953 21.4041 27.6049 21.1563 27.4702C20.7737 27.2646 20.4335 26.9854 20.1316 26.6322V29.9553ZM21.0669 21.9348C20.8731 22.0206 20.697 22.1495 20.539 22.3214C20.2245 22.6642 20.0677 23.1007 20.0677 23.6322C20.0677 24.155 20.2245 24.5861 20.539 24.9288C20.6392 25.0377 20.7465 25.1289 20.8611 25.203C21.105 25.3612 21.3817 25.4411 21.6903 25.4411C22.1563 25.4411 22.5434 25.2716 22.8551 24.9318C23.1661 24.5907 23.3228 24.1496 23.3228 23.603C23.3228 23.0856 23.1661 22.6596 22.8524 22.3185C22.5389 21.9779 22.151 21.8083 21.6903 21.8083C21.4655 21.8083 21.2576 21.8506 21.0669 21.9348ZM19.5293 17.2293C19.7976 17.1803 20.029 17.0535 20.2236 16.8501C20.285 16.786 20.3389 16.7166 20.3856 16.6417C20.4378 16.5575 20.4809 16.4672 20.5147 16.3701C20.5768 16.1918 20.608 15.9913 20.608 15.7686C20.608 15.33 20.477 14.9751 20.2165 14.7023C20.1044 14.5847 19.9818 14.4926 19.849 14.4256C19.6725 14.3364 19.4776 14.2921 19.2644 14.2921C19.0389 14.2921 18.831 14.3444 18.6406 14.4491C18.5935 14.4749 18.5475 14.5038 18.5026 14.5361C18.4314 14.5867 18.363 14.6458 18.2972 14.7127C18.0217 14.9935 17.8844 15.3476 17.8844 15.7757C17.8844 16.2043 18.0217 16.5568 18.2972 16.8351C18.5727 17.1129 18.8951 17.2523 19.2644 17.2523C19.3564 17.2523 19.4446 17.2448 19.5293 17.2293ZM27.2764 19.6477H30.07V21.2481C30.5483 20.0955 31.3402 19.5176 32.4403 19.5176H32.5847V22.4535H32.3473C30.83 22.4535 30.07 23.3483 30.07 25.1329V27.603H27.2764V19.6477ZM35.7356 27.4632C35.1865 27.2451 34.7214 26.9484 34.3388 26.5738C33.9535 26.2009 33.6524 25.7598 33.4319 25.2479C33.2112 24.7353 33.1006 24.1958 33.1006 23.6324C33.1006 23.0737 33.2112 22.5392 33.4344 22.029C33.5619 21.7386 33.7161 21.4691 33.8966 21.2217C34.0325 21.0359 34.1831 20.8622 34.3485 20.7015C34.7329 20.3261 35.2042 20.0277 35.7551 19.8042C35.9453 19.7272 36.1404 19.6632 36.3404 19.6129L36.4214 19.5932C36.4974 19.5752 36.5742 19.5594 36.6518 19.5456C36.9332 19.4953 37.2236 19.4702 37.5222 19.4702C38.3529 19.4702 39.1032 19.6572 39.7772 20.0293C40.4512 20.4048 40.9756 20.9095 41.3486 21.544C41.7232 22.1814 41.9101 22.8778 41.9101 23.6324C41.9101 24.1912 41.7994 24.7256 41.5761 25.2357C41.4974 25.4153 41.4085 25.5869 41.3096 25.7501C41.1284 26.0494 40.9134 26.3214 40.6646 26.5641C40.282 26.9388 39.8145 27.2384 39.2626 27.4606C38.7108 27.6837 38.1226 27.7946 37.4956 27.7946C36.8702 27.7946 36.2848 27.6837 35.7356 27.4632ZM37.4956 21.8387C37.0031 21.8387 36.6054 22.0123 36.2972 22.358C36.1773 22.494 36.0806 22.6418 36.0072 22.8012C35.8932 23.0499 35.8357 23.3265 35.8357 23.6324C35.8357 24.125 35.9978 24.5464 36.3193 24.8997C36.4178 25.0072 36.5239 25.0985 36.6376 25.173L36.6888 25.2052L36.7255 25.2266C36.8282 25.2848 36.9367 25.3304 37.0508 25.363C37.1985 25.4057 37.3556 25.4271 37.5222 25.4271C38.0145 25.4271 38.4123 25.255 38.7161 24.9098C39.0226 24.5661 39.174 24.1401 39.174 23.6324C39.174 23.1398 39.0155 22.7183 38.6967 22.3651C38.3751 22.0152 37.9756 21.8387 37.4956 21.8387ZM41.9365 27.9707C42.0127 27.9803 42.135 27.9849 42.3014 27.9849C42.5831 27.9849 42.7921 27.9138 42.9268 27.7747C43.0144 27.684 43.0732 27.5526 43.1035 27.3797C43.1093 27.347 43.114 27.3127 43.1177 27.2767C43.1244 27.2114 43.1278 27.1411 43.1278 27.0662L43.1272 20.1785L43.1278 19.6475H45.9214V27.2496C45.9214 28.2255 45.684 28.929 45.2057 29.3576C44.7301 29.7862 44.0198 29.9996 43.0781 29.9996C42.8771 29.9996 42.4954 29.9633 41.9365 29.89V27.9707ZM49.2346 27.2774C48.9284 27.1149 48.6544 26.9195 48.4125 26.6914C48.1435 26.4382 47.9138 26.1453 47.7226 25.8138C47.3622 25.1814 47.1807 24.4535 47.1807 23.6299C47.1807 23.5638 47.1819 23.4981 47.1845 23.4328L47.1903 23.3218L47.197 23.2294L47.2035 23.1582L47.214 23.0615L47.2298 22.9435C47.2775 22.6192 47.3599 22.3057 47.4774 22.0027C47.6784 21.4908 47.9503 21.0497 48.301 20.6793C48.6491 20.3094 49.0752 20.0151 49.5757 19.797C50.0761 19.5786 50.6146 19.4702 51.1957 19.4702C51.8599 19.4702 52.4534 19.5853 52.9751 19.8184C53.4976 20.0486 53.9184 20.3675 54.2399 20.7722C54.5604 21.1774 54.8032 21.6377 54.968 22.1525C55.0414 22.3806 55.0979 22.6162 55.1384 22.8594C55.1504 22.931 55.1609 23.0034 55.17 23.0766C55.1862 23.2068 55.1981 23.3391 55.2055 23.4738C55.2119 23.5889 55.215 23.7057 55.215 23.8237C55.215 23.9158 55.2145 23.9999 55.2132 24.0756C55.212 24.1543 55.21 24.2242 55.2074 24.2853C55.2056 24.3267 55.2035 24.364 55.2009 24.3975H49.8741C49.9316 24.6297 50.0169 24.8319 50.1292 25.0043C50.2279 25.1563 50.3474 25.2856 50.4871 25.3923C50.7865 25.62 51.1566 25.7351 51.5977 25.7351C52.2204 25.7351 52.8085 25.4589 53.3622 24.9043L54.9068 26.1959C54.061 27.2623 52.9068 27.7946 51.4454 27.7946C50.6173 27.7946 49.8794 27.6226 49.2346 27.2774ZM49.8308 22.9708H52.5951C52.5411 22.5271 52.3939 22.1747 52.1496 21.9169C51.9924 21.7499 51.8063 21.6369 51.5915 21.5779C51.5562 21.5682 51.5202 21.5599 51.4835 21.5532C51.4574 21.5486 51.4309 21.5444 51.4039 21.5411C51.3429 21.5335 51.2801 21.5297 51.2151 21.5297C50.8573 21.5297 50.5534 21.6591 50.3082 21.9194C50.061 22.1814 49.9016 22.5321 49.8308 22.9708ZM56.6169 21.5662C56.9773 20.9363 57.4849 20.4316 58.1439 20.0541C58.8029 19.6741 59.5407 19.4854 60.3591 19.4854C61.8817 19.4854 63.0136 20.0738 63.7568 21.2523L61.8887 22.613C61.5167 22.086 61.0358 21.8236 60.4529 21.8236C59.9596 21.8236 59.5628 21.9956 59.2643 22.3409C58.9649 22.6866 58.8153 23.1152 58.8153 23.6324C58.8153 24.1552 58.9649 24.588 59.2616 24.9337C59.5583 25.2819 59.9375 25.456 60.4007 25.456C60.4534 25.456 60.505 25.4538 60.5554 25.4497C60.5912 25.4467 60.6263 25.443 60.6609 25.4384C60.7003 25.4329 60.7389 25.4263 60.7768 25.4183C60.9346 25.3848 61.0782 25.3284 61.2076 25.2497C61.4308 25.1124 61.6637 24.8998 61.9038 24.6102L63.8055 25.9833C62.9915 27.1912 61.8107 27.7947 60.259 27.7947C59.4768 27.7947 58.7665 27.6059 58.1217 27.2301C57.477 26.8555 56.9773 26.3508 56.6169 25.713C56.259 25.0764 56.0801 24.3824 56.0801 23.6324C56.0801 22.885 56.259 22.1965 56.6169 21.5662ZM64.3271 19.648H65.2537V17.6328H68.0481V19.648H69.886V21.8976H68.0481V24.5983C68.0481 24.8754 68.1093 25.0792 68.2342 25.2069C68.2483 25.2216 68.2633 25.2354 68.2791 25.2479C68.3031 25.2672 68.3291 25.2847 68.3572 25.3002C68.3696 25.3074 68.3824 25.314 68.3957 25.3203L68.4383 25.3383C68.5406 25.3776 68.6641 25.3973 68.8099 25.3973C69.1483 25.3973 69.4964 25.3094 69.8568 25.1307V27.3095C69.3103 27.6134 68.6709 27.7649 67.933 27.7649C67.0624 27.7649 66.3963 27.5565 65.9402 27.1375C65.4822 26.7185 65.2537 26.0519 65.2537 25.1332V21.8976H64.3271V19.648ZM0 17.6805V13.8647H0.567728V16.0637L2.65721 13.8647H3.35781L1.76345 15.5176L3.40208 17.6805H2.73066L1.37286 15.931L0.567728 16.7576V17.6805H0ZM4.63731 17.6291C4.5241 17.5806 4.41769 17.5187 4.31819 17.4433C4.03746 17.2324 3.89746 16.9365 3.89746 16.5573C3.89746 16.1589 4.04457 15.8517 4.34037 15.6353C4.63532 15.4185 5.03125 15.3105 5.52814 15.3105C5.65851 15.3105 5.78825 15.3164 5.91736 15.3282C6.17883 15.3524 6.4379 15.4005 6.69467 15.4734V15.3545C6.69467 15.0197 6.59631 14.7639 6.39971 14.5869C6.20217 14.4095 5.9249 14.3211 5.56528 14.3211C5.19154 14.3211 4.80535 14.4124 4.40681 14.5949L4.23667 14.1299C4.50945 14.0043 4.77929 13.9152 5.0459 13.8625C5.24061 13.824 5.43366 13.8047 5.62471 13.8047C6.16586 13.8047 6.57685 13.9445 6.85674 14.2253C7.12239 14.4911 7.25528 14.8648 7.25528 15.3474V17.6798H6.69467V17.111C6.35535 17.5442 5.89749 17.761 5.3217 17.761C5.071 17.761 4.84281 17.7171 4.63731 17.6291ZM5.43251 17.3032C5.78679 17.3032 6.08697 17.2077 6.33327 17.0156C6.57863 16.8239 6.70168 16.5779 6.70168 16.2778V15.9233C6.32793 15.8153 5.95681 15.7604 5.58746 15.7604C5.23852 15.7604 4.9648 15.8312 4.7682 15.971C4.66242 16.0463 4.5851 16.1367 4.53623 16.2414C4.49428 16.3314 4.47325 16.4322 4.47325 16.5435C4.47325 16.5917 4.47722 16.6377 4.48517 16.6817C4.4902 16.7088 4.49668 16.7352 4.50464 16.7611C4.50976 16.7775 4.51552 16.7938 4.5219 16.8097C4.56668 16.921 4.64265 17.0165 4.74957 17.0968C4.93467 17.2341 5.16235 17.3032 5.43251 17.3032ZM8.45801 17.6805V13.8647H9.02573V15.5104H11.2259V13.8647H11.7937V17.6805H11.2259V16.0126H9.02573V17.6805H8.45801ZM14.2007 17.761C13.8119 17.761 13.477 17.6551 13.1971 17.4433C12.9163 17.2324 12.7764 16.9365 12.7764 16.5573C12.7764 16.4134 12.7956 16.2816 12.834 16.1614C12.8776 16.0249 12.946 15.904 13.0393 15.7981C13.0915 15.7391 13.1515 15.6847 13.2192 15.6353C13.5142 15.4185 13.9101 15.3105 14.407 15.3105C14.8011 15.3105 15.1901 15.3645 15.5735 15.4734V15.3545C15.5735 15.0197 15.4752 14.7639 15.2785 14.5869C15.1841 14.5015 15.0708 14.4371 14.9388 14.3927C14.796 14.345 14.6311 14.3211 14.4443 14.3211C14.0705 14.3211 13.6843 14.4124 13.2857 14.5949L13.1156 14.1299C13.5877 13.9127 14.0509 13.8047 14.5036 13.8047C15.0447 13.8047 15.4557 13.9445 15.7355 14.2253C16.0013 14.4911 16.1342 14.8648 16.1342 15.3474V17.6798H15.5735V17.111C15.2343 17.5442 14.7763 17.761 14.2007 17.761ZM14.3113 17.3032C14.6657 17.3032 14.9659 17.2077 15.2121 17.0156C15.4584 16.8239 15.5807 16.5779 15.5807 16.2778V15.9233C15.3987 15.8706 15.2173 15.8308 15.0365 15.8035C14.8459 15.7746 14.6559 15.7604 14.4664 15.7604C14.1174 15.7604 13.8437 15.8312 13.647 15.971C13.5409 16.0467 13.4635 16.1371 13.4147 16.2422C13.3729 16.3321 13.3521 16.4326 13.3521 16.5435C13.3521 16.7746 13.4442 16.9587 13.6284 17.0968C13.7412 17.1805 13.8698 17.2391 14.0141 17.2717C14.1067 17.2926 14.2058 17.3032 14.3113 17.3032ZM23.9072 17.7683C23.3704 17.7683 22.9188 17.5825 22.552 17.2113C22.1854 16.8392 22.0029 16.3612 22.0029 15.7757C22.0029 15.2195 22.1774 14.7483 22.5264 14.362C22.7508 14.1142 23.0101 13.946 23.3048 13.8572C23.4148 13.8242 23.5296 13.802 23.6493 13.7911C23.7092 13.7856 23.7704 13.7827 23.8328 13.7827C24.3793 13.7827 24.8125 13.9748 25.1322 14.3586C25.452 14.742 25.6122 15.2246 25.6122 15.8059C25.6122 15.8791 25.6095 15.9457 25.6043 16.0051H22.5786C22.5993 16.2114 22.6503 16.3952 22.7318 16.5568C22.8033 16.6986 22.8985 16.8233 23.0171 16.9305C23.2712 17.1598 23.5723 17.2741 23.9215 17.2741C24.3793 17.2741 24.7806 17.0945 25.1251 16.7358L25.4794 17.0527C25.0507 17.5302 24.5272 17.7683 23.9072 17.7683ZM22.5786 15.5472H25.0365C25.0239 15.4125 24.9997 15.2865 24.964 15.1684C24.9014 14.9626 24.8035 14.7826 24.6707 14.6278C24.4616 14.3842 24.1773 14.2628 23.8187 14.2628C23.4936 14.2628 23.2154 14.3833 22.9843 14.624C22.7531 14.865 22.6176 15.1735 22.5786 15.5472ZM26.6084 17.6805V13.8647H27.1763V16.8832L29.4428 13.8647H29.9963V17.6805H29.4277V14.6616L27.1541 17.6805H26.6084ZM28.9739 13.0672C28.7852 13.2346 28.555 13.3178 28.2839 13.3178C28.1572 13.3178 28.0393 13.2995 27.9302 13.2626C27.8814 13.2464 27.8343 13.2262 27.789 13.2024C27.7198 13.166 27.6548 13.1208 27.594 13.0672C27.4044 12.8998 27.2875 12.6825 27.2432 12.4173L27.6346 12.3364C27.694 12.5445 27.7962 12.6892 27.9416 12.7717C27.9898 12.7989 28.0427 12.8194 28.1003 12.8328C28.131 12.8399 28.1631 12.8454 28.1967 12.8487L28.2503 12.8525L28.2839 12.8529C28.6187 12.8529 28.8349 12.6809 28.934 12.3364L29.3246 12.4173C29.2804 12.6825 29.1634 12.8998 28.9739 13.0672ZM31.2666 17.6805V13.8647H31.8351V16.0637L33.9238 13.8647H34.6252L33.0309 15.5176L34.6695 17.6805H33.9973L32.6394 15.931L31.8351 16.7576V17.6805H31.2666ZM36.5873 17.761C36.1985 17.761 35.8647 17.6551 35.5839 17.4433C35.3031 17.2324 35.1631 16.9365 35.1631 16.5573C35.1631 16.1589 35.311 15.8517 35.606 15.6353C35.7016 15.565 35.8079 15.506 35.9249 15.4587C36.0189 15.4206 36.1199 15.3896 36.2278 15.3662C36.3994 15.3289 36.5884 15.3105 36.7946 15.3105C37.1879 15.3105 37.5767 15.3645 37.9602 15.4734V15.3545C37.9602 15.0197 37.862 14.7639 37.6652 14.5869C37.4686 14.4095 37.1906 14.3211 36.8309 14.3211C36.7033 14.3211 36.5742 14.332 36.4435 14.3533C36.3658 14.3659 36.2876 14.3827 36.209 14.4028C36.0326 14.448 35.8539 14.512 35.6725 14.5949L35.5023 14.1299C35.9753 13.9127 36.4377 13.8047 36.8902 13.8047C37.4315 13.8047 37.8425 13.9445 38.1232 14.2253C38.389 14.4911 38.5218 14.8648 38.5218 15.3474V17.6798H37.9602V17.111C37.621 17.5442 37.1631 17.761 36.5873 17.761ZM36.698 17.3032C37.0523 17.3032 37.3526 17.2077 37.5989 17.0156C37.7479 16.8996 37.8519 16.7637 37.9107 16.608C37.9301 16.5569 37.9445 16.5037 37.9541 16.4481C37.9635 16.3932 37.9682 16.3363 37.9682 16.2778V15.9233C37.8194 15.8802 37.6708 15.8459 37.5225 15.8199C37.4432 15.8061 37.3639 15.7944 37.2848 15.7852C37.1405 15.7688 36.9967 15.7604 36.8531 15.7604C36.7802 15.7604 36.7108 15.7634 36.6446 15.7697C36.5581 15.7776 36.4772 15.791 36.4019 15.8094C36.2589 15.8446 36.1362 15.8986 36.0338 15.971C35.8371 16.1112 35.7387 16.3025 35.7387 16.5435C35.7387 16.7746 35.831 16.9587 36.0153 17.0968C36.2003 17.2341 36.4279 17.3032 36.698 17.3032Z" fill="#000000"/>
</svg>
