<svg width="30" height="30" viewBox="0 0 30 30" fill="none" xmlns="http://www.w3.org/2000/svg">
<path fill-rule="evenodd" clip-rule="evenodd" d="M27.6174 0H2.3822C1.72646 0 1.13029 0.268506 0.699387 0.701858C0.268076 1.13358 0 1.7289 0 2.3826V27.6178C0 28.2707 0.268098 28.866 0.701858 29.3006C1.13398 29.7319 1.72932 30 2.3822 30H27.6174C28.2711 30 28.8664 29.7319 29.3006 29.3006C29.7315 28.8697 30 28.2735 30 27.6178V2.3826C30 1.7289 29.7319 1.13355 29.2981 0.699387C28.8664 0.268076 28.2711 0 27.6174 0ZM2.3822 1.18335H27.6174C27.9471 1.18335 28.2478 1.31843 28.4653 1.5347C28.6816 1.75219 28.8167 2.0529 28.8167 2.3826V27.6178C28.8167 27.9463 28.6812 28.247 28.4653 28.4653C28.2478 28.6816 27.9471 28.8167 27.6174 28.8167H2.3822C2.05127 28.8167 1.75136 28.6824 1.53346 28.4641C1.3176 28.2486 1.18335 27.9487 1.18335 27.6178V2.3826C1.18335 2.0529 1.3184 1.75216 1.53589 1.53589C1.75298 1.31881 2.05372 1.18335 2.3822 1.18335ZM4.42908 4.42857C4.19812 4.65953 4.19812 5.03412 4.42908 5.26508L14.1644 15.0004L4.42948 24.7353C4.19852 24.9662 4.19852 25.3408 4.42948 25.5718C4.66043 25.8027 5.03502 25.8027 5.26598 25.5718L15.0009 15.8369L24.7358 25.5718C24.9667 25.8027 25.3413 25.8027 25.5723 25.5718C25.8033 25.3408 25.8033 24.9662 25.5723 24.7353L15.8374 15.0004L25.5727 5.26508C25.8037 5.03412 25.8037 4.65953 25.5727 4.42857C25.3417 4.19762 24.9671 4.19762 24.7362 4.42857L15.0009 14.1639L5.26558 4.42857C5.03463 4.19762 4.66003 4.19762 4.42908 4.42857Z" fill="#2B2A29"/>
</svg>
