<svg width="50" height="50" viewBox="0 0 50 50" fill="none" xmlns="http://www.w3.org/2000/svg">
<path d="M50 0H0V1.69513H3.33387C8.39404 1.70176 12.494 5.87118 12.4998 11.0171V13.6026C6.40198 14.0495 1.67635 19.2058 1.66693 25.4238C1.66693 25.8914 2.03987 26.2707 2.50042 26.2707C2.97399 26.2685 3.44682 26.2368 3.91677 26.1757C2.99207 27.7398 2.50187 29.5299 2.50042 31.3554C2.50042 31.8238 2.87332 32.203 3.33387 32.203H4.16661C4.28464 32.203 4.39761 32.1838 4.51491 32.1794C3.74228 33.7678 3.33821 35.5152 3.33387 37.2877C3.33387 37.7553 3.70679 38.1354 4.16661 38.1354H5.83354C7.18475 38.1258 8.52005 37.8378 9.7583 37.2877L12.683 41.0058C12.9705 41.371 13.4947 41.4299 13.8539 41.1383C13.9017 41.0986 13.9459 41.0544 13.9843 41.0058L16.901 37.2944C18.1429 37.8415 19.4804 38.128 20.8337 38.1354H22.5C22.9605 38.1354 23.3334 37.7553 23.3334 37.2877C23.3291 35.516 22.9257 33.7685 22.1553 32.1794C22.2711 32.1794 22.3834 32.203 22.5 32.203H23.3334C23.7932 32.203 24.1669 31.8238 24.1669 31.3554C24.1647 29.5299 23.6752 27.7398 22.7498 26.1757C23.2197 26.2368 23.6933 26.2685 24.1669 26.2707C24.6267 26.2707 25.0004 25.8914 25.0004 25.4238C24.9909 19.2058 20.2653 14.0495 14.1668 13.6026V11.0171C14.1639 7.22687 12.2427 3.70547 9.0834 1.69513H18.3638C18.6838 8.42204 22.6469 14.4141 28.6528 17.2506L29.6536 17.719C30.0714 17.9141 30.5667 17.7285 30.7586 17.3036C30.8317 17.1416 30.8534 16.9612 30.8201 16.7867L29.5515 10.3477C31.5783 11.5782 33.8296 12.3779 36.1685 12.699C37.049 14.8514 37.5016 17.16 37.5002 19.4914V22.2779C31.4016 22.7249 26.676 27.8811 26.6666 34.0985C26.6666 34.5668 27.0395 34.946 27.5 34.946C27.9736 34.9438 28.4472 34.9114 28.9171 34.8503C27.9917 36.4144 27.5015 38.2053 27.5 40.0308C27.5 40.4984 27.873 40.8784 28.3335 40.8784H29.167C29.2843 40.8784 29.3972 40.8585 29.5153 40.8548C28.7426 42.4432 28.3379 44.1907 28.3335 45.9625C28.3335 46.4308 28.7064 46.81 29.167 46.81H30.8332C32.1844 46.8012 33.519 46.5125 34.7572 45.9625L37.6827 49.6812C37.9701 50.0472 38.4944 50.1068 38.8536 49.8145C38.9014 49.7747 38.9455 49.7306 38.9839 49.6812L41.9007 45.9705C43.1425 46.5169 44.48 46.8027 45.8334 46.81H47.4996C47.9601 46.81 48.3331 46.4308 48.3331 45.9625C48.3294 44.1907 47.9261 42.4432 47.1556 40.8548C47.2708 40.8548 47.3837 40.8784 47.4996 40.8784H48.3331C48.7936 40.8784 49.1665 40.4984 49.1665 40.0308C49.1651 38.2053 48.6748 36.4144 47.7494 34.8503C48.2194 34.9114 48.6929 34.9438 49.1665 34.946C49.6263 34.946 50 34.5668 50 34.0985C50.0036 27.8752 45.2715 22.7109 39.1664 22.2765V19.4914C39.1685 17.227 38.779 14.9796 38.0158 12.8529C40.3916 12.9258 42.7573 12.5009 44.9652 11.6047L48.643 10.1091C49.0702 9.93383 49.2773 9.44047 49.1057 9.00674C49.0594 8.88744 48.9862 8.78139 48.8928 8.69449L48.5742 8.39994C45.3344 5.40284 41.5212 3.12004 37.372 1.69513H50V0ZM3.37078 24.5379C3.80018 19.624 7.63008 15.7285 12.4629 15.2926C12.0335 20.2065 8.20358 24.102 3.37078 24.5379ZM4.20861 30.5079C4.39254 28.6522 5.17822 26.9106 6.44254 25.5593C7.43314 25.197 8.37086 24.6999 9.22967 24.0814C9.30281 24.1837 9.37522 24.2905 9.44981 24.3863L11.1761 26.5792C9.66052 29.0071 7.03631 30.4865 4.20861 30.5079ZM12.2703 27.9732L12.6809 28.496C12.9683 28.862 13.4933 28.9216 13.8525 28.6293C13.9003 28.5895 13.9444 28.5454 13.9821 28.496L14.3934 27.9732C14.9741 28.7921 15.6715 29.5174 16.4622 30.1256C16.3 30.4158 16.1168 30.6919 15.9155 30.9548L13.3333 34.2369L10.7503 30.9556C10.5483 30.6934 10.3651 30.4165 10.2029 30.1264C10.9936 29.5174 11.6903 28.7921 12.2703 27.9732ZM5.83354 36.4402H5.037C5.18473 34.8098 5.72853 33.2428 6.61993 31.8797C7.37302 31.6816 8.10003 31.3952 8.7865 31.0248C8.98346 31.3694 9.20434 31.7 9.4462 32.013L11.3137 34.3864C9.76409 35.6744 7.83502 36.3982 5.83354 36.4402ZM13.3333 39.1191L11.2688 36.4881C11.6454 36.2487 12.0096 35.9881 12.3586 35.709L12.683 36.1228C12.9705 36.4881 13.4947 36.5477 13.8539 36.2554C13.9017 36.2163 13.9459 36.1714 13.9843 36.1228L14.305 35.7141C14.6541 35.9961 15.019 36.2568 15.3978 36.4961L13.3333 39.1191ZM20.8337 36.4402C18.8294 36.4056 16.8953 35.6839 15.3449 34.3923L17.2168 32.013C17.4586 31.7 17.6795 31.3694 17.8757 31.0248C18.5651 31.3959 19.295 31.6831 20.0503 31.8805C20.9409 33.2435 21.484 34.8105 21.6303 36.4402H20.8337ZM22.4587 30.5079C19.631 30.4865 17.0068 29.0071 15.4912 26.5792L17.2168 24.3863C17.2921 24.2905 17.3645 24.1844 17.4376 24.0814C18.2964 24.6999 19.2342 25.197 20.224 25.5593C21.4884 26.9106 22.2747 28.6522 22.4587 30.5079ZM23.2958 24.5379H23.2922C18.4594 24.102 14.6295 20.2065 14.2001 15.2926C19.0343 15.727 22.8664 19.6218 23.2958 24.5379ZM16.1494 23.0033C16.0719 23.116 15.9944 23.2272 15.9155 23.3281L13.3333 26.6101L10.7503 23.3288C10.6714 23.2279 10.5932 23.1167 10.5164 23.004C11.7438 21.8214 12.7055 20.3818 13.3333 18.7845C13.9611 20.381 14.922 21.8207 16.1494 23.0033ZM28.3697 33.2133C28.5696 30.8296 29.5949 28.5955 31.2626 26.9084C32.9208 25.2118 35.1185 24.1697 37.4625 23.9679C37.0338 28.8826 33.2025 32.7781 28.3697 33.2133ZM29.2082 39.1818C29.3922 37.3268 30.1786 35.5867 31.4429 34.2369V34.2347C32.4335 33.8724 33.3705 33.3754 34.2293 32.7568C34.3025 32.8599 34.3749 32.9666 34.4502 33.0616L36.1758 35.2538C34.6602 37.6817 32.0359 39.1612 29.2082 39.1818ZM37.2699 36.6486L37.6805 37.1707C37.9679 37.5366 38.4929 37.5955 38.8521 37.3032C38.8999 37.2642 38.9441 37.22 38.9824 37.1707L39.393 36.6486C39.9738 37.4667 40.6711 38.1921 41.4626 38.8011H41.4582C41.296 39.0905 41.1128 39.3681 40.9108 39.6302L38.3329 42.9123L35.75 39.6302C35.5479 39.3681 35.3647 39.0905 35.2025 38.8011C35.9926 38.1921 36.6899 37.4667 37.2699 36.6486ZM30.8332 45.1156H30.0366C30.1843 43.4852 30.7282 41.9182 31.6196 40.5551C32.3727 40.3577 33.0997 40.0706 33.7869 39.7002C33.9838 40.0448 34.204 40.3747 34.4458 40.6884L36.3141 43.0611C34.7644 44.3497 32.8346 45.0729 30.8332 45.1156ZM38.3329 47.796L36.2677 45.1641C36.645 44.9256 37.0085 44.6656 37.3582 44.3866L37.6827 44.7989C37.9701 45.1649 38.4944 45.2238 38.8536 44.9322C38.9014 44.8925 38.9455 44.8482 38.9839 44.7989L39.3047 44.3917C39.6544 44.6738 40.0194 44.9344 40.3974 45.1737L38.3329 47.796ZM46.6299 45.117H45.8334C43.829 45.0832 41.8949 44.3615 40.3453 43.0684L42.2164 40.6899C42.4582 40.3769 42.6791 40.0463 42.876 39.7024C43.5654 40.0735 44.2961 40.3607 45.0513 40.5581C45.9405 41.9211 46.4829 43.4867 46.6299 45.1156V45.117ZM47.4583 39.1847C44.6299 39.1634 42.0057 37.6824 40.4908 35.2538L42.2164 33.0609C42.2917 32.9644 42.3641 32.8584 42.4372 32.7553C43.296 33.3746 44.2331 33.8739 45.2237 34.2369C46.488 35.5874 47.2744 37.3275 47.4583 39.1832V39.1847ZM48.2961 33.2133L48.2918 33.2148C43.4597 32.7789 39.6291 28.8834 39.1997 23.9695C44.0332 24.4047 47.8645 28.2986 48.2961 33.2133ZM38.3329 27.4569C38.9607 29.0534 39.9217 30.4931 41.149 31.675C41.0716 31.7891 40.9941 31.8996 40.9152 31.9998L38.3329 35.2855L35.75 32.0034C35.671 31.9033 35.5936 31.7913 35.5161 31.6787C36.7442 30.4953 37.7051 29.0556 38.3329 27.4569ZM46.7733 9.04428L46.769 9.04579L44.3417 10.0333C39.1512 12.1327 33.2568 11.2859 28.8418 7.80716C28.4783 7.51997 27.9548 7.58702 27.6724 7.95595C27.5239 8.15035 27.466 8.40147 27.5138 8.643L28.8556 15.4708C23.702 12.8154 20.3363 7.56268 20.0293 1.69513H27.2089C34.385 1.68924 41.325 4.29604 46.7733 9.04428Z" fill="#2B2A29"/>
</svg>
