<svg width="48" height="70" viewBox="0 0 48 70" fill="none" xmlns="http://www.w3.org/2000/svg">
<path d="M16.8874 17.9065H30.4768C31.0438 17.9075 31.5018 17.4475 31.5018 16.8815V12.3514C31.5018 11.7844 31.0428 11.3263 30.4758 11.3253H16.8874C16.3194 11.3263 15.8614 11.7844 15.8614 12.3514V16.8805C15.8614 17.4465 16.3204 17.9065 16.8874 17.9065ZM44.0603 42.274C45.8812 42.275 47.3632 40.792 47.3632 38.97C47.3632 37.1491 45.8813 35.6681 44.0593 35.6681L43.9602 35.6672V25.8475L44.0593 25.8466C45.8813 25.8466 47.3632 24.3646 47.3642 22.5436C47.3632 20.9823 46.2748 19.6719 44.8166 19.3289C44.994 18.9255 45.0912 18.4804 45.0912 18.0135V11.2193C45.0912 9.40431 43.6152 7.92828 41.8011 7.92828H28.1047V6.58115H29.3438C29.9098 6.58115 30.3698 6.12319 30.3698 5.55618C30.3698 4.99016 29.9098 4.53015 29.3438 4.53015H29.2367V1.02603C29.2367 0.46001 28.7787 0 28.2127 0H19.1525C18.5864 0 18.1265 0.46001 18.1265 1.02603V4.53112H18.0195C17.4524 4.53112 16.9945 4.99016 16.9935 5.55618C16.9935 6.1222 17.4524 6.58212 18.0195 6.58212H19.2595L19.2585 7.92828H5.56204C3.748 7.92828 2.272 9.40423 2.272 11.2183L2.27103 18.0135C2.27202 18.4814 2.37016 18.9255 2.5476 19.3289C1.08943 19.6709 0 20.9823 0 22.5436C0 24.3656 1.48197 25.8475 3.30393 25.8475H3.40403V28.5627C3.40403 29.1297 3.86399 29.5886 4.43001 29.5886C4.99603 29.5886 5.45502 29.1297 5.45502 28.5627V25.8466L41.9082 25.8475V35.6672L5.45502 35.6681V32.8014C5.45403 32.2354 4.99702 31.7764 4.43001 31.7754C3.86399 31.7754 3.40403 32.2354 3.40403 32.8014V35.6672H3.30393C1.48197 35.6672 0 37.1491 0 38.9711C0 40.7931 1.48199 42.2741 3.30296 42.275H3.40403V52.0817H3.30393C1.48197 52.0817 0 53.5637 0 55.3847C0 56.9459 1.08844 58.2563 2.5476 58.6003C2.37115 59.0028 2.272 59.4479 2.272 59.9158V66.711C2.272 68.524 3.74803 70 5.56306 70H41.8011C43.6162 70.001 45.0912 68.524 45.0912 66.711L45.0922 59.9158C45.0912 59.4479 44.993 59.0028 44.8166 58.6003C46.2738 58.2573 47.3632 56.9459 47.3632 55.3856C47.3632 53.5627 45.8813 52.0807 44.0593 52.0807L43.9591 52.0817V42.275H44.0603V42.274ZM20.1775 2.05099H27.1868V4.53112H20.1775V2.05099ZM21.3095 6.58212H26.0537V7.92828H21.3105L21.3095 6.58212ZM4.32294 11.2183C4.32195 10.5353 4.87806 9.97821 5.56204 9.97821H41.8011C42.4851 9.97821 43.0412 10.5354 43.0412 11.2193L43.0402 18.0135C43.0412 18.64 42.5733 19.1565 41.9706 19.2398H40.5611L40.562 16.8815C40.562 16.3155 40.1021 15.8555 39.5361 15.8555L35.006 15.8565C34.4389 15.8555 33.981 16.3144 33.981 16.8805V19.2407L13.3822 19.2398V16.8815C13.3822 16.3155 12.9233 15.8555 12.3563 15.8555L7.82712 15.8565C7.2611 15.8565 6.80114 16.3144 6.80114 16.8805L6.80215 19.2407L5.39253 19.2398C4.78984 19.1565 4.32294 18.639 4.32294 18.0135V11.2183ZM11.3313 19.2398L8.85213 19.2407V17.9065H11.3313V19.2398ZM38.5111 19.2398L36.0319 19.2407V17.9065H38.5111V19.2398ZM2.04998 22.5436C2.05097 21.8527 2.61301 21.2907 3.30393 21.2907H5.27956C5.37274 21.2986 5.4669 21.3035 5.56306 21.3045L41.8011 21.3035C41.8963 21.3045 41.9905 21.2996 42.0837 21.2916H44.0593C44.7502 21.2906 45.3122 21.8527 45.3122 22.5436C45.3112 23.2335 44.7502 23.7967 44.0593 23.7957H43.0908C43.0393 23.7877 42.9867 23.7827 42.9332 23.7827C42.8796 23.7827 42.8281 23.7877 42.7756 23.7957H4.58766C4.53512 23.7877 4.48356 23.7827 4.42904 23.7827C4.3765 23.7827 4.32396 23.7877 4.27241 23.7957H3.30393C2.61301 23.7967 2.05097 23.2345 2.04998 22.5436ZM2.05095 38.9711C2.05095 38.2802 2.61301 37.7191 3.30393 37.7191L44.0593 37.7181C44.7502 37.7181 45.3132 38.2801 45.3132 38.97C45.3123 39.662 44.7502 40.224 44.0603 40.224H3.30393C2.614 40.2231 2.05095 39.662 2.05095 38.9711ZM43.0412 66.71C43.0412 67.394 42.4851 67.9501 41.8011 67.9501H5.56204C4.87905 67.9501 4.32294 67.394 4.32294 66.71L4.32198 59.9147C4.32297 59.2882 4.79083 58.7689 5.3965 58.6886H6.80215V61.0469C6.80116 61.6129 7.26011 62.0728 7.82712 62.0728L12.3573 62.0738C12.9233 62.0738 13.3822 61.6138 13.3822 61.0478V58.6886H33.981V61.0469C33.981 61.6129 34.4399 62.0728 35.0069 62.0728H39.5361C40.1021 62.0728 40.562 61.6138 40.562 61.0478L40.5611 58.6886H41.9667C42.5723 58.7699 43.0412 59.2882 43.0402 59.9147L43.0412 66.71ZM36.0319 58.6886H38.5111V60.0229L36.0319 60.0218V58.6886ZM8.85213 58.6886L11.3313 58.6896V60.0229L8.85213 60.0218V58.6886ZM45.3132 55.3847C45.3123 56.0756 44.7502 56.6376 44.0603 56.6376H42.0777C41.9855 56.6307 41.8943 56.6257 41.8011 56.6257H39.543C39.541 56.6257 39.5391 56.6257 39.5371 56.6247C39.5351 56.6247 39.5331 56.6257 39.5311 56.6257L12.3642 56.6247C12.3612 56.6257 12.3593 56.6247 12.3573 56.6257C12.3553 56.6247 12.3533 56.6257 12.3503 56.6257H5.56306C5.46988 56.6257 5.37867 56.6297 5.28649 56.6376H3.30296C2.61304 56.6386 2.05095 56.0756 2.05095 55.3847C2.05095 54.6947 2.61301 54.1316 3.30393 54.1316H4.26747C4.32001 54.1406 4.37452 54.1456 4.42904 54.1456C4.48554 54.1456 4.53906 54.1406 4.59259 54.1327L42.7716 54.1316C42.8241 54.1396 42.8787 54.1456 42.9342 54.1465C42.9887 54.1456 43.0432 54.1406 43.0968 54.1327H44.0593C44.7502 54.1327 45.3132 54.6938 45.3132 55.3847ZM41.9082 52.0817L5.45502 52.0807L5.45401 42.274H41.9092L41.9082 52.0817ZM17.9124 13.3773L29.4508 13.3763L29.4518 15.8565L17.9124 15.8555V13.3773Z" fill="#2B2A29"/>
</svg>
