<svg width="56" height="70" viewBox="0 0 56 70" fill="none" xmlns="http://www.w3.org/2000/svg">
<path fill-rule="evenodd" clip-rule="evenodd" d="M5.4299 66.0351V62.0702H50.1163C50.1163 65.4176 50.6324 67.2652 48.6876 67.2652H6.8586C6.04866 67.2652 5.4299 66.8747 5.4299 66.0351ZM26.4743 41.1525C26.4743 43.1974 29.0718 43.1974 29.0718 41.1525C29.0718 39.5319 26.4743 39.5319 26.4743 41.1525ZM19.5889 9.98056V8.34011H35.9573C35.9573 9.87947 36.2502 11.8947 34.1387 11.8947H21.4075C20.2717 11.8947 19.5889 11.177 19.5889 9.98056ZM16.8614 8.06655C16.8614 10.273 16.7079 11.3395 17.8964 12.9919C18.3862 13.6719 19.6491 14.6294 20.7586 14.6294H34.7876C36.7691 14.6294 38.6847 12.4894 38.6847 9.707C38.6847 8.53241 38.8401 7.14266 38.2044 6.38438C37.9181 6.04241 37.4161 5.60534 36.8661 5.60534H18.68C17.7232 5.60534 16.8614 6.6273 16.8614 8.06655ZM2.70247 57.695C2.70247 56.8079 3.53593 56.3281 4.39108 56.3281H51.1551C53.4973 56.3281 53.1752 59.1997 51.6749 59.1997H3.8712C3.0735 59.1997 2.70247 58.5485 2.70247 57.695ZM5.4299 48.3983H50.1163V53.5933H5.4299V48.3983ZM5.4299 34.7264H50.1163V39.9215H33.7488C32.628 39.9215 32.3201 40.4934 32.3201 41.4261C32.3201 43.1875 35.0287 42.793 36.7361 42.793L51.0289 42.789C53.8364 42.7623 52.9398 45.5278 51.6749 45.5278H3.8712C2.55457 45.5278 1.81808 42.7692 4.38542 42.787L18.68 42.793C21.0326 42.793 23.2261 43.2886 23.2261 41.1525C23.2261 40.313 22.6083 39.9215 21.7974 39.9215H5.4299V34.7264ZM2.70247 30.6248C2.70247 29.7892 3.0396 29.1211 3.8712 29.1211H51.6749C53.244 29.1211 53.244 31.8559 51.6749 31.8559H3.8712C3.2289 31.8559 2.70247 31.3008 2.70247 30.6248ZM5.4299 21.0545H50.1163V26.2505H5.4299V21.0545ZM5.4299 3.96489C5.4299 3.12532 6.04866 2.73477 6.8586 2.73477H48.6876C49.4975 2.73477 50.1163 3.12532 50.1163 3.96489V18.3208H5.4299V3.96489ZM2.70247 26.5231C-0.854701 27.3954 -0.854701 33.5806 2.70247 34.4529V40.195C-0.854701 41.0673 -0.854701 47.2525 2.70247 48.1248V53.8669C-0.0739513 54.5479 -1.37461 59.3881 2.07802 61.4974C2.35114 61.6639 2.44159 61.6658 2.70247 61.7967C2.70247 64.8942 2.10064 67.2921 4.16694 69.1417C4.6077 69.5362 5.44966 70 6.20969 70H49.3364C50.0644 70 50.8838 69.5639 51.3076 69.2041C51.9123 68.6907 52.2004 68.2981 52.5442 67.4972C53.1281 66.1382 52.8437 63.6136 52.8437 61.7967C53.5764 61.4269 54.1726 61.1841 54.7188 60.3515C56.7794 57.2093 54.6002 54.2981 52.8437 53.8669V48.1248C56.4009 47.2525 56.4009 41.0673 52.8437 40.195V34.4529C56.4009 33.5806 56.4009 27.3954 52.8437 26.5231C52.8437 21.5105 52.8437 16.4978 52.8437 11.4842C52.8437 8.99825 52.903 6.43496 52.8494 3.95889C52.8239 2.80709 52.3502 1.86944 51.7766 1.25984C51.2295 0.678983 50.3828 0 49.3364 0H6.20969C4.4118 0 2.77967 1.95071 2.69961 3.82511C2.59696 6.22486 2.70247 8.91599 2.70247 11.3475C2.70247 16.4067 2.70247 21.4649 2.70247 26.5231Z" fill="#2B2A29"/>
</svg>
