<svg width="30" height="30" viewBox="0 0 30 30" fill="none" xmlns="http://www.w3.org/2000/svg">
<path fill-rule="evenodd" clip-rule="evenodd" d="M2.38222 0H27.6174C28.2709 0 28.8662 0.268334 29.2978 0.699573C29.7317 1.13384 30 1.72911 30 2.38259V27.6178C30 28.2731 29.7313 28.8696 29.3004 29.3004C28.8662 29.7317 28.2709 30 27.6174 30H2.38222C1.72912 30 1.13347 29.7317 0.700717 29.2993C0.268723 28.8696 0 28.2731 0 27.6178V2.38259C0 1.72911 0.268334 1.13386 0.699573 0.701861C1.13043 0.268733 1.72648 0 2.38222 0ZM13.1397 9.59988L9.72611 5.66317C9.64372 5.58644 9.5341 5.54753 9.42109 5.54753C9.28957 5.54753 9.15124 5.5974 9.03672 5.69642C8.14099 6.46404 7.08275 7.65119 6.22027 8.51594C5.88541 8.85118 5.66997 9.26651 5.58758 9.69662C5.5067 10.118 5.5532 10.5538 5.73953 10.9374C7.14323 13.8442 9.01822 16.4721 11.2674 18.7247C13.5154 20.9761 16.1406 22.8541 19.0448 24.262C19.428 24.4483 19.8631 24.4948 20.2845 24.4136C20.7135 24.3308 21.1281 24.1157 21.461 23.7824L24.3036 20.9323C24.4026 20.817 24.4525 20.6779 24.4521 20.5464C24.4517 20.4322 24.4128 20.3219 24.3361 20.2403L20.3839 16.844C20.2932 16.7662 20.1726 16.7325 20.0501 16.7412C19.9156 16.7507 19.7788 16.8115 19.6711 16.9196L18.307 18.2855C18.2303 18.3645 18.1438 18.4288 18.0523 18.4764L18.01 18.496C17.9261 18.5353 17.8372 18.5625 17.7469 18.5777L17.7031 18.5833C17.6063 18.5946 17.5096 18.5924 17.4166 18.5769C17.3104 18.5591 17.2053 18.5225 17.1074 18.4703L17.0761 18.4522C15.9241 17.7874 14.87 16.9759 13.941 16.0454C13.0045 15.1081 12.1915 14.0483 11.5282 12.8929L11.4942 12.8223C11.4564 12.7402 11.4295 12.6541 11.4152 12.5679C11.3974 12.4617 11.3974 12.3517 11.4148 12.2425L11.4189 12.2194C11.4375 12.1178 11.4703 12.021 11.5168 11.9322C11.5633 11.8404 11.6272 11.7546 11.7051 11.6786L13.0642 10.3184C13.1738 10.2084 13.235 10.0704 13.2441 9.93476C13.2524 9.81079 13.2184 9.69059 13.1397 9.59988ZM10.5859 4.97758L13.9689 8.88252C14.246 9.20188 14.3677 9.60743 14.3393 10.0099C14.3121 10.3992 14.1443 10.7881 13.842 11.0916L12.5207 12.4141C13.1307 13.4633 13.8711 14.4236 14.7188 15.2721C15.568 16.1229 16.5254 16.8637 17.5693 17.4722L18.8932 16.1463C19.1952 15.8432 19.5845 15.6739 19.973 15.6459C20.374 15.6164 20.7777 15.7366 21.0967 16.0103C22.3394 17.0772 23.9766 18.3293 25.1007 19.4534C25.397 19.7493 25.5459 20.142 25.5474 20.5418C25.5489 20.9289 25.4117 21.325 25.1373 21.6451L25.047 21.7449L22.2388 24.5557C21.7449 25.05 21.1292 25.369 20.4908 25.4922C19.8438 25.617 19.1692 25.5421 18.5678 25.25C15.5518 23.7881 12.8253 21.8371 10.4896 19.498C8.15499 17.16 6.20854 14.4316 4.75155 11.4144C4.45902 10.8123 4.38457 10.1373 4.50891 9.49026C4.63175 8.85115 4.94961 8.23588 5.44245 7.74266C6.39715 6.78645 7.34732 5.8034 8.3194 4.86723C8.63876 4.59057 9.03483 4.45184 9.42109 4.45222C9.81378 4.4526 10.1985 4.59508 10.4918 4.87778L10.5859 4.97758ZM27.6174 1.18334H2.38222C2.05378 1.18334 1.75329 1.31903 1.53597 1.53597C1.31865 1.75215 1.18334 2.05302 1.18334 2.38259V27.6178C1.18334 27.9462 1.31903 28.2467 1.53597 28.464C1.7514 28.6821 2.05151 28.8167 2.38222 28.8167H27.6174C27.947 28.8167 28.2474 28.6813 28.4651 28.4651C28.6809 28.2467 28.8167 27.9462 28.8167 27.6178V2.38259C28.8167 2.05302 28.6813 1.75256 28.4651 1.53486C28.2474 1.31867 27.947 1.18334 27.6174 1.18334Z" fill="#2B2A29"/>
</svg>
