<svg width="35" height="30" viewBox="0 0 35 30" fill="none" xmlns="http://www.w3.org/2000/svg">
<path d="M4.31626 0L4.31626 7.58499L4.31626 11.6942L4.31626 23.4777C4.31626 26.0797 6.4235 28.1891 9.02273 28.1891H14.436C15.3183 28.1891 16.1507 28.5981 16.6912 29.2969L17.0947 30L17.4699 29.5032C18.0083 28.7884 18.8507 28.3685 19.7454 28.3685H25.2276C27.8269 28.3685 29.9341 26.2591 29.9341 23.6571V11.6942L29.9341 7.58571V0L4.31626 0ZM29.9341 11.6942C26.9902 12.2462 24.7567 12.6646 23.0623 12.9814C22.7655 13.8218 22.3976 14.2344 21.9499 14.2344C21.5777 14.2344 21.2613 13.9482 20.9935 13.3678C19.982 13.5567 19.2832 13.686 18.8007 13.7753C18.7397 15.353 18.6439 17.0579 18.509 18.6262C18.4197 19.6656 18.321 20.5634 18.2129 21.3131L22.2489 22.4462C22.5246 22.524 22.7568 22.7027 22.9027 22.9496C23.116 23.3099 23.1102 23.753 22.8867 24.1061C22.5704 24.6094 22.4804 24.7046 22.3215 24.7046H17.4343C17.3987 24.9676 17.3733 25.1426 17.3697 25.1673L17.1245 26.822L16.8806 25.168C16.877 25.1433 16.8509 24.9676 16.8153 24.7046H11.9282C11.7693 24.7046 11.6793 24.6094 11.3629 24.1061C11.1401 23.7523 11.1336 23.3092 11.3469 22.9489C11.4928 22.7019 11.7257 22.524 12.0015 22.4462L16.0367 21.3123C15.9293 20.5634 15.8299 19.6649 15.7407 18.6262C15.6064 17.0579 15.5099 15.353 15.449 13.7753C14.9664 13.686 14.2684 13.5567 13.2561 13.3671C12.9891 13.9482 12.672 14.2337 12.2997 14.2337C11.852 14.2337 11.4848 13.8218 11.188 12.9806C9.49367 12.6646 7.26016 12.2462 4.31626 11.6942L1.50587 11.1661C1.04291 11.0789 0.630027 10.8022 0.373152 10.4063L0.279545 10.2617C-0.123908 9.63995 -0.0876267 8.83148 0.368798 8.24818C0.699688 7.82688 1.19602 7.58499 1.73154 7.58499L4.31626 7.58499L10.4929 7.58499C10.5168 6.11404 10.6815 5.36731 11.3324 5.36731L11.8571 5.36804V5.25472C11.8433 5.24601 11.8295 5.23584 11.8193 5.22276C11.8041 5.2046 11.7939 5.18354 11.7881 5.16102C9.92832 5.15593 9.63734 5.07966 9.59743 5.06368L9.32387 4.95617L9.59743 4.84867C9.63807 4.83269 9.93558 4.75496 11.852 4.75133L11.9775 4.12881C12.016 3.94286 12.1814 3.80702 12.3715 3.80702C12.5754 3.81138 12.7387 3.95448 12.7692 4.14697L12.8642 4.75206C14.7785 4.75569 15.0753 4.83269 15.1159 4.84867L15.3895 4.95617L15.1159 5.06441C15.076 5.07966 14.7843 5.15666 12.9143 5.16102C12.9078 5.18426 12.8969 5.20678 12.8802 5.22494C12.8737 5.23366 12.865 5.24092 12.8563 5.24818L12.857 5.36804H13.2677C13.9186 5.36804 14.0833 6.11404 14.1073 7.58499L15.4098 7.58571C15.462 6.31235 15.5629 5.28814 15.7138 4.48765C15.991 3.01598 16.4525 2.30121 17.1252 2.30048C17.7978 2.30121 18.2593 3.01598 18.5373 4.48765C18.6875 5.28814 18.7883 6.31235 18.8413 7.58499L20.1431 7.58571C20.167 6.11404 20.3325 5.36804 20.9827 5.36731L21.4558 5.36804V5.25545C21.442 5.246 21.4289 5.23584 21.418 5.22276C21.4035 5.2046 21.3926 5.18354 21.3868 5.16102C19.527 5.15666 19.2368 5.07966 19.1969 5.06441L18.9233 4.9569L19.1969 4.8494C19.2368 4.83269 19.5343 4.75569 21.4514 4.75206L21.577 4.12954C21.6154 3.94286 21.7809 3.80702 21.971 3.80702C22.1742 3.81138 22.3381 3.95521 22.3679 4.14697L22.463 4.75133C24.3772 4.75569 24.674 4.83269 24.7146 4.84867L24.9882 4.95617L24.7146 5.06441C24.6747 5.07966 24.383 5.15666 22.513 5.16102C22.5072 5.18499 22.4956 5.20678 22.4796 5.22567C22.4724 5.23366 22.4637 5.24165 22.4557 5.24818V5.36804H22.9179C23.5688 5.36804 23.7335 6.11404 23.7575 7.58571L29.9341 7.58571H32.5195C33.0543 7.58571 33.5507 7.8276 33.8808 8.24891C34.338 8.83148 34.3735 9.64068 33.9708 10.2617L33.8772 10.407C33.6203 10.8029 33.2074 11.0789 32.7452 11.1668L29.9341 11.6942Z" fill="#000000"/>
</svg>
