<svg width="40" height="50" viewBox="0 0 40 50" fill="none" xmlns="http://www.w3.org/2000/svg">
<path d="M29.167 5.00083H30.8339L30.8332 0L29.1663 0.000707152L29.167 5.00083ZM16.6671 11.6671H18.3341L18.3334 0.000707152H16.6671V11.6671ZM13.334 11.6671H15.0002V0L13.3333 0.000707152L13.334 11.6671ZM3.33316 11.6671L5.00009 11.6664L5.0008 0.000707152H3.33387L3.33316 11.6671ZM0.000743011 11.6671H1.66693V0.000707152L0.000743011 0V11.6671ZM17.5006 19.1676C17.0408 19.1705 16.5824 19.2089 16.1284 19.2813C17.5513 17.6266 18.3341 15.5166 18.3334 13.3341C18.3334 12.8735 17.9604 12.5005 17.4999 12.5005C15.4513 12.5005 13.4629 13.1907 11.8546 14.46C13.1877 11.9908 10.4477 7.18335 9.88068 6.23764C9.61058 5.843 9.07182 5.74301 8.67717 6.01383C8.58883 6.07393 8.51279 6.15002 8.45269 6.23764C7.88643 7.18335 5.14708 11.9871 6.47875 14.4608C4.87119 13.1906 2.88275 12.5005 0.833485 12.5005C0.373666 12.4998 0.000724625 12.8735 5.01476e-07 13.3341C-0.000723622 15.5158 0.782792 17.6266 2.20497 19.2813C1.75167 19.2089 1.29258 19.1705 0.833485 19.1676C0.373666 19.1668 5.01476e-07 19.5398 5.01476e-07 20.0003C5.01476e-07 22.1828 0.782792 24.2929 2.20497 25.9482C1.75167 25.8751 1.29329 25.8374 0.834192 25.8331C0.372925 25.8338 1.88874e-05 26.2067 0.000743011 26.6665C1.88874e-05 28.8498 0.782068 30.9599 2.20497 32.6145C1.75167 32.5421 1.2933 32.5037 0.833485 32.5001C0.372942 32.5001 1.88874e-05 32.873 0.000743011 33.3336C0.006536 38.0701 3.61773 42.023 8.33322 42.4582V50H10.0001V42.4575C14.7171 42.0238 18.3276 38.0693 18.3334 33.3336C18.3334 32.8737 17.9604 32.5008 17.4999 32.5001C17.0408 32.5037 16.5824 32.5414 16.1284 32.6145C17.5513 30.9599 18.3341 28.8491 18.3341 26.6665C18.3333 26.2067 17.9604 25.8338 17.5006 25.8331C17.0408 25.8374 16.5824 25.8758 16.1284 25.9482C17.5513 24.2929 18.3341 22.1835 18.3341 20.0003C18.3333 19.5398 17.9604 19.1668 17.5006 19.1676ZM16.615 14.2196C16.2008 17.6585 13.4911 20.3674 10.053 20.7823C10.4658 17.3435 13.1769 14.6324 16.615 14.2196ZM7.79518 22.3863C8.2492 22.458 8.70759 22.497 9.16741 22.4999C9.6265 22.497 10.0849 22.4587 10.5382 22.3863C9.98351 23.0358 9.5215 23.76 9.16741 24.537C8.81186 23.76 8.35058 23.0358 7.79518 22.3863ZM10.5382 29.0525C9.98351 29.7028 9.5215 30.4262 9.16741 31.2039C8.81186 30.4262 8.34986 29.7028 7.79518 29.0525C8.2492 29.125 8.70757 29.1633 9.16667 29.167C9.62648 29.1633 10.0849 29.1257 10.5382 29.0525ZM9.16667 8.41001C10.129 10.3528 10.927 12.7257 10.3825 13.6859C10.3159 13.8054 10.1109 14.1668 9.16741 14.1675C8.22315 14.1675 8.01751 13.8054 7.95089 13.6859C7.4078 12.7265 8.20503 10.3528 9.16667 8.41001ZM9.16741 15.8337C9.70036 15.846 10.2304 15.7396 10.7178 15.5216C10.0842 16.2204 9.56059 17.0133 9.16667 17.8699C8.77347 17.0126 8.24995 16.2211 7.61634 15.5216C8.10368 15.7396 8.633 15.846 9.16741 15.8337ZM1.71979 14.2196C5.15793 14.6324 7.86833 17.3435 8.28181 20.7816C4.84294 20.3682 2.13327 17.6585 1.71979 14.2196ZM1.71909 20.8866C5.15795 21.2994 7.86906 24.0098 8.28181 27.4487C4.84294 27.0352 2.13328 24.3248 1.71909 20.8866ZM1.71979 27.5522C5.15793 27.9664 7.86906 30.6768 8.28181 34.1149C4.84294 33.7014 2.13327 30.991 1.71979 27.5522ZM1.71979 34.2192C5.15793 34.6327 7.86833 37.3431 8.28181 40.7819C4.84367 40.3685 2.13254 37.6581 1.71979 34.2192ZM9.16667 37.8702C8.81257 37.0925 8.3506 36.3684 7.79592 35.7189C8.24922 35.792 8.70757 35.8296 9.16667 35.834C9.62648 35.8296 10.0849 35.7913 10.5389 35.7189C9.98349 36.3691 9.52149 37.0925 9.16667 37.8702ZM16.615 34.2192C16.2008 37.6581 13.4912 40.3677 10.0523 40.7819C10.4658 37.3431 13.1762 34.632 16.615 34.2192ZM16.6157 27.5529C16.2008 30.991 13.4911 33.7007 10.053 34.1149C10.4658 30.676 13.1769 27.9656 16.6157 27.5529ZM10.053 27.4487C10.4658 24.0098 13.1769 21.2994 16.6157 20.8866C16.2008 24.3241 13.4911 27.0345 10.053 27.4487ZM8.33392 5.00006H10.0001V0.000707152L8.33392 0V5.00006ZM37.5002 11.6664L39.1671 11.6671L39.1664 0L37.5002 0.000707152V11.6664ZM34.167 11.6671H35.834L35.8332 0.000707152H34.1663L34.167 11.6671ZM24.1669 11.6671H25.8331L25.8338 0.000707152L24.1669 0V11.6671ZM20.833 11.6671H22.5V0L20.8337 0.000707152L20.833 11.6671ZM38.3336 19.1668C37.8745 19.1712 37.4155 19.2089 36.9614 19.2813C38.3851 17.6266 39.1671 15.5166 39.1664 13.3341C39.1664 12.8735 38.7935 12.5005 38.3329 12.4998C36.2844 12.4998 34.2959 13.1914 32.6877 14.4608C34.0215 11.9908 31.2807 7.18262 30.7144 6.23764C30.4436 5.84372 29.9056 5.74302 29.5109 6.01312C29.4219 6.07322 29.3458 6.15002 29.2857 6.23764C28.7195 7.18335 25.9801 11.9879 27.3125 14.4608C25.7049 13.1914 23.7158 12.5005 21.6665 12.4998C21.2067 12.5005 20.8338 12.8735 20.833 13.3333C20.833 15.5165 21.6158 17.6266 23.0387 19.282C22.5847 19.2088 22.1263 19.1712 21.6665 19.1668C21.2067 19.1676 20.8338 19.5405 20.833 20.0003C20.8338 22.1828 21.6158 24.2929 23.0387 25.9475C22.5847 25.8751 22.1263 25.8367 21.6672 25.8338C21.2067 25.8331 20.833 26.2068 20.8337 26.6673C20.833 28.8491 21.6158 30.9592 23.038 32.6145C22.5847 32.5421 22.1263 32.5037 21.6672 32.5001C21.2067 32.5001 20.833 32.873 20.8337 33.3336C20.8395 38.0701 24.45 42.0238 29.167 42.4575L29.1663 50H30.8332V42.4582C35.5501 42.023 39.1606 38.0701 39.1671 33.3336C39.1664 32.873 38.7934 32.5001 38.3336 32.5008C37.8738 32.5037 37.4155 32.5421 36.9614 32.6145C38.3843 30.9599 39.1671 28.8498 39.1671 26.6673C39.1664 26.2061 38.7934 25.8331 38.3336 25.8338C37.8738 25.8367 37.4155 25.8751 36.9614 25.9482C38.3843 24.2929 39.1671 22.1828 39.1664 20.0003C39.1664 19.5405 38.7934 19.1668 38.3336 19.1668ZM37.448 14.2189C37.0338 17.6578 34.3242 20.3682 30.886 20.7816C31.2988 17.3428 34.0099 14.6324 37.448 14.2189ZM28.6282 22.3856C29.0822 22.4587 29.5406 22.4963 30.0004 22.4999C30.4595 22.4963 30.9179 22.458 31.3719 22.3856C30.8173 23.0359 30.3553 23.7599 30.0004 24.5362C29.6449 23.7592 29.1836 23.0359 28.6282 22.3856ZM31.3712 29.0525C30.8172 29.7021 30.3545 30.4262 30.0004 31.2032C29.6449 30.4262 29.1836 29.7021 28.6282 29.0525C29.0822 29.125 29.5406 29.1633 30.0004 29.167C30.4595 29.1633 30.9179 29.125 31.3712 29.0525ZM30.0004 8.41001C30.9621 10.3528 31.76 12.7265 31.2155 13.6859C31.1489 13.8054 30.944 14.1668 30.0004 14.1668C29.0562 14.1668 28.8505 13.8054 28.7846 13.6866C28.2408 12.7257 29.0381 10.3528 30.0004 8.41001ZM31.5508 15.5223C30.9164 16.2211 30.3936 17.0126 29.9997 17.8706C29.6065 17.0133 29.0837 16.2204 28.4493 15.5223C29.4414 15.938 30.5587 15.9373 31.5508 15.5223ZM22.5528 14.2196C25.9917 14.6331 28.7014 17.3428 29.1156 20.7816C25.6767 20.3689 22.9663 17.6578 22.5528 14.2196ZM22.5528 20.8859C25.9917 21.3001 28.7021 24.0098 29.1148 27.4487C25.676 27.0352 22.9663 24.3248 22.5528 20.8859ZM22.5521 27.5529C25.9909 27.9656 28.7021 30.6768 29.1148 34.1149C25.676 33.7014 22.9663 30.9917 22.5521 27.5529ZM22.5528 34.2192C25.991 34.6327 28.7021 37.3431 29.1148 40.7819C25.6767 40.3685 22.9663 37.6581 22.5528 34.2192ZM30.0004 37.8702C29.6449 37.0932 29.1829 36.3691 28.6282 35.7196C29.0822 35.7913 29.5406 35.8297 30.0004 35.8333C30.4595 35.8304 30.9186 35.792 31.3719 35.7196C30.8165 36.3691 30.3545 37.0932 30.0004 37.8702ZM37.4488 34.2192C37.0338 37.6573 34.3242 40.3677 30.886 40.7819C31.2995 37.3431 34.0099 34.6327 37.4488 34.2192ZM37.4488 27.5529C37.0338 30.991 34.3242 33.7007 30.886 34.1156C31.2988 30.6767 34.0099 27.9656 37.4488 27.5529ZM30.886 27.4487C31.2988 24.0098 34.0099 21.2994 37.4488 20.8859C37.0338 24.3248 34.3242 27.0345 30.886 27.4487Z" fill="#2B2A29"/>
</svg>
