<svg width="30" height="30" viewBox="0 0 30 30" fill="none" xmlns="http://www.w3.org/2000/svg">
<path fill-rule="evenodd" clip-rule="evenodd" d="M27.6174 0H2.3822C1.72646 0 1.13029 0.268506 0.699387 0.701858C0.268076 1.13358 0 1.7289 0 2.3826V27.6178C0 28.2735 0.268495 28.8697 0.700622 29.2994C1.13316 29.7319 1.72891 30 2.3822 30H27.6174C28.2711 30 28.8664 29.7319 29.3006 29.3006C29.7315 28.8697 30 28.2735 30 27.6178V2.3826C30 1.7289 29.7319 1.13355 29.2981 0.699387C28.8664 0.268076 28.2711 0 27.6174 0ZM2.3822 1.18335H27.6174C27.9471 1.18335 28.2478 1.31843 28.4653 1.5347C28.6816 1.75219 28.8167 2.0529 28.8167 2.3826V27.6178C28.8167 27.9463 28.6812 28.247 28.4653 28.4653C28.2478 28.6816 27.9471 28.8167 27.6174 28.8167H2.3822C2.05127 28.8167 1.75135 28.6824 1.53589 28.4641C1.31881 28.247 1.18335 27.9463 1.18335 27.6178V2.3826C1.18335 2.0529 1.3184 1.75216 1.53589 1.53589C1.75298 1.31881 2.05372 1.18335 2.3822 1.18335ZM22.5 4.89999C22.8314 4.89999 23.1 5.16862 23.1 5.49999C23.1 5.83137 22.8314 6.09999 22.5 6.09999H16.5C16.1687 6.09999 15.9 5.83137 15.9 5.49999C15.9 5.16862 16.1687 4.89999 16.5 4.89999H22.5ZM22.5 10.9C22.8314 10.9 23.1 11.1686 23.1 11.5C23.1 11.8314 22.8314 12.1 22.5 12.1L16.5 12.1C16.1687 12.1 15.9 11.8314 15.9 11.5C15.9 11.1686 16.1687 10.9 16.5 10.9H22.5ZM22.5 13.9C22.8314 13.9 23.1 14.1686 23.1 14.5C23.1 14.8314 22.8314 15.1 22.5 15.1L7.50002 15.1C7.16865 15.1 6.90002 14.8314 6.90002 14.5C6.90002 14.1686 7.16865 13.9 7.50002 13.9L22.5 13.9ZM22.5 15.9C22.8314 15.9 23.1 16.1686 23.1 16.5C23.1 16.8314 22.8314 17.1 22.5 17.1H7.50002C7.16865 17.1 6.90002 16.8314 6.90002 16.5C6.90002 16.1686 7.16865 15.9 7.50002 15.9L22.5 15.9ZM22.5 17.9C22.8314 17.9 23.1 18.1686 23.1 18.5C23.1 18.8314 22.8314 19.1 22.5 19.1H7.50002C7.16865 19.1 6.90002 18.8314 6.90002 18.5C6.90002 18.1686 7.16865 17.9 7.50002 17.9H22.5ZM22.5 19.9C22.8314 19.9 23.1 20.1686 23.1 20.5C23.1 20.8314 22.8314 21.1 22.5 21.1H7.50002C7.16865 21.1 6.90002 20.8314 6.90002 20.5C6.90002 20.1686 7.16865 19.9 7.50002 19.9H22.5ZM13.5 23.9C13.8314 23.9 14.1 24.1686 14.1 24.5C14.1 24.8314 13.8314 25.1 13.5 25.1H7.50002C7.16865 25.1 6.90002 24.8314 6.90002 24.5C6.90002 24.1686 7.16865 23.9 7.50002 23.9H13.5ZM22.5 23.9C22.8314 23.9 23.1 24.1686 23.1 24.5C23.1 24.8314 22.8314 25.1 22.5 25.1H16.5C16.1687 25.1 15.9 24.8314 15.9 24.5C15.9 24.1686 16.1687 23.9 16.5 23.9H22.5ZM22.5 7.89999C22.8314 7.89999 23.1 8.16862 23.1 8.49999C23.1 8.83137 22.8314 9.09999 22.5 9.09999L16.5 9.09999C16.1687 9.09999 15.9 8.83136 15.9 8.49999C15.9 8.16862 16.1687 7.89999 16.5 7.89999H22.5ZM6.90002 5.99999C6.90002 5.39248 7.39251 4.89999 8.00002 4.89999H13C13.6075 4.89999 14.1 5.39248 14.1 5.99999V11C14.1 11.6075 13.6075 12.1 13 12.1H8.00002C7.39251 12.1 6.90002 11.6075 6.90002 11V5.99999Z" fill="#2B2A29"/>
</svg>
