<svg width="30" height="30" viewBox="0 0 30 30" fill="none" xmlns="http://www.w3.org/2000/svg">
<path fill-rule="evenodd" clip-rule="evenodd" d="M27.6174 0H2.3822C1.72646 0 1.13029 0.268506 0.699387 0.701858C0.268076 1.13358 0 1.7289 0 2.3826V27.6178C0 28.2735 0.268495 28.8697 0.700622 29.2994C1.13316 29.7319 1.72891 30 2.3822 30H27.6174C28.2711 30 28.8664 29.7319 29.3006 29.3006C29.7315 28.8697 30 28.2735 30 27.6178V2.3826C30 1.7289 29.7319 1.13355 29.2981 0.699387C28.8664 0.268076 28.2711 0 27.6174 0ZM2.3822 1.18335H27.6174C27.9471 1.18335 28.2478 1.31843 28.4653 1.5347C28.6816 1.75219 28.8167 2.0529 28.8167 2.3826V27.6178C28.8167 27.9463 28.6812 28.247 28.4653 28.4653C28.2478 28.6816 27.9471 28.8167 27.6174 28.8167H2.3822C2.05127 28.8167 1.75135 28.6824 1.53589 28.4641C1.31881 28.247 1.18335 27.9463 1.18335 27.6178V2.3826C1.18335 2.0529 1.3184 1.75216 1.53589 1.53589C1.75298 1.31881 2.05372 1.18335 2.3822 1.18335ZM24 19.9167C24 21 22.875 21 22.875 21H13.875C13.875 21 12.75 21 12.75 19.9167C12.75 18.8333 13.875 15.5833 18.375 15.5833C22.875 15.5833 24 18.8333 24 19.9167ZM13.875 19.9123C13.8832 19.9141 13.8914 19.9156 13.8997 19.9167H22.8503C22.8555 19.9161 22.8608 19.9154 22.866 19.9145L22.875 19.9123C22.8727 19.6274 22.6871 18.7965 22.02 18.049C21.3979 17.3492 20.3066 16.6667 18.375 16.6667C16.4422 16.6667 15.351 17.3481 14.73 18.049C14.0629 18.7965 13.8761 19.6263 13.875 19.9123ZM19.966 12.7821C19.544 13.1884 18.9717 13.4167 18.375 13.4167C17.7783 13.4167 17.206 13.1884 16.784 12.7821C16.3621 12.3757 16.125 11.8246 16.125 11.25C16.125 10.6754 16.3621 10.1243 16.784 9.71794C17.206 9.31161 17.7783 9.08333 18.375 9.08333C18.9717 9.08333 19.544 9.31161 19.966 9.71794C20.3879 10.1243 20.625 10.6754 20.625 11.25C20.625 11.8246 20.3879 12.3757 19.966 12.7821ZM21.4931 12.4937C21.6627 12.0994 21.75 11.6768 21.75 11.25C21.75 10.388 21.3944 9.5614 20.7615 8.9519C20.1286 8.34241 19.2701 8 18.375 8C17.4799 8 16.6214 8.34241 15.9885 8.9519C15.3556 9.5614 15 10.388 15 11.25C15 11.6768 15.0873 12.0994 15.2569 12.4937C15.4265 12.888 15.6751 13.2463 15.9885 13.5481C16.3019 13.8499 16.674 14.0893 17.0834 14.2526C17.4929 14.4159 17.9318 14.5 18.375 14.5C18.8182 14.5 19.2571 14.4159 19.6666 14.2526C20.076 14.0893 20.4481 13.8499 20.7615 13.5481C21.0749 13.2463 21.3235 12.888 21.4931 12.4937ZM12.4193 15.6191C12.8891 15.6605 13.353 15.7502 13.803 15.8867C13.443 16.1542 13.1246 16.4522 12.8512 16.7707C12.0491 17.7045 11.625 18.8225 11.625 19.9167C11.6181 20.291 11.7012 20.6618 11.868 21H7.125C6.37463 21 6 20.6392 6 19.9167C6 18.8333 7.125 15.5833 11.625 15.5833C11.8902 15.583 12.1552 15.5949 12.4193 15.6191ZM11.5342 16.6678C9.65821 16.6885 8.59304 17.3601 7.98 18.049C7.3095 18.8008 7.125 19.635 7.125 19.9167H10.5C10.5095 18.7599 10.8689 17.6309 11.5342 16.6678ZM8.67601 9.49357C8.04308 10.1031 7.6875 10.9297 7.6875 11.7917C7.6875 12.6536 8.04308 13.4803 8.67601 14.0898C9.30895 14.6993 10.1674 15.0417 11.0625 15.0417C11.9576 15.0417 12.816 14.6993 13.449 14.0898C14.0819 13.4803 14.4375 12.6536 14.4375 11.7917C14.4375 10.9297 14.0819 10.1031 13.449 9.49357C12.816 8.88408 11.9576 8.54167 11.0625 8.54167C10.1674 8.54167 9.30895 8.88408 8.67601 9.49357ZM9.47151 10.2596C9.89347 9.85327 10.4658 9.625 11.0625 9.625C11.6592 9.625 12.2315 9.85327 12.6535 10.2596C13.0754 10.6659 13.3125 11.217 13.3125 11.7917C13.3125 12.3663 13.0754 12.9174 12.6535 13.3237C12.2315 13.7301 11.6592 13.9583 11.0625 13.9583C10.4658 13.9583 9.89347 13.7301 9.47151 13.3237C9.04955 12.9174 8.8125 12.3663 8.8125 11.7917C8.8125 11.217 9.04955 10.6659 9.47151 10.2596Z" fill="#2B2A29"/>
</svg>
