<svg width="329" height="180" viewBox="0 0 329 180" fill="none" xmlns="http://www.w3.org/2000/svg">
<path d="M306.859 96.9603C302.297 96.9603 298.075 98.8297 294.571 102.002C294.876 100.393 295.062 98.7051 295.062 96.9603C295.062 85.7551 288.275 76.6687 279.906 76.6687C278.679 76.6687 277.485 76.8839 276.343 77.2578C276.681 75.3317 276.876 73.3377 276.876 71.287C276.876 56.8415 268.126 45.1265 257.345 45.1265C254.967 45.1265 252.699 45.7157 250.6 46.758C250.998 45.0925 251.277 43.3478 251.277 41.4897C251.277 32.0293 245.548 24.359 238.473 24.359C238.169 24.359 237.881 24.4497 237.576 24.4837C236.138 10.6613 227.303 0 216.581 0C208.194 0 200.976 6.52596 197.523 15.975C193.927 12.7233 189.594 10.8313 184.931 10.8313C174.082 10.8313 165.027 21.0734 162.852 34.7258C159.654 30.8283 155.405 28.4151 150.734 28.4151C142.855 28.4151 136.179 35.179 133.724 44.6054C130.289 42.6113 126.506 41.4897 122.52 41.4897C108.202 41.4897 96.4048 55.7765 94.5854 74.2894C90.3541 70.1314 85.1412 67.6501 79.4967 67.6501C65.9229 67.6501 54.8455 81.8011 53.9738 99.6681C50.0642 93.3348 44.1404 89.29 37.5227 89.29C27.0715 89.29 18.3975 99.3509 16.5442 112.618C15.3933 112.165 14.1916 111.836 12.9307 111.836C5.78835 111.836 0 119.586 0 129.148C0 138.722 5.78835 146.471 12.9307 146.471C13.0153 146.471 13.0999 146.437 13.1846 146.437C13.0322 147.525 12.9307 148.647 12.9307 149.802C12.9307 160.09 19.1591 168.429 26.8431 168.429C33.2661 168.429 38.6229 162.56 40.2223 154.629C42.6425 158.912 46.4422 161.721 50.7581 161.721C53.483 161.721 56.0217 160.611 58.1289 158.719C61.277 163.568 65.9144 166.65 71.0935 166.65C77.3049 166.65 82.7294 162.231 85.7505 155.637C89.1863 167.975 98.0381 176.779 108.464 176.779C114.108 176.779 119.304 174.173 123.426 169.822C127.564 174.751 132.997 177.776 138.963 177.776C150.015 177.776 159.247 167.511 161.693 153.723C163.902 156.804 166.991 158.742 170.435 158.742C176.282 158.742 181.157 153.201 182.308 145.837C186.911 151.581 193.08 155.127 199.876 155.127C207.001 155.127 213.45 151.264 218.121 145.01C221.252 149.564 225.737 152.431 230.73 152.431C233.557 152.431 236.222 151.491 238.575 149.87C239.531 166.491 249.881 179.577 262.541 179.577C271.841 179.577 279.897 172.496 283.9 162.152C284.577 162.277 285.279 162.344 285.982 162.344C291.339 162.344 296.086 158.946 299.124 153.677C301.527 154.889 304.125 155.581 306.859 155.581C318.943 155.581 328.751 142.461 328.751 126.27C328.751 110.092 318.943 96.9603 306.859 96.9603Z" fill="white"/>
</svg>
