<svg width="446" height="180" viewBox="0 0 446 180" fill="none" xmlns="http://www.w3.org/2000/svg">
<path d="M442.961 179.577C444.798 174.003 445.838 167.851 445.838 161.359C445.838 136.433 430.741 116.221 412.124 116.221C407.063 116.221 402.273 117.773 397.966 120.447C394.437 113.4 388.437 108.743 381.633 108.743C378.595 108.743 375.727 109.706 373.162 111.349C373.247 110.488 373.366 109.65 373.366 108.743C373.366 98.1159 367.366 89.46 359.665 88.259C361.137 84.5655 361.983 80.3622 361.983 75.8869C361.983 61.4074 353.208 49.6471 342.384 49.6471C338.018 49.6471 333.99 51.5958 330.731 54.8362C326.509 34.2953 312.503 19.1927 295.824 19.1927C283.942 19.1927 273.423 26.8856 266.814 38.7139C263.285 22.8635 252.335 11.2958 239.353 11.2958C226.042 11.2958 214.88 23.464 211.664 39.9488C208.973 37.5356 205.749 36.1194 202.271 36.1194C199.52 36.1194 196.956 37.0824 194.663 38.6572C194.561 29.0269 189.323 21.1187 182.443 19.5325C179.43 8.15744 171.34 0 161.82 0C149.71 0 139.902 13.1425 139.902 29.3441C139.902 29.4008 139.911 29.4574 139.911 29.5254C139.487 29.4801 139.073 29.3441 138.641 29.3441C129.095 29.3441 121.361 39.6996 121.361 52.4796C121.361 54.7229 121.674 56.8415 122.122 58.9035C121.589 58.8129 121.065 58.677 120.523 58.677C113.076 58.677 107.034 66.7664 107.034 76.7366C107.034 81.0986 108.235 85.03 110.156 88.1571C109.818 88.1117 109.488 88.0211 109.141 88.0211C103.327 88.0211 98.6051 94.3318 98.6051 102.127C98.6051 103.033 98.6812 103.917 98.7997 104.767C93.5106 98.5691 86.5968 94.785 79.0144 94.785C66.5745 94.785 55.9033 104.88 51.2997 119.28C48.414 117.343 45.1644 116.221 41.7201 116.221C29.8472 116.221 20.2254 129.114 20.2254 144.999C20.2254 145.01 20.2254 145.01 20.2254 145.01C9.03795 145.169 0 157.348 0 172.36C0 174.875 0.2708 177.277 0.7447 179.577H442.961Z" fill="white"/>
</svg>
