<svg width="890" height="261" viewBox="0 0 890 261" fill="none" xmlns="http://www.w3.org/2000/svg">
<path d="M889.366 260.902C889.426 260.085 889.493 259.268 889.493 258.432C889.493 239.133 874.912 223.485 856.913 223.485C847.409 223.485 838.879 227.881 832.93 234.847C826.084 220.988 812.518 211.543 796.88 211.543C795.111 211.543 793.385 211.697 791.675 211.933C784.931 198.238 771.534 188.893 756.09 188.893C749.794 188.893 743.854 190.491 738.548 193.261C734.875 164.099 711.654 141.595 683.474 141.595C672.811 141.595 662.893 144.864 654.43 150.44C646.56 136.945 632.631 127.945 616.705 127.945C603.588 127.945 591.825 134.075 583.684 143.765C573.605 133.966 560.277 127.945 545.603 127.945C540.804 127.945 536.176 128.653 531.724 129.861C526.435 114.322 512.59 103.206 496.292 103.206C495.615 103.206 494.963 103.278 494.295 103.315C494.295 103.287 494.303 103.251 494.303 103.206C494.303 82.0088 478.292 64.826 458.532 64.826C454.005 64.826 449.689 65.7614 445.711 67.4143C446.27 64.0722 446.617 60.6574 446.617 57.1518C446.617 25.5835 422.77 0 393.362 0C363.947 0 340.108 25.5835 340.108 57.1518C340.108 63.2548 341.013 69.1217 342.664 74.6343C334.793 68.4859 325.146 64.826 314.67 64.826C288.334 64.826 266.983 87.7394 266.983 116.002C266.983 121.914 267.957 127.572 269.683 132.858C264.343 129.734 258.225 127.945 251.717 127.945C231.001 127.945 214.203 145.972 214.203 168.204C214.203 175.551 216.065 182.417 219.263 188.348C209.811 175.47 195.188 167.187 178.728 167.187C161.507 167.187 146.308 176.26 136.923 190.164C131.575 186.431 125.203 184.243 118.348 184.243C103.877 184.243 91.5389 193.906 86.5545 207.538C81.6631 203.632 75.6209 201.307 69.0709 201.307C52.8229 201.307 39.6637 215.439 39.6637 232.867C39.6637 233.875 39.7145 234.865 39.7991 235.846C36.1433 233.957 32.0644 232.867 27.7401 232.867C12.9476 232.867 0.8801 245.263 0 260.902H889.366Z" fill="white"/>
</svg>
