<svg width="215" height="125" viewBox="0 0 215 125" fill="none" xmlns="http://www.w3.org/2000/svg">
<path d="M212.426 124.367C213.89 118.453 214.711 112.154 214.711 105.582C214.711 84.4409 206.477 65.9167 194.087 55.312C192.945 24.5177 173.989 0 150.7 0C137.16 0 125.059 8.30473 117.087 21.3C111.29 18.3316 105.02 16.6321 98.4443 16.6321C92.5628 16.6321 86.9353 17.9917 81.6547 20.3823C74.69 10.1062 64.662 3.6142 53.4745 3.6142C32.4452 3.6142 15.3933 26.4324 15.3933 54.5982C15.3933 61.5547 16.4426 68.194 18.3298 74.2441C7.26082 84.4069 0 101.447 0 120.764C0 121.988 0.0761625 123.177 0.1354 124.367H212.426Z" fill="white"/>
</svg>
