<svg width="540" height="213" viewBox="0 0 540 213" fill="none" xmlns="http://www.w3.org/2000/svg">
<path d="M539.316 212.547C539.468 210.757 539.561 208.967 539.561 207.131C539.561 180.585 523.474 159.047 503.646 159.047C496.174 159.047 489.243 162.107 483.497 167.318C484.005 164.678 484.309 161.914 484.309 159.047C484.309 140.671 473.173 125.761 459.438 125.761C457.424 125.761 455.469 126.112 453.599 126.724C454.141 123.574 454.471 120.3 454.471 116.923C454.471 93.2328 440.118 74.0175 422.423 74.0175C418.53 74.0175 414.815 74.9918 411.354 76.7026C412.023 73.9608 412.48 71.0944 412.48 68.058C412.48 52.5362 403.069 39.9488 391.476 39.9488C390.968 39.9488 390.494 40.1074 390.003 40.1527C387.642 17.4819 373.146 0 355.561 0C341.809 0 329.962 10.7066 324.309 26.1945C318.402 20.8695 311.294 17.7538 303.635 17.7538C285.838 17.7538 270.995 34.5672 267.424 56.9661C262.177 50.5535 255.204 46.5994 247.546 46.5994C234.632 46.5994 223.673 57.7139 219.645 73.1677C214.009 69.8934 207.797 68.058 201.264 68.058C177.781 68.058 158.427 91.4993 155.44 121.852C148.492 115.043 139.953 110.964 130.678 110.964C108.414 110.964 90.2446 134.179 88.8229 163.5C82.3999 153.099 72.6849 146.471 61.8276 146.471C44.691 146.471 30.4486 162.956 27.419 184.721C25.5234 183.984 23.5601 183.463 21.4953 183.463C9.77471 183.463 0.279785 196.175 0.279785 211.856C0.279785 212.094 0.322098 212.309 0.33056 212.547H539.316Z" fill="white"/>
</svg>
