<svg width="357" height="171" viewBox="0 0 357 171" fill="none" xmlns="http://www.w3.org/2000/svg">
<path d="M329.42 92.8929C325.375 92.8929 321.55 94.1279 318.105 96.2692C315.287 90.6383 310.489 86.9221 305.048 86.9221C302.619 86.9221 300.334 87.6812 298.278 88.9955C298.345 88.3044 298.43 87.6359 298.43 86.9221C298.43 78.4361 293.64 71.5023 287.488 70.5506C288.673 67.6048 289.341 64.2286 289.341 60.6483C289.341 49.0806 282.326 39.6882 273.677 39.6882C270.182 39.6882 266.966 41.2291 264.36 43.8236C260.992 27.4068 249.796 15.3292 236.459 15.3292C226.956 15.3292 218.553 21.4813 213.272 30.953C210.454 18.2749 201.704 9.01851 191.32 9.01851C180.683 9.01851 171.763 18.7621 169.191 31.9273C167.041 29.9899 164.46 28.857 161.685 28.857C159.484 28.857 157.436 29.6387 155.6 30.885C155.515 23.1921 151.326 16.8701 145.834 15.6011C143.422 6.51463 136.966 0 129.341 0C119.677 0 111.832 10.5027 111.832 23.4527C111.832 23.498 111.832 23.5433 111.832 23.5886C111.493 23.5546 111.163 23.4527 110.816 23.4527C103.192 23.4527 97.0056 31.7234 97.0056 41.9429C97.0056 43.733 97.2595 45.4324 97.6149 47.0753C97.1918 47.0073 96.7771 46.894 96.3371 46.894C90.3795 46.894 85.5559 53.3633 85.5559 61.3281C85.5559 64.8177 86.5206 67.9674 88.0523 70.4599C87.7815 70.426 87.5192 70.3466 87.2399 70.3466C82.594 70.3466 78.8197 75.3997 78.8197 81.6198C78.8197 82.3449 78.8874 83.0473 78.9805 83.7384C74.7493 78.776 69.2233 75.7623 63.1556 75.7623C53.2207 75.7623 44.6905 83.8291 41.0093 95.3288C38.699 93.788 36.1095 92.8929 33.3507 92.8929C23.8643 92.8929 16.1718 103.203 16.1718 115.892C16.1718 115.904 16.1718 115.904 16.1718 115.904C7.22697 116.028 0 125.772 0 137.77C0 149.848 7.32006 159.637 16.3411 159.637C21.1562 159.637 25.4721 156.838 28.4679 152.386C30.1434 155.887 33.063 158.209 36.3887 158.209C37.1842 158.209 37.9459 158.028 38.6821 157.79C41.2716 160.702 44.6058 162.458 48.2532 162.458C52.1544 162.458 55.7002 160.43 58.3574 157.144C61.1162 157.02 63.6126 155.513 65.4405 153.088C68.0808 158.708 72.7437 162.458 78.0666 162.458C83.1187 162.458 87.5784 159.093 90.2695 153.938C92.3597 159.897 96.8533 164.055 102.1 164.055C107.651 164.055 112.365 159.421 114.278 152.895C117.586 159.285 123.096 163.466 129.341 163.466C134.935 163.466 139.927 160.124 143.287 154.856C147.298 158.447 152.122 160.543 157.301 160.543C164.621 160.543 171.188 156.351 175.8 149.7C177.357 155.977 181.732 160.543 186.945 160.543C190.068 160.543 192.877 158.889 194.984 156.238C199.859 159.546 205.359 161.438 211.199 161.438C217.554 161.438 223.512 159.217 228.699 155.354C230.612 157.144 232.913 158.209 235.418 158.209C237.898 158.209 240.191 157.167 242.095 155.399C247.198 164.497 255.297 170.4 264.453 170.4C272.916 170.4 280.481 165.347 285.618 157.393C289.223 162.129 294.165 165.052 299.615 165.052C304.904 165.052 309.694 162.288 313.282 157.813C317.784 162.333 323.361 165.052 329.42 165.052C344.305 165.052 356.373 148.896 356.373 128.978C356.373 109.049 344.305 92.8929 329.42 92.8929Z" fill="white"/>
</svg>
