<svg width="600" height="120" viewBox="0 0 600 120" fill="none" xmlns="http://www.w3.org/2000/svg">
<g clip-path="url(#clip0_827_3200)">
<path fill-rule="evenodd" clip-rule="evenodd" d="M49.1373 56.2587C66.7387 56.2587 81.0079 70.5276 81.0079 88.1294C81.0079 105.731 66.7387 120 49.1373 120C31.5358 120 17.2666 105.731 17.2666 88.1294C17.2666 70.5276 31.5358 56.2587 49.1373 56.2587Z" fill="url(#paint0_linear_827_3200)"/>
<path d="M71.4732 100.971H65.93V80.9944H54.6799V100.971H49.1367V76.0003H71.4732V100.971ZM79.0928 76.0003H84.636V93.1782L94.4687 76.0003H101.429V100.971H95.8861V82.8053L85.5228 100.971H79.0928V76.0003ZM132.703 94.111C132.703 96.3795 131.87 98.0902 130.196 99.2425C128.522 100.395 126.126 100.971 123.007 100.971H109.049V76.0003H122.019C123.163 76.0003 124.306 76.0827 125.44 76.2563C126.574 76.4213 127.59 76.741 128.486 77.2168C129.382 77.6926 130.105 78.3602 130.663 79.2109C131.221 80.0709 131.495 81.1772 131.495 82.5312C131.495 83.7843 131.102 84.9095 130.306 85.9064C129.51 86.9036 128.285 87.6443 126.629 88.129C128.678 88.4127 130.205 89.0713 131.203 90.0956C132.2 91.1292 132.703 92.4647 132.703 94.111ZM125.952 83.1439C125.952 82.6043 125.842 82.1744 125.614 81.8358C125.394 81.5068 125.102 81.2414 124.736 81.0585C124.37 80.8664 123.949 80.7474 123.474 80.6925C122.998 80.6377 122.531 80.6105 122.065 80.6105H114.592V85.6594H122.065C122.531 85.6594 122.998 85.632 123.474 85.5681C123.949 85.5037 124.37 85.385 124.736 85.2018C125.102 85.0189 125.394 84.7631 125.614 84.434C125.842 84.0955 125.952 83.6746 125.952 83.1439ZM127.16 93.2787C127.16 92.4009 126.794 91.7422 126.062 91.312C125.33 90.873 124.306 90.6534 122.98 90.6534H114.592V95.9771H122.98C124.306 95.9771 125.33 95.7578 126.062 95.3092C126.794 94.8612 127.16 94.1844 127.16 93.2787ZM161.342 100.971H155.798V90.6534H144.548V100.971H139.005V76.0003H144.548V85.6594H155.798V76.0003H161.342V100.971ZM193.274 88.495C193.274 90.4431 192.962 92.2177 192.349 93.8002C191.728 95.3915 190.849 96.7636 189.697 97.9163C188.535 99.0689 187.154 99.9653 185.553 100.615C183.944 101.255 182.142 101.575 180.157 101.575C178.209 101.575 176.425 101.255 174.824 100.615C173.214 99.9653 171.833 99.0689 170.672 97.9163C169.519 96.7636 168.641 95.3915 168.019 93.8002C167.406 92.2177 167.095 90.4431 167.095 88.495C167.095 86.6017 167.406 84.8546 168.019 83.2358C168.641 81.6166 169.519 80.226 170.672 79.0555C171.833 77.8844 173.214 76.9791 174.824 76.3479C176.425 75.7167 178.209 75.3967 180.157 75.3967C182.142 75.3967 183.944 75.7167 185.553 76.3479C187.154 76.9791 188.535 77.8844 189.697 79.0555C190.849 80.226 191.728 81.6166 192.349 83.2358C192.962 84.8546 193.274 86.6017 193.274 88.495ZM187.73 88.5135C187.73 87.3883 187.556 86.318 187.209 85.3119C186.861 84.2965 186.358 83.4368 185.7 82.7233C185.041 82.0098 184.236 81.4427 183.303 81.0222C182.361 80.6013 181.318 80.3906 180.157 80.3906C178.977 80.3906 177.925 80.6013 177.001 81.0222C176.068 81.4427 175.291 82.0098 174.641 82.7233C174.001 83.4368 173.507 84.2965 173.159 85.3119C172.812 86.318 172.638 87.3883 172.638 88.5135C172.638 89.6932 172.812 90.7632 173.159 91.733C173.507 92.6931 174.001 93.5442 174.641 94.2759C175.291 95.0076 176.068 95.5747 177.001 95.9771C177.925 96.3795 178.977 96.5808 180.157 96.5808C181.318 96.5808 182.361 96.3795 183.303 95.9771C184.236 95.5747 185.041 95.0076 185.7 94.2759C186.358 93.5442 186.861 92.6931 187.209 91.733C187.556 90.7632 187.73 89.6932 187.73 88.5135ZM198.917 76.0003H204.46V93.1782L214.293 76.0003H221.254V100.971H215.711V82.8053L205.347 100.971H198.917V76.0003ZM218.903 69.6983C216.479 72.1038 213.543 73.3113 210.113 73.3113C206.665 73.3113 203.738 72.1038 201.323 69.6983L204.57 66.5057C206.244 68.1886 208.101 69.0301 210.113 69.0301C212.135 69.0301 213.982 68.1886 215.665 66.5057L218.903 69.6983ZM281.166 100.971H275.623V84.0677L272.111 93.0684H267.83L264.373 84.0677V100.971H258.83V76.0003H265.415L269.97 87.306L274.525 76.0003H281.166V100.971ZM287.359 93.782C287.359 92.3182 287.752 91.0379 288.529 89.9399C289.316 88.8425 290.35 87.928 291.621 87.1962C292.893 86.4642 294.356 85.9153 296.003 85.5496C297.649 85.1836 299.323 85.0008 301.033 85.0008C301.984 85.0008 302.789 85.019 303.466 85.0557C304.143 85.0924 304.829 85.147 305.524 85.2203V84.2234C305.524 82.9244 305.021 81.9456 304.006 81.3055C303 80.6561 301.673 80.3358 300.027 80.3358C298.527 80.3358 296.999 80.5463 295.444 80.9672C293.898 81.3878 292.417 82.0005 291.027 82.8053L288.776 78.461C290.423 77.5094 292.188 76.7592 294.072 76.2196C295.957 75.6711 297.941 75.3967 300.027 75.3967C301.39 75.3967 302.725 75.552 304.043 75.8539C305.351 76.1557 306.539 76.659 307.592 77.354C308.644 78.0493 309.494 78.9547 310.125 80.0709C310.756 81.1958 311.067 82.5676 311.067 84.2142V100.971H305.524L305.579 97.2576C304.701 98.6205 303.411 99.6816 301.701 100.441C300 101.2 298.161 101.575 296.204 101.575C294.987 101.575 293.835 101.41 292.755 101.081C291.676 100.752 290.743 100.258 289.956 99.5903C289.17 98.9317 288.539 98.1173 288.072 97.1479C287.596 96.1691 287.359 95.0533 287.359 93.782ZM297.631 96.5808C298.71 96.5808 299.725 96.4436 300.676 96.1692C301.618 95.8948 302.46 95.5106 303.182 95.0258C303.914 94.5411 304.482 93.9559 304.902 93.2605C305.314 92.5745 305.524 91.8153 305.524 90.983V90.0497C304.655 89.9035 303.841 89.8212 303.082 89.803C302.314 89.7848 301.646 89.7755 301.061 89.7755C298.372 89.7755 296.332 90.1323 294.96 90.8363C293.588 91.5498 292.902 92.4279 292.902 93.4708C292.902 95.5472 294.475 96.5808 297.631 96.5808ZM318.742 76.0003H342.395V80.6105H324.285V100.971H318.742V76.0003ZM347.271 93.782C347.271 92.3182 347.664 91.0379 348.442 89.9399C349.228 88.8425 350.262 87.928 351.533 87.1962C352.805 86.4642 354.268 85.9153 355.915 85.5496C357.561 85.1836 359.235 85.0008 360.945 85.0008C361.896 85.0008 362.702 85.019 363.378 85.0557C364.055 85.0924 364.742 85.147 365.437 85.2203V84.2234C365.437 82.9244 364.933 81.9456 363.918 81.3055C362.912 80.6561 361.586 80.3358 359.939 80.3358C358.439 80.3358 356.912 80.5463 355.357 80.9672C353.811 81.3878 352.329 82.0005 350.939 82.8053L348.689 78.461C350.335 77.5094 352.1 76.7592 353.984 76.2196C355.869 75.6711 357.854 75.3967 359.939 75.3967C361.302 75.3967 362.638 75.552 363.955 75.8539C365.263 76.1557 366.452 76.659 367.504 77.354C368.556 78.0493 369.406 78.9547 370.037 80.0709C370.669 81.1958 370.979 82.5676 370.979 84.2142V100.971H365.437L365.491 97.2576C364.613 98.6205 363.323 99.6816 361.613 100.441C359.912 101.2 358.073 101.575 356.116 101.575C354.899 101.575 353.747 101.41 352.668 101.081C351.588 100.752 350.655 100.258 349.869 99.5903C349.082 98.9317 348.451 98.1173 347.984 97.1479C347.509 96.1691 347.271 95.0533 347.271 93.782ZM357.543 96.5808C358.622 96.5808 359.637 96.4436 360.589 96.1692C361.531 95.8948 362.372 95.5106 363.095 95.0258C363.827 94.5411 364.394 93.9559 364.815 93.2605C365.226 92.5745 365.437 91.8153 365.437 90.983V90.0497C364.568 89.9035 363.753 89.8212 362.994 89.803C362.226 89.7848 361.558 89.7755 360.973 89.7755C358.284 89.7755 356.244 90.1323 354.872 90.8363C353.5 91.5498 352.814 92.4279 352.814 93.4708C352.814 95.5472 354.387 96.5808 357.543 96.5808ZM401.265 82.8513C401.265 84.0677 400.799 85.2018 399.875 86.2631C398.942 87.3334 397.616 88.001 395.887 88.2937C397.505 88.6137 398.823 89.3001 399.82 90.3701C400.817 91.4311 401.32 92.6019 401.32 93.8914C401.32 95.0807 401 96.1599 400.369 97.1112C399.728 98.0717 398.859 98.8768 397.752 99.5354C396.646 100.203 395.338 100.706 393.819 101.054C392.301 101.401 390.655 101.575 388.862 101.575C386.008 101.575 383.648 101.136 381.801 100.249C379.953 99.3707 378.471 98.0442 377.346 96.2607L381.682 93.3429C382.185 94.3031 383.081 95.0807 384.389 95.6842C385.697 96.279 387.225 96.5808 388.971 96.5808C391.03 96.5808 392.685 96.2974 393.938 95.7393C395.201 95.1723 395.832 94.4128 395.832 93.4434C395.832 92.7666 395.365 92.1264 394.441 91.5408C393.508 90.9463 392.109 90.6534 390.234 90.6534H384.92V85.6594H390.179C392.054 85.6594 393.453 85.4216 394.387 84.9369C395.31 84.4522 395.777 83.9123 395.777 83.3089C395.777 82.4125 395.182 81.7079 393.993 81.1772C392.804 80.6561 391.222 80.3906 389.237 80.3906C385.843 80.3906 383.465 81.452 382.111 83.583L378.059 80.7656C379.157 78.9729 380.593 77.6377 382.395 76.741C384.188 75.8447 386.447 75.3967 389.182 75.3967C390.92 75.3967 392.521 75.5705 393.993 75.9177C395.466 76.2655 396.737 76.7592 397.807 77.3907C398.878 78.0312 399.719 78.8178 400.341 79.7505C400.954 80.6925 401.265 81.7261 401.265 82.8513ZM408.61 76.0003H414.153V93.1782L423.986 76.0003H430.947V100.971H425.403V82.8053L415.04 100.971H408.61V76.0003ZM460.903 100.971H455.36V90.6534H444.109V100.971H438.566V76.0003H444.109V85.6594H455.36V76.0003H460.903V100.971ZM487.172 90.983H472.19V85.9887H487.172V90.983ZM502.978 89.0713C502.978 91.3487 503.582 93.1597 504.799 94.5318C506.006 95.8947 507.662 96.5808 509.756 96.5808C511.751 96.5808 513.388 95.8947 514.668 94.5318C515.949 93.1597 516.589 91.3487 516.589 89.0713C516.589 86.7664 515.985 84.9369 514.769 83.583C513.562 82.2204 511.888 81.5433 509.756 81.5433C507.479 81.5433 505.778 82.2204 504.661 83.583C503.537 84.9369 502.978 86.7664 502.978 89.0713ZM497.161 83.5188C497.161 80.8393 497.436 78.3968 497.994 76.1743C498.551 73.9606 499.338 72.0581 500.353 70.4757C501.378 68.884 502.585 67.6401 503.994 66.7437C505.403 65.8563 506.967 65.4082 508.677 65.4082C509.519 65.4082 510.214 65.4906 510.772 65.6552C511.321 65.8288 511.824 66.0302 512.254 66.2587C512.692 66.4875 513.104 66.6888 513.488 66.8624C513.872 67.0271 514.339 67.1094 514.897 67.1094C515.628 67.1094 516.251 66.9814 516.763 66.7163C517.266 66.4603 517.888 66.0209 518.62 65.4082L521.145 69.1039C520.476 69.9176 519.59 70.6218 518.473 71.2167C517.357 71.8112 516.168 72.1038 514.897 72.1038C514.037 72.1038 513.361 72.0122 512.848 71.8383C512.336 71.6647 511.869 71.4726 511.458 71.2533C511.037 71.0335 510.625 70.8325 510.223 70.6586C509.821 70.485 509.308 70.4023 508.677 70.4023C507.845 70.4023 507.067 70.6129 506.345 71.0335C505.631 71.4544 505 72.113 504.46 73.0094C503.912 73.9147 503.482 75.0673 503.171 76.4669C502.86 77.8662 502.704 79.5766 502.704 81.5889C503.399 79.9426 504.387 78.6987 505.65 77.8388C506.912 76.9791 508.293 76.5492 509.802 76.5492C511.559 76.5492 513.187 76.8144 514.687 77.3358C516.196 77.8662 517.495 78.6528 518.602 79.6957C519.699 80.7385 520.568 82.0375 521.19 83.5922C521.821 85.1469 522.132 86.9674 522.132 89.0621C522.132 90.8092 521.821 92.4554 521.19 93.9922C520.568 95.529 519.708 96.8553 518.611 97.9712C517.513 99.0871 516.214 99.9653 514.714 100.615C513.214 101.255 511.586 101.575 509.839 101.575C505.64 101.575 502.476 100.111 500.353 97.1843C498.222 94.2482 497.161 89.7025 497.161 83.5188ZM527.008 93.782C527.008 92.3182 527.401 91.0379 528.178 89.9399C528.965 88.8425 529.998 87.928 531.27 87.1962C532.541 86.4642 534.005 85.9153 535.651 85.5496C537.298 85.1836 538.972 85.0008 540.682 85.0008C541.633 85.0008 542.438 85.019 543.115 85.0557C543.792 85.0924 544.478 85.147 545.173 85.2203V84.2234C545.173 82.9244 544.67 81.9456 543.655 81.3055C542.648 80.6561 541.322 80.3358 539.676 80.3358C538.176 80.3358 536.648 80.5463 535.093 80.9672C533.548 81.3878 532.066 82.0005 530.676 82.8053L528.425 78.461C530.072 77.5094 531.837 76.7592 533.721 76.2196C535.606 75.6711 537.59 75.3967 539.676 75.3967C541.039 75.3967 542.374 75.552 543.692 75.8539C545 76.1557 546.189 76.659 547.24 77.354C548.293 78.0493 549.143 78.9547 549.774 80.0709C550.405 81.1958 550.716 82.5676 550.716 84.2142V100.971H545.173L545.228 97.2576C544.35 98.6205 543.06 99.6816 541.35 100.441C539.649 101.2 537.81 101.575 535.852 101.575C534.636 101.575 533.483 101.41 532.404 101.081C531.325 100.752 530.392 100.258 529.605 99.5903C528.819 98.9317 528.188 98.1173 527.721 97.1479C527.245 96.1691 527.008 95.0533 527.008 93.782ZM537.28 96.5808C538.359 96.5808 539.374 96.4436 540.325 96.1692C541.267 95.8948 542.109 95.5106 542.832 95.0258C543.563 94.5411 544.13 93.9559 544.551 93.2605C544.963 92.5745 545.173 91.8153 545.173 90.983V90.0497C544.304 89.9035 543.49 89.8212 542.731 89.803C541.963 89.7848 541.295 89.7755 540.71 89.7755C538.02 89.7755 535.98 90.1323 534.609 90.8363C533.236 91.5498 532.551 92.4279 532.551 93.4708C532.551 95.5472 534.124 96.5808 537.28 96.5808ZM558.391 76.0003H563.934V78.2412C564.985 77.2899 566.056 76.5859 567.135 76.1101C568.214 75.6347 569.449 75.3967 570.849 75.3967C572.449 75.3967 573.94 75.7259 575.321 76.3753C576.694 77.0247 577.873 77.9303 578.852 79.0826C579.84 80.2352 580.617 81.6166 581.185 83.2358C581.761 84.8546 582.044 86.6017 582.044 88.495C582.044 90.4064 581.761 92.1721 581.185 93.782C580.617 95.3826 579.84 96.7636 578.852 97.9163C577.873 99.0689 576.694 99.9653 575.321 100.615C573.94 101.255 572.449 101.575 570.849 101.575C569.449 101.575 568.214 101.328 567.135 100.825C566.056 100.331 564.985 99.6085 563.934 98.6662V110.959H558.391V76.0003ZM563.934 94.2759C564.592 95.0076 565.443 95.5747 566.467 95.9771C567.492 96.3795 568.48 96.5808 569.431 96.5808C571.516 96.5808 573.218 95.8399 574.535 94.358C575.843 92.8763 576.502 90.9282 576.502 88.5135C576.502 86.0985 575.843 84.1411 574.535 82.641C573.218 81.1409 571.516 80.3906 569.431 80.3906C568.48 80.3906 567.492 80.5827 566.467 80.9672C565.443 81.3511 564.592 81.909 563.934 82.641V94.2759Z" fill="black"/>
<path d="M50.601 31.4744C50.4219 36.4854 50.3324 43.711 50.3324 53.1511H42.0107V45.8361H8.58999V53.1511H0.268264C0.268264 43.711 0.178842 36.4854 0 31.4744H5.03318C6.644 30.3113 7.81819 28.7456 8.55638 26.7767C9.29457 24.8082 9.66366 22.3476 9.66366 19.3949C9.66366 12.0574 9.57424 5.8833 9.3954 0.872321H45.232C45.0532 5.8833 44.9638 13.3996 44.9638 23.4213V31.4744H50.601ZM25.2334 31.4744C25.2334 24.182 25.1887 18.6789 25.099 14.9654C22.2357 14.9654 19.6856 15.0101 17.4486 15.0999C17.4486 19.7078 17.0236 23.2761 16.1735 25.8039C15.3234 28.3314 14.1825 30.2219 12.7508 31.4744H25.2334ZM77.5794 46.6415C69.571 46.6415 63.5196 44.6841 59.426 40.7693C55.3323 36.8545 53.2855 31.0495 53.2855 23.3544C53.2855 15.6589 55.3323 9.84283 59.426 5.90552C63.5196 1.96852 69.571 0 77.5794 0C85.8114 0 92.0302 1.95741 96.2357 5.87221C100.441 9.7867 102.544 15.592 102.544 23.2872C102.544 31.027 100.441 36.8545 96.2357 40.7693C92.0302 44.6841 85.8114 46.6415 77.5794 46.6415ZM82.4112 32.6826V23.0186C82.4112 19.7976 81.8519 17.4822 80.7335 16.0727C79.6148 14.6635 77.6688 13.959 74.8949 13.959H73.4185V23.3544C73.4185 26.6204 73.9218 28.9916 74.9285 30.468C75.935 31.9444 77.7807 32.6826 80.4649 32.6826H82.4112ZM107.242 45.8361C107.421 40.8251 107.6 33.3535 107.779 23.4213C107.913 15.905 107.98 8.38864 107.98 0.872321H131.603L134.489 29.9981H135.898L138.784 0.872321H162.406V6.91229C162.406 10.5363 162.451 16.0616 162.541 23.4885C162.63 28.4545 162.809 35.9039 163.077 45.8361H146.166C146.21 44.4938 146.233 42.4359 146.233 39.662C146.233 35.9486 146.21 33.1522 146.166 31.2731C146.076 24.9202 145.987 20.1105 145.897 16.8445H144.89L140.327 45.8361H130.059L125.496 16.8445H124.422C124.333 21.0501 124.288 24.2492 124.288 26.4413L124.221 31.2062C124.176 33.0852 124.154 35.9038 124.154 39.662C124.154 42.3912 124.176 44.4491 124.221 45.8361H107.242ZM184.552 45.8361C184.642 35.5459 184.687 26.9559 184.687 20.0658C184.687 13.6679 184.664 9.21626 184.619 6.71093L184.552 0.872321H205.155C205.066 3.87009 204.932 7.20304 204.752 10.8718C204.574 14.6299 204.439 17.9632 204.35 20.8712H205.491L212.604 0.872321H233.14L226.362 17.5827C225.646 19.3276 224.304 20.5691 222.335 21.3073C220.367 22.0457 217.481 22.5043 213.678 22.6831V23.6226C217.347 23.7568 220.143 24.2378 222.067 25.0654C223.991 25.8933 225.422 27.2467 226.362 29.1257L233.945 45.8361H212.202L205.491 26.1058H204.35L204.484 29.4612C204.618 33.3535 204.842 38.8119 205.155 45.8361H184.552ZM238.509 53.2852L240.455 39.3935H257.836C258.284 36.8434 258.776 33.488 259.313 29.3271H258.172C257.233 31.5642 255.599 33.376 253.273 34.763C250.947 36.1499 248.419 36.8434 245.689 36.8434C243.318 36.8434 241.26 36.0269 239.515 34.3939C237.77 32.7609 236.719 30.2666 236.361 26.9112C236.003 23.3766 235.444 19.1041 234.684 14.0931C234.549 13.243 234.292 11.4086 233.912 8.58999C233.531 5.77137 233.229 3.19881 233.006 0.872321H253.273L254.749 11.8785C256.092 22.2135 256.785 27.4927 256.83 27.7163H258.306C258.664 24.1373 259.178 19.6409 259.85 14.2272C260.61 7.87432 261.125 3.42268 261.393 0.872321H282.197C281.258 7.27026 280.475 12.7509 279.848 17.3144C279.222 21.8777 278.484 27.6269 277.634 34.5616C276.963 40.2436 275.956 44.3708 274.614 46.9434C273.272 49.5159 271.258 51.2162 268.574 52.0438C265.89 52.8714 261.729 53.2852 256.092 53.2852H238.509ZM331.456 0.872321C331.277 5.8833 331.188 13.3996 331.188 23.4213C331.188 33.3982 331.277 40.8698 331.456 45.8361H311.323C311.413 42.4359 311.457 37.3355 311.457 30.5349C311.457 23.6451 311.413 18.4553 311.323 14.9654H307.028C306.804 19.9764 306.58 23.6899 306.357 26.1058C305.865 31.027 304.78 34.9865 303.102 37.9843C301.424 40.9818 299.008 43.1852 295.854 44.5947C292.7 46.0038 288.684 46.7084 283.808 46.7084V28.8572C285.598 28.8572 286.839 28.7566 287.532 28.5553C288.226 28.3539 288.763 27.8282 289.143 26.9781C289.523 26.1283 289.87 24.6069 290.183 22.4148C290.586 19.6409 290.787 15.3906 290.787 9.66367C290.787 5.68196 290.743 2.7514 290.653 0.872321H331.456ZM336.825 45.8361C337.004 40.8251 337.093 33.3313 337.093 23.3544C337.093 13.3771 337.004 5.8833 336.825 0.872321H356.891C356.846 3.24353 356.823 6.53208 356.823 10.7377C356.823 14.7194 356.846 17.6946 356.891 19.6631H362.528C368.299 19.6631 372.818 20.133 376.084 21.0726C379.35 22.0121 381.677 23.4327 383.064 25.334C384.451 27.2356 385.144 29.752 385.144 32.8839C385.144 36.1052 384.417 38.6553 382.963 40.5344C381.509 42.4134 379.328 43.7668 376.42 44.5947C373.512 45.4223 369.709 45.8361 365.011 45.8361H336.825ZM361.118 33.3535C363.892 33.3535 365.279 32.2126 365.279 29.9311C365.279 28.9469 364.877 28.1526 364.071 27.5485C363.266 26.9445 362.237 26.6426 360.984 26.6426H356.891V33.3535H361.118ZM418.584 14.9654C416.437 14.876 413.439 14.7866 409.591 14.6972C409.457 19.8423 409.39 25.0321 409.39 30.2666C409.39 35.4117 409.457 40.6016 409.591 45.8361H389.458C389.593 40.6016 389.66 35.4117 389.66 30.2666C389.66 25.0321 389.593 19.8423 389.458 14.6972C385.611 14.7866 382.703 14.876 380.734 14.9654V0.872321H418.584V14.9654ZM425.362 53.2852L427.309 39.3935H444.69C445.137 36.8434 445.629 33.488 446.167 29.3271H445.026C444.086 31.5642 442.453 33.376 440.127 34.763C437.8 36.1499 435.272 36.8434 432.543 36.8434C430.172 36.8434 428.114 36.0269 426.369 34.3939C424.624 32.7609 423.563 30.2675 423.215 26.9112C422.848 23.3778 422.302 19.1032 421.537 14.0931C421.407 13.2424 421.146 11.4083 420.765 8.58999C420.385 5.77137 420.083 3.19881 419.86 0.872321H440.127L441.603 11.8785C442.988 22.2073 443.639 27.4927 443.683 27.7163H445.16C445.518 24.1373 446.045 19.6422 446.703 14.2272C447.476 7.87586 447.978 3.42268 448.247 0.872321H469.051C468.112 7.27026 467.328 12.7509 466.702 17.3144C466.076 21.8774 465.324 27.6253 464.488 34.5616C463.803 40.2417 462.81 44.3708 461.468 46.9434C460.125 49.5159 458.112 51.2162 455.428 52.0438C452.743 52.8711 448.582 53.2852 442.945 53.2852H425.362ZM472.004 53.2183C472.138 49.0127 472.205 39.0358 472.205 23.2872C472.205 12.0127 472.138 4.54106 472.004 0.872321H492.741L492.137 4.56357C491.61 7.78581 491.22 10.4469 490.996 12.5495L492.137 12.6167C493.121 9.17156 494.832 6.20738 497.271 3.72455C499.709 1.24141 502.874 0 506.767 0C510.57 0 513.511 0.939544 515.592 2.81862C517.672 4.6977 519.093 7.33749 519.853 10.7377C520.614 14.1378 520.994 18.4328 520.994 23.6226C520.994 31.5417 519.797 37.3691 517.404 41.1048C515.01 44.8404 511.375 46.7084 506.498 46.7084C503.187 46.7084 500.246 45.6458 497.673 43.5207C495.101 41.3956 493.278 38.2304 492.204 34.0248H491.13L491.533 37.9843C492.047 43.0421 492.674 47.3057 492.674 50.8024V53.2183H472.004ZM501.062 32.6826V23.7568C501.062 20.9832 500.693 18.6453 499.955 16.744C499.217 14.8427 497.93 13.8918 496.096 13.8918H491.935V23.9581C491.935 26.2843 492.405 28.3203 493.345 30.0653C494.284 31.8102 495.716 32.6826 497.64 32.6826H501.062ZM526.028 45.8361C526.206 40.8251 526.296 33.3313 526.296 23.3544C526.296 13.3771 526.206 5.8833 526.028 0.872321H546.093C546.049 3.24353 546.026 6.53208 546.026 10.7377C546.026 14.7194 546.049 17.6946 546.093 19.6631H551.731C557.502 19.6631 562.021 20.133 565.287 21.0726C568.553 22.0121 570.88 23.4327 572.266 25.334C573.653 27.2353 574.347 29.752 574.347 32.8839C574.347 36.1052 573.619 38.6553 572.165 40.5344C570.712 42.4131 568.53 43.7671 565.622 44.5947C562.715 45.4223 558.911 45.8361 554.214 45.8361H526.028ZM579.111 45.8361C579.291 39.9303 579.38 33.8234 579.38 27.5149C579.38 15.7036 579.291 6.82284 579.111 0.872321H599.312C599.222 5.8833 599.177 14.7641 599.177 27.5149C599.177 34.8971 599.222 41.0043 599.312 45.8361H579.111ZM550.321 33.3535C553.095 33.3535 554.482 32.2126 554.482 29.9311C554.482 28.9469 554.079 28.1523 553.274 27.5485C552.469 26.9445 551.439 26.6426 550.187 26.6426H546.093V33.3535H550.321Z" fill="black"/>
</g>
<defs>
<linearGradient id="paint0_linear_827_3200" x1="17.2678" y1="88.1296" x2="81.007" y2="88.1296" gradientUnits="userSpaceOnUse">
<stop stop-color="#F9BE00"/>
<stop offset="0.34902" stop-color="#FDDD2E"/>
<stop offset="0.54902" stop-color="#FDDD2E"/>
<stop offset="1" stop-color="#F69405"/>
</linearGradient>
<clipPath id="clip0_827_3200">
<rect width="599.312" height="120" fill="white"/>
</clipPath>
</defs>
</svg>
