<svg width="207" height="90" viewBox="0 0 207 90" fill="none" xmlns="http://www.w3.org/2000/svg">
<g clip-path="url(#clip0_827_3199)">
<path fill-rule="evenodd" clip-rule="evenodd" d="M193.3 51.6466C200.386 51.6466 206.13 57.3915 206.13 64.4779C206.13 71.564 200.386 77.3087 193.3 77.3087C186.213 77.3087 180.469 71.564 180.469 64.4779C180.469 57.3915 186.213 51.6466 193.3 51.6466Z" fill="url(#paint0_linear_827_3199)"/>
<path fill-rule="evenodd" clip-rule="evenodd" d="M55.2802 26.7534L52.5225 52.1982C52.496 52.442 52.2116 52.6293 51.8652 52.6352H51.8486H35.1533H35.1366C34.7897 52.6293 34.5059 52.442 34.4796 52.1982L31.7217 26.7534H55.2802Z" fill="url(#paint1_linear_827_3199)"/>
<path fill-rule="evenodd" clip-rule="evenodd" d="M52.5234 52.1988C52.4968 52.4426 52.2124 52.6299 51.8661 52.6358H51.8495H35.1541H35.1375C34.7906 52.6299 34.5067 52.4426 34.4805 52.1988L30.6722 17.0658C30.6569 16.9298 30.7176 16.8086 30.8506 16.7082C30.9829 16.6084 31.1506 16.5572 31.3453 16.5572H55.6577C55.853 16.5572 56.0207 16.6084 56.1529 16.7082C56.2863 16.8086 56.3461 16.9298 56.3316 17.0658L52.5234 52.1988ZM87.1114 52.6825C86.8029 61.309 86.65 73.7484 86.65 90H72.3238V77.4066H14.789V90H0.462508C0.462508 73.7484 0.308254 61.309 0 52.6825H8.66492C11.4376 50.6806 13.4599 47.9843 14.7302 44.596C16.0021 41.2065 16.6366 36.9709 16.6366 31.8867C16.6366 19.255 16.4823 8.62655 16.1754 0H77.8692C77.5609 8.62655 77.4066 21.5665 77.4066 38.8186V52.6825H87.1114ZM94.0446 77.4066C94.1988 59.6921 94.2751 44.9032 94.2751 33.0425C94.2751 22.028 94.2369 14.3645 94.1591 10.0511L94.0446 0H129.512C129.359 5.16064 129.127 10.8986 128.819 17.2137C128.512 23.6843 128.28 29.4223 128.126 34.429H130.09L142.336 0H177.69L166.02 28.7674C164.788 31.7722 162.478 33.909 159.088 35.1793C155.7 36.4512 150.732 37.2397 144.185 37.5483V39.1652C150.501 39.3972 155.314 40.2241 158.627 41.65C161.939 43.0746 164.403 45.404 166.02 48.6392L179.076 77.4066H141.643L130.09 43.4402H128.126L128.357 49.2166C128.588 55.9177 128.973 65.3139 129.512 77.4066H94.0446Z" fill="black"/>
</g>
<defs>
<linearGradient id="paint0_linear_827_3199" x1="180.469" y1="64.4777" x2="206.13" y2="64.4777" gradientUnits="userSpaceOnUse">
<stop stop-color="#F9BE00"/>
<stop offset="0.34902" stop-color="#FDDD2E"/>
<stop offset="0.54902" stop-color="#FDDD2E"/>
<stop offset="1" stop-color="#F69405"/>
</linearGradient>
<linearGradient id="paint1_linear_827_3199" x1="31.7221" y1="39.6944" x2="55.2798" y2="39.6944" gradientUnits="userSpaceOnUse">
<stop stop-color="#F9BE00"/>
<stop offset="0.34902" stop-color="#FDDD2E"/>
<stop offset="0.54902" stop-color="#FDDD2E"/>
<stop offset="1" stop-color="#F69405"/>
</linearGradient>
<clipPath id="clip0_827_3199">
<rect width="206.13" height="90" fill="white"/>
</clipPath>
</defs>
</svg>
