<svg width="321" height="120" viewBox="0 0 321 120" fill="none" xmlns="http://www.w3.org/2000/svg">
<path fill-rule="evenodd" clip-rule="evenodd" d="M238.49 18.0041C235.728 18.0041 232.966 18.0041 230.206 18.0041C231.904 19.3817 233.605 20.7587 235.303 22.1365C238.065 22.1365 240.825 22.1365 243.585 22.1365C241.887 20.7587 240.189 19.3817 238.49 18.0041ZM27.6665 103.827L31.1889 99.6259H35.5191L39.0408 103.825L35.5191 108.022H31.1889L27.6665 103.827ZM281.083 103.827L284.606 99.6259H288.936L292.458 103.825L288.936 108.022H284.606L281.083 103.827ZM263.935 111.958V107.394C263.935 106.731 263.662 106.4 263.12 106.4L262.624 106.535C262.412 106.686 262.172 107.243 261.9 108.207C261.539 109.562 260.982 111.851 260.228 115.074C259.748 117.122 259.506 118.177 259.506 118.238C259.234 119.171 258.752 119.637 258.06 119.637H256.298L254.356 119.504C253.753 119.504 253.226 119.504 252.775 119.504C252.323 119.504 251.946 119.548 251.644 119.637H249.927C249.324 119.637 249.024 119.397 249.024 118.915C249.024 118.764 249.145 118.508 249.385 118.147C249.988 117.213 250.44 116.468 250.74 115.926C251.583 114.359 252.337 112.689 252.999 110.903C253.452 109.728 253.783 108.854 253.995 108.282C254.446 107.106 254.671 106.407 254.671 106.196C254.671 106.016 254.566 105.872 254.356 105.767C254.144 105.662 253.934 105.564 253.723 105.474C252.488 104.901 251.66 103.967 251.238 102.672C250.996 101.949 250.877 100.978 250.877 99.7735V94.207C250.877 91.5873 251.9 89.8035 253.949 88.868C255.273 88.2651 257.201 87.9646 259.732 87.9646C261.479 87.9646 262.789 87.9948 263.662 88.0481C264.536 88.1015 265.544 88.1602 266.689 88.2367C267.232 88.2367 268.016 88.1922 269.041 88.1015C270.065 88.0108 270.983 87.9646 271.795 87.9646C272.188 87.9646 272.503 87.9948 272.745 88.0553C272.985 88.1157 273.106 88.3256 273.106 88.6884C272.836 89.8319 272.594 90.947 272.384 92.0159C272.172 93.0865 272.067 94.4933 272.067 96.2486V111.309C272.067 114.328 272.338 116.256 272.88 117.108C273.152 117.53 273.287 118.117 273.287 118.871C273.287 119.383 272.896 119.637 272.112 119.637C271.961 119.637 271.374 119.609 270.349 119.548C269.325 119.488 268.468 119.458 267.774 119.458C266.75 119.458 265.937 119.481 265.334 119.525C264.733 119.57 264.114 119.609 263.483 119.637C263.211 119.637 262.985 119.609 262.805 119.548C262.624 119.488 262.533 119.306 262.533 119.006C262.533 118.824 262.594 118.584 262.715 118.282C262.955 117.651 263.15 117.094 263.301 116.61C263.723 115.043 263.935 113.494 263.935 111.958ZM259.01 96.7768V99.3058C259.01 99.8767 259.25 100.293 259.739 100.549C260.221 100.805 260.801 100.933 261.471 100.933C262.202 100.933 262.796 100.768 263.248 100.435C263.709 100.104 263.935 99.6526 263.935 99.0799V96.7768C263.935 96.2326 263.814 95.7809 263.572 95.4199C263.173 94.8472 262.473 94.5626 261.471 94.5626C260.74 94.5626 260.146 94.7583 259.695 95.1495C259.234 95.5408 259.01 96.0832 259.01 96.7768ZM224.218 110.775V96.7911C224.218 95.7969 224.188 94.9984 224.136 94.3955C224.076 93.7855 223.94 93.1008 223.729 92.3325C223.517 91.5642 223.322 90.9541 223.156 90.5024C222.87 89.743 222.728 89.261 222.728 89.0494C222.728 88.7186 222.825 88.4536 223.021 88.258C223.217 88.0624 223.533 87.9646 223.985 87.9646C224.76 87.9646 225.582 88.0019 226.448 88.0784C227.314 88.1531 228.195 88.1922 229.091 88.1922C230.055 88.1922 230.8 88.1531 231.335 88.0784C231.876 88.0019 232.472 87.9646 233.128 87.9646C233.489 87.9646 233.797 88.0179 234.046 88.1228C234.302 88.2295 234.43 88.4625 234.43 88.8307C234.43 89.0708 234.362 89.3055 234.218 89.5314C234.083 89.7644 233.843 90.088 233.496 90.5113C233.285 90.819 233.119 91.1284 233.014 91.4432C232.9 91.7598 232.849 92.1511 232.849 92.6028C232.849 93.1541 233.037 93.6129 233.413 93.99C233.79 94.3724 234.446 94.5626 235.38 94.5626C236.191 94.5626 236.772 94.3581 237.119 93.9455C237.464 93.5294 237.638 93.0172 237.638 92.4072C237.638 91.9785 237.555 91.5873 237.396 91.2191C237.231 90.8492 237.021 90.4882 236.756 90.1183C236.432 89.7804 236.215 89.5385 236.094 89.3891C235.981 89.229 235.922 89.0636 235.922 88.884C235.922 88.635 235.988 88.4252 236.125 88.2438C236.26 88.0552 236.584 87.9646 237.096 87.9646C237.638 87.9646 238.181 88.0019 238.721 88.0784C239.264 88.1531 240.26 88.1922 241.704 88.1922C243.059 88.1922 244.023 88.1673 244.596 88.1317C245.168 88.0926 245.755 88.041 246.358 87.9646C246.87 87.9646 247.201 88.0784 247.352 88.3042C247.503 88.5301 247.578 88.7773 247.578 89.0494C247.578 89.7128 247.397 90.3673 247.036 90.9986C246.193 92.4765 245.771 94.7725 245.771 97.8741V110.459C245.771 111.551 245.823 112.5 245.929 113.313C246.034 114.126 246.237 115.015 246.539 115.986C246.749 116.589 247.005 117.206 247.306 117.839C247.487 118.2 247.578 118.487 247.578 118.696C247.578 119.059 247.457 119.306 247.217 119.443C246.977 119.579 246.644 119.646 246.223 119.653C246.162 119.646 245.552 119.616 244.393 119.555C243.233 119.488 242.442 119.458 242.02 119.458C241.056 119.458 240.244 119.481 239.58 119.532C238.917 119.579 238.209 119.616 237.457 119.653C237.005 119.646 236.728 119.579 236.621 119.443C236.516 119.306 236.463 119.088 236.463 118.787C236.463 118.366 236.516 117.981 236.621 117.636C236.728 117.288 236.863 116.836 237.028 116.279C237.194 115.723 237.336 114.894 237.457 113.795C237.578 112.696 237.638 111.693 237.638 110.789V105.902C237.638 104.246 237.427 103.147 237.005 102.605C236.703 102.214 236.102 102.016 235.198 102.016C234.144 102.016 233.452 102.363 233.119 103.057C232.607 104.149 232.351 106.582 232.351 110.361C232.351 112.717 232.502 114.54 232.803 115.842C233.135 116.836 233.482 117.823 233.843 118.787C233.843 119.269 233.654 119.532 233.277 119.579C232.9 119.623 232.593 119.646 232.351 119.653L228.059 119.458C227.126 119.458 226.334 119.481 225.687 119.532C225.04 119.579 224.325 119.616 223.54 119.653C222.998 119.646 222.728 119.36 222.728 118.787C222.728 118.606 222.802 118.321 222.953 117.928C223.224 117.236 223.405 116.724 223.496 116.393C223.766 115.362 223.955 114.465 224.06 113.697C224.166 112.929 224.218 111.958 224.218 110.775ZM199.729 109.201V98.132C199.729 94.335 199.647 92.039 199.481 91.2405C199.314 90.442 199.232 89.7875 199.232 89.2753C199.232 88.7631 199.353 88.4323 199.593 88.2811C199.835 88.1317 200.362 88.0553 201.174 88.0553C201.537 88.0553 201.928 88.0553 202.35 88.0553C202.771 88.0553 203.239 88.0553 203.75 88.0553C207.305 88.0553 209.761 88.1602 211.116 88.3718C213.675 88.7631 215.8 89.6826 217.486 91.1356C218.751 92.2204 219.67 93.5596 220.243 95.1567C220.695 96.4585 220.921 97.9204 220.921 99.5477C220.921 103.802 219.656 106.866 217.125 108.733C215.589 109.849 213.496 110.556 210.844 110.857C210.152 110.919 209.482 110.985 208.834 111.061C208.187 111.136 207.861 111.476 207.861 112.086C207.861 112.838 208.005 113.644 208.292 114.503C208.578 115.362 208.962 116.061 209.444 116.603C209.654 116.845 210.106 117.229 210.799 117.74C211.221 118.042 211.431 118.403 211.431 118.824C211.431 119.367 211.1 119.637 210.437 119.637C209.535 119.637 208.872 119.623 208.45 119.593C206.732 119.474 205.528 119.413 204.834 119.413C203.782 119.413 202.839 119.45 202.01 119.525C201.183 119.6 200.527 119.637 200.045 119.637C199.563 119.637 199.209 119.555 198.985 119.39C198.757 119.225 198.645 118.976 198.645 118.645C198.946 117.348 199.202 116.13 199.414 114.985C199.624 113.839 199.729 111.912 199.729 109.201ZM207.861 101.227C207.861 102.8 207.938 103.876 208.089 104.449C208.39 105.541 209.023 106.084 209.987 106.084C210.799 106.084 211.47 105.646 211.996 104.766C212.525 103.892 212.788 102.649 212.788 101.045C212.788 99.7131 212.509 98.598 211.952 97.7088C211.393 96.8124 210.664 96.3696 209.761 96.3696C208.946 96.3696 208.427 96.6932 208.201 97.3477C207.975 97.9951 207.861 98.9448 207.861 100.179V101.227ZM184.368 114.398C183.283 114.398 182.454 114.585 181.882 114.962C181.311 115.339 181.024 115.902 181.024 116.656C181.024 117.048 181.204 117.395 181.567 117.695C181.928 117.997 182.107 118.328 182.107 118.689C182.107 118.992 182.003 119.225 181.793 119.39C181.581 119.555 181.264 119.637 180.843 119.637C180.542 119.637 179.895 119.6 178.899 119.525C177.907 119.45 177.213 119.413 176.822 119.413C176.099 119.413 175.436 119.45 174.834 119.525C174.232 119.6 173.614 119.637 172.982 119.637C172.379 119.637 172.077 119.367 172.077 118.824C172.077 118.705 172.25 118.086 172.597 116.964C172.944 115.849 173.275 114.344 173.591 112.447C173.908 110.542 174.382 107.951 175.015 104.661C175.527 101.858 175.911 99.569 176.166 97.8066C176.422 96.0441 176.551 94.4186 176.551 92.9425C176.551 90.9844 176.588 89.6594 176.664 88.9818C176.739 88.3042 177.364 87.9646 178.538 87.9646C178.81 87.9646 179.488 88.0019 180.571 88.0784C181.656 88.1531 182.862 88.1922 184.187 88.1922C185.572 88.1922 186.822 88.1531 187.937 88.0784C189.051 88.0019 190 87.9646 190.783 87.9646C191.807 87.9646 192.394 88.5674 192.545 89.7715C192.937 93.6058 193.33 97.3175 193.721 100.901C194.112 104.494 194.382 107.017 194.534 108.463C194.834 111.054 195.241 113.185 195.754 114.841C196.024 115.716 196.31 116.468 196.613 117.108C197.064 118.072 197.288 118.629 197.288 118.78C197.288 119.141 197.146 119.374 196.862 119.481C196.574 119.586 196.326 119.637 196.115 119.637L194.398 119.504L192.455 119.367L189.472 119.504L187.711 119.637C187.288 119.637 187.004 119.539 186.852 119.344C186.701 119.148 186.627 118.931 186.627 118.689C186.627 118.479 186.808 118.177 187.169 117.786C187.53 117.395 187.711 116.957 187.711 116.477C187.711 115.934 187.516 115.495 187.125 115.166C186.522 114.652 185.602 114.398 184.368 114.398ZM184.368 109.608C185.181 109.608 185.73 109.464 186.017 109.178C186.303 108.892 186.445 108.433 186.445 107.8V105.18C186.445 102.891 186.266 101.015 185.903 99.5548C185.542 98.0947 185.092 97.362 184.548 97.362C183.946 97.362 183.425 98.598 182.99 101.068C182.552 103.539 182.335 105.45 182.335 106.806C182.335 108.011 182.47 108.78 182.741 109.11C183.013 109.441 183.553 109.608 184.368 109.608ZM149.713 110.633V97.1076C149.713 94.5093 149.6 92.8002 149.374 91.9714C149.148 91.1427 149.035 90.225 149.035 89.229C149.035 88.8396 149.163 88.5301 149.418 88.3042C149.675 88.0784 150.18 87.9646 150.933 87.9646L154.005 88.146H157.122H159.698L162.589 87.9646C164.788 87.9646 166.512 88.6955 167.763 90.1574C169.013 91.6246 169.638 93.6965 169.638 96.3838C169.638 97.7692 169.472 98.8914 169.141 99.7504C168.809 100.609 168.298 101.339 167.604 101.949C167.574 101.979 167.304 102.205 166.791 102.626C166.46 102.898 166.294 103.094 166.294 103.213C166.294 103.274 166.55 103.592 167.063 104.163C168.117 105.369 168.885 106.407 169.367 107.288C170.27 108.945 170.722 110.724 170.722 112.627C170.722 115.097 169.834 116.936 168.056 118.147C166.58 119.141 164.652 119.637 162.273 119.637C161.641 119.579 160.88 119.525 159.992 119.481C159.103 119.434 157.875 119.413 156.309 119.413C153.809 119.413 152.221 119.443 151.543 119.504C150.865 119.562 150.3 119.609 149.848 119.637C148.914 119.637 148.448 119.292 148.448 118.6C148.448 118.358 148.492 118.072 148.583 117.74C149.095 115.956 149.367 114.962 149.397 114.752C149.607 113.455 149.713 112.086 149.713 110.633ZM157.846 95.8271V97.4989C157.846 98.0413 158.094 98.4699 158.591 98.7865C159.087 99.1031 159.652 99.2614 160.285 99.2614C160.827 99.2614 161.264 99.1262 161.596 98.8541C162.107 98.4024 162.363 97.6643 162.363 96.6399C162.363 95.7667 162.138 95.1567 161.686 94.8099C161.234 94.4631 160.616 94.2905 159.833 94.2905C159.08 94.2905 158.561 94.4488 158.275 94.7654C157.989 95.082 157.846 95.4359 157.846 95.8271ZM157.846 107.394V112.137C157.846 113.222 158.056 113.946 158.478 114.307C158.779 114.547 159.291 114.668 160.014 114.668C160.827 114.668 161.4 114.563 161.731 114.352C162.303 113.96 162.589 113.176 162.589 112.002C162.589 111.581 162.544 111.189 162.454 110.828C162.273 110.316 162.138 109.939 162.047 109.697C161.505 108.132 160.857 106.973 160.104 106.219C159.532 105.646 159.005 105.361 158.523 105.361C158.343 105.361 158.185 105.527 158.049 105.858C157.913 106.188 157.846 106.701 157.846 107.394ZM125.134 111.641V97.2286C125.134 94.3652 125.66 92.2418 126.714 90.8563C128.342 88.7186 131.414 87.648 135.931 87.648C138.372 87.648 140.375 88.1157 141.942 89.0494C144.472 90.5558 145.736 93.1452 145.736 96.8213V111.189C145.736 114.442 144.561 116.822 142.212 118.328C140.465 119.443 138.281 120 135.661 120C132.648 120 130.239 119.413 128.431 118.238C126.233 116.792 125.134 114.592 125.134 111.641ZM133.266 98.3116V110.919C133.266 112.063 133.507 112.891 133.989 113.404C134.35 113.795 134.803 113.991 135.345 113.991C136.098 113.991 136.663 113.69 137.039 113.087C137.416 112.484 137.603 111.702 137.603 110.738V98.0858C137.603 96.912 137.438 96.0832 137.106 95.6013C136.775 95.1193 136.218 94.8774 135.435 94.8774C134.501 94.8774 133.868 95.2847 133.537 96.0975C133.356 96.5492 133.266 97.2873 133.266 98.3116ZM101.412 110.633V97.1076C101.412 94.5093 101.299 92.8002 101.073 91.9714C100.847 91.1427 100.734 90.225 100.734 89.229C100.734 88.8396 100.863 88.5301 101.118 88.3042C101.375 88.0784 101.879 87.9646 102.632 87.9646L105.704 88.146H108.822H111.398L114.29 87.9646C116.488 87.9646 118.213 88.6955 119.463 90.1574C120.713 91.6246 121.338 93.6965 121.338 96.3838C121.338 97.7692 121.172 98.8914 120.841 99.7504C120.509 100.609 119.997 101.339 119.304 101.949C119.274 101.979 119.004 102.205 118.492 102.626C118.16 102.898 117.994 103.094 117.994 103.213C117.994 103.274 118.251 103.592 118.762 104.163C119.817 105.369 120.585 106.407 121.067 107.288C121.97 108.945 122.422 110.724 122.422 112.627C122.422 115.097 121.534 116.936 119.756 118.147C118.281 119.141 116.353 119.637 113.973 119.637C113.341 119.579 112.58 119.525 111.691 119.481C110.802 119.434 109.575 119.413 108.009 119.413C105.509 119.413 103.919 119.443 103.242 119.504C102.564 119.562 101.999 119.609 101.548 119.637C100.614 119.637 100.147 119.292 100.147 118.6C100.147 118.358 100.192 118.072 100.283 117.74C100.795 115.956 101.065 114.962 101.095 114.752C101.307 113.455 101.412 112.086 101.412 110.633ZM109.545 95.8271V97.4989C109.545 98.0413 109.794 98.4699 110.291 98.7865C110.788 99.1031 111.353 99.2614 111.985 99.2614C112.527 99.2614 112.964 99.1262 113.295 98.8541C113.807 98.4024 114.063 97.6643 114.063 96.6399C114.063 95.7667 113.837 95.1567 113.386 94.8099C112.934 94.4631 112.317 94.2905 111.533 94.2905C110.78 94.2905 110.26 94.4488 109.974 94.7654C109.688 95.082 109.545 95.4359 109.545 95.8271ZM109.545 107.394V112.137C109.545 113.222 109.756 113.946 110.178 114.307C110.479 114.547 110.991 114.668 111.714 114.668C112.527 114.668 113.1 114.563 113.431 114.352C114.003 113.96 114.29 113.176 114.29 112.002C114.29 111.581 114.244 111.189 114.153 110.828C113.973 110.316 113.837 109.939 113.747 109.697C113.205 108.132 112.557 106.973 111.804 106.219C111.232 105.646 110.705 105.361 110.223 105.361C110.042 105.361 109.884 105.527 109.748 105.858C109.613 106.188 109.545 106.701 109.545 107.394ZM73.6698 109.818V95.6457V94.9681C73.6698 93.9135 73.6317 93.0936 73.5647 92.505C73.4888 91.911 73.2931 91.2565 72.9693 90.5327C72.7955 90.1414 72.6831 89.8711 72.6226 89.7199C72.4496 89.2379 72.3591 88.8467 72.3591 88.5461C72.3591 88.274 72.4649 88.1015 72.6685 88.041C72.8787 87.9806 73.1348 87.9503 73.429 87.9503C73.6092 87.9503 74.174 87.9948 75.1306 88.0695C76.0793 88.1531 76.9303 88.1922 77.6687 88.1922H79.4608C79.9352 88.1922 80.2892 88.1673 80.53 88.1317L82.4499 87.9503C83.1956 87.9503 83.565 88.1531 83.565 88.5461C83.565 88.8164 83.4138 89.1935 83.1133 89.6825C82.8118 90.1645 82.6082 90.5255 82.4878 90.7674C82.2616 91.2565 82.0887 91.9038 81.9756 92.7237C81.8632 93.5383 81.8027 94.2994 81.8027 94.9913V99.2151C82.0435 99.2151 82.2996 99.2009 82.571 99.1706C82.9322 98.8683 83.7759 97.988 85.101 96.535C86.0949 95.4803 86.7575 94.7352 87.0888 94.3137C87.9622 93.2519 88.3987 92.2649 88.3987 91.3614C88.3987 90.7816 88.203 90.2392 87.812 89.727C87.6311 89.5154 87.458 89.2913 87.2925 89.0636C87.1267 88.8396 87.0437 88.6653 87.0437 88.5461C87.0437 88.3042 87.1413 88.146 87.3376 88.0695C87.5333 87.9948 87.7967 87.9503 88.1287 87.9503C89.0014 87.9503 89.6641 87.9948 90.1165 88.0695C90.5682 88.1531 91.2001 88.1922 92.0138 88.1922C93.2791 88.1922 94.0469 88.1531 94.3183 88.0695C94.589 87.9948 95.5837 87.9503 97.3001 87.9503C97.8722 87.9503 98.1589 88.1068 98.1589 88.4092C98.1589 88.5603 98.0984 88.8467 97.978 89.2682C97.7072 90.1414 97.5263 90.7888 97.4358 91.2103C97.0139 92.8144 96.8032 94.712 96.8032 96.9191V109.502C96.8032 111.038 96.841 112.312 96.9161 113.32C96.992 114.336 97.1571 115.225 97.4132 115.993C97.6693 116.761 97.9181 117.462 98.1589 118.102C98.2494 118.373 98.2939 118.673 98.2939 119.006C98.2939 119.427 97.9625 119.637 97.3001 119.637C96.0653 119.637 95.1465 119.6 94.5438 119.525C93.9418 119.45 93.2493 119.413 92.4655 119.413C92.0445 119.413 91.6373 119.413 91.2455 119.413C90.8542 119.413 90.4026 119.443 89.8903 119.504L88.3542 119.637C87.5704 119.637 87.1794 119.367 87.1794 118.824C87.1794 118.645 87.2925 118.328 87.518 117.877C87.7442 117.425 87.9025 117.062 87.9923 116.792C88.2936 115.888 88.4819 114.841 88.5571 113.653C88.6329 112.461 88.6702 111.716 88.6702 111.415V106.039V105.043L88.8059 104.277C88.7453 104.065 88.6557 103.96 88.5344 103.96C88.2637 103.96 87.8872 104.202 87.4056 104.682C86.8029 105.285 85.8235 106.43 84.4683 108.116C83.5351 109.262 82.9322 110.074 82.6608 110.556C82.0887 111.52 81.8027 112.44 81.8027 113.313C81.8027 113.795 81.8632 114.336 81.9836 114.938C82.104 115.541 82.2543 116.038 82.4353 116.431C82.6164 116.822 82.8717 117.304 83.2031 117.877C83.4446 118.298 83.565 118.6 83.565 118.78C83.565 119.353 83.173 119.637 82.3901 119.637C82.1792 119.637 81.5617 119.609 80.5373 119.548C79.5135 119.488 78.6392 119.458 77.9168 119.458C77.133 119.458 76.2902 119.488 75.3867 119.548C74.4827 119.609 73.8507 119.637 73.4888 119.637C73.037 119.637 72.7656 119.609 72.6758 119.548C72.4649 119.397 72.3591 119.185 72.3591 118.915C72.3591 118.734 72.4496 118.41 72.6306 117.944C72.8108 117.469 72.9766 116.927 73.1275 116.31C73.2778 115.693 73.4062 114.887 73.5113 113.893C73.6172 112.891 73.6698 111.535 73.6698 109.818ZM48.0057 111.807V95.4732C48.0057 94.5698 47.9458 93.8157 47.8254 93.2146C47.7042 92.6117 47.494 91.7829 47.1928 90.7283C47.0724 90.2694 46.9447 89.8711 46.8081 89.5243C46.6731 89.1775 46.6053 88.9285 46.6053 88.7773C46.6053 88.4163 46.7039 88.1922 46.8986 88.1015C47.0949 88.0108 47.343 87.9646 47.6445 87.9646C49.9037 87.9646 51.4099 87.9948 52.163 88.0624C54.4222 88.2651 56.9828 88.3718 59.8442 88.3718C61.4101 88.3718 62.6602 88.3345 63.5943 88.2651C66.3651 88.0624 68.158 87.9646 68.9702 87.9646C69.3921 87.9646 69.7314 88.0019 69.9875 88.0784C70.2436 88.1531 70.3713 88.3558 70.3713 88.6884C70.3713 88.9587 70.2662 89.3518 70.0554 89.8622C69.5431 91.1356 69.287 92.6419 69.287 94.3884V111.581C69.287 112.762 69.3474 113.893 69.4678 114.978C69.5884 116.061 69.7992 116.943 70.1006 117.628C70.4021 118.305 70.5523 118.78 70.5523 119.052C70.5523 119.443 70.2962 119.637 69.7839 119.637C69.362 119.637 68.6696 119.6 67.7055 119.525C66.7416 119.45 65.8229 119.413 64.9502 119.413L62.8712 119.504L60.8834 119.637C60.1901 119.637 59.8442 119.353 59.8442 118.78C59.8442 118.629 59.8887 118.389 59.9792 118.058C60.3411 117.062 60.5972 116.31 60.7475 115.798C61.0191 114.864 61.154 113.734 61.154 112.408V98.493C61.154 97.5291 61.0635 96.8658 60.8834 96.5047C60.5213 95.7507 59.7836 95.3754 58.6694 95.3754C57.5543 95.3754 56.8166 95.7507 56.4553 96.5047C56.2444 96.9262 56.1393 97.5896 56.1393 98.493V112.363C56.1393 112.936 56.1692 113.539 56.2298 114.17C56.2896 114.803 56.41 115.422 56.591 116.025C56.6816 116.356 56.8617 116.829 57.1324 117.446C57.404 118.065 57.5397 118.494 57.5397 118.734C57.5397 119.097 57.4193 119.337 57.1785 119.458C56.937 119.579 56.591 119.637 56.1393 119.637L54.4667 119.504C54.0756 119.474 53.737 119.45 53.4503 119.434C53.1641 119.42 52.9007 119.413 52.6599 119.413H52.0725C50.7472 119.413 49.8131 119.45 49.2711 119.525C48.7288 119.6 48.2166 119.637 47.735 119.637C47.2226 119.637 46.9066 119.57 46.7862 119.434C46.6658 119.299 46.6053 119.111 46.6053 118.871C46.6053 118.629 46.6658 118.358 46.7862 118.058C47.0877 117.243 47.2833 116.694 47.3729 116.424C47.7948 114.978 48.0057 113.441 48.0057 111.807ZM310.77 68.1799V63.6169C310.77 62.9542 310.5 62.6231 309.958 62.6231L309.46 62.758C309.25 62.9083 309.008 63.4666 308.738 64.4305C308.377 65.785 307.818 68.0748 307.066 71.2973C306.584 73.3458 306.342 74.4002 306.342 74.4607C306.072 75.3947 305.59 75.8611 304.896 75.8611H303.134L301.192 75.7261C300.589 75.7261 300.062 75.7261 299.611 75.7261C299.159 75.7261 298.782 75.7707 298.481 75.8611H296.763C296.162 75.8611 295.86 75.6202 295.86 75.1379C295.86 74.9876 295.981 74.7315 296.221 74.3703C296.824 73.4363 297.275 72.6911 297.578 72.1489C298.421 70.5822 299.173 68.9112 299.836 67.1261C300.288 65.9513 300.619 65.0779 300.831 64.505C301.282 63.33 301.508 62.6303 301.508 62.4194C301.508 62.2391 301.403 62.0954 301.192 61.9903C300.982 61.8845 300.77 61.7866 300.558 61.697C299.324 61.1242 298.495 60.1901 298.074 58.8947C297.832 58.1723 297.713 57.2011 297.713 55.9963V50.4306C297.713 47.8101 298.737 46.0259 300.786 45.0919C302.111 44.4891 304.039 44.1884 306.568 44.1884C308.316 44.1884 309.625 44.2183 310.5 44.2709C311.373 44.3241 312.382 44.384 313.527 44.4591C314.069 44.4591 314.852 44.4146 315.876 44.3241C316.901 44.2336 317.818 44.1884 318.633 44.1884C319.024 44.1884 319.341 44.2183 319.581 44.2782C319.823 44.3387 319.942 44.5496 319.942 44.9108C319.672 46.0558 319.432 47.1709 319.22 48.2399C319.008 49.3089 318.903 50.7166 318.903 52.4723V67.5327C318.903 70.5523 319.175 72.4802 319.716 73.3312C319.988 73.7522 320.123 74.3403 320.123 75.0935C320.123 75.6057 319.732 75.8611 318.948 75.8611C318.798 75.8611 318.211 75.8312 317.185 75.7707C316.163 75.7108 315.304 75.6809 314.61 75.6809C313.587 75.6809 312.773 75.7028 312.172 75.7486C311.569 75.794 310.952 75.8312 310.319 75.8611C310.047 75.8611 309.822 75.8312 309.641 75.7707C309.46 75.7108 309.371 75.5299 309.371 75.2284C309.371 75.0481 309.429 74.8066 309.55 74.506C309.792 73.8733 309.988 73.3157 310.137 72.8341C310.559 71.2675 310.77 69.7161 310.77 68.1799ZM305.846 52.9993V55.5291C305.846 56.1005 306.088 56.5158 306.575 56.7712C307.059 57.0273 307.639 57.1557 308.307 57.1557C309.038 57.1557 309.634 56.9901 310.086 56.6588C310.545 56.3268 310.77 55.8759 310.77 55.3031V52.9993C310.77 52.457 310.649 52.0046 310.409 51.6434C310.009 51.0705 309.309 50.7853 308.307 50.7853C307.578 50.7853 306.982 50.9807 306.531 51.372C306.072 51.7638 305.846 52.306 305.846 52.9993ZM282.712 70.6201C281.627 70.6201 280.8 70.8084 280.227 71.1849C279.654 71.5614 279.368 72.1263 279.368 72.8794C279.368 73.2705 279.549 73.6172 279.911 73.9186C280.272 74.2199 280.453 74.5512 280.453 74.9124C280.453 75.2139 280.348 75.4474 280.136 75.613C279.927 75.7787 279.61 75.8611 279.187 75.8611C278.886 75.8611 278.239 75.8239 277.245 75.7486C276.25 75.6729 275.559 75.6357 275.167 75.6357C274.444 75.6357 273.78 75.6729 273.179 75.7486C272.576 75.8239 271.959 75.8611 271.326 75.8611C270.933 75.8611 270.668 75.7458 270.533 75.5153C270.518 75.5445 270.504 75.572 270.49 75.5984C270.385 75.7787 270.211 75.869 269.971 75.8763C269.759 75.869 269.284 75.8465 268.548 75.8013C267.81 75.7488 267.079 75.7261 266.355 75.7261L263.826 75.8763H262.017C260.993 75.869 260.317 75.3569 259.985 74.333C259.472 72.1336 258.974 69.9196 258.494 67.691C258.012 65.4617 257.545 63.3081 257.093 61.2446C256.641 59.1815 256.143 58.1497 255.602 58.1497C255.09 58.1497 254.751 58.4511 254.585 59.0531C254.42 59.6559 254.336 60.4695 254.336 61.4934V62.0347V66.4256C254.336 67.3897 254.39 68.3835 254.494 69.4074C254.601 70.4319 254.804 71.3507 255.104 72.1636C255.407 72.9773 255.798 73.7601 256.28 74.5133C256.46 74.7847 256.55 74.9957 256.55 75.1459C256.55 75.2971 256.536 75.4022 256.506 75.462C256.355 75.7334 256.024 75.869 255.512 75.8763C254.969 75.869 254.413 75.8392 253.84 75.7787C253.267 75.7108 252.44 75.6809 251.354 75.6809C250.813 75.6809 250.331 75.6809 249.91 75.6809C249.486 75.6809 249.141 75.6955 248.869 75.7261L246.701 75.8763C246.37 75.869 246.15 75.786 246.045 75.6202C245.94 75.4547 245.887 75.1605 245.887 74.7388C245.887 74.3783 245.94 73.6397 246.045 72.5255C246.15 71.4039 246.203 70.364 246.203 69.4001V51.7033C246.203 50.0993 246.114 48.955 245.933 48.2618C245.451 46.4177 245.211 45.3931 245.211 45.1824C245.211 44.7605 245.353 44.489 245.64 44.3686C245.926 44.2482 246.248 44.1884 246.611 44.1884C247.514 44.1884 248.215 44.2183 248.711 44.2782C249.209 44.3387 249.728 44.3686 250.271 44.3686C251.444 44.3686 252.357 44.346 253.004 44.3088C253.651 44.2709 254.262 44.2256 254.834 44.1884C255.528 44.1884 255.873 44.4292 255.873 44.9188C255.873 45.4305 255.617 46.0259 255.104 46.6884C254.592 47.3583 254.336 48.0969 254.336 48.9172C254.336 50.4911 255.256 51.2822 257.093 51.2822C257.996 51.2822 258.653 51.0333 259.058 50.529C259.465 50.0321 259.668 49.4891 259.668 48.9172C259.668 48.556 259.57 48.1567 259.375 47.7357C259.179 47.3139 258.765 46.7337 258.131 46.0033C257.861 45.672 257.726 45.3705 257.726 45.0991C257.726 44.4891 258.194 44.1884 259.126 44.1884C259.517 44.1884 260.18 44.2256 261.114 44.3008C262.048 44.376 262.604 44.4146 262.786 44.4146C263.54 44.4146 264.15 44.376 264.616 44.3008C265.083 44.2256 265.752 44.1884 266.627 44.1884C267.168 44.1884 267.612 44.346 267.959 44.662C268.306 44.9788 268.479 45.6041 268.479 46.5454C268.479 47.9603 267.966 49.3461 266.942 50.702C266.611 51.161 265.919 51.9747 264.865 53.1495C264.322 53.7821 263.975 54.2566 263.826 54.5725C263.675 54.8892 263.6 55.2504 263.6 55.6424C263.6 56.4553 263.84 57.8409 264.322 59.8061C264.653 61.1023 265.03 62.4267 265.452 63.7899C265.873 65.1456 266.432 66.5913 267.123 68.1354C267.636 69.2797 268.313 70.6201 269.158 72.1636C269.458 72.7663 269.819 73.3844 270.241 74.0164C270.373 74.2222 270.472 74.3951 270.542 74.5359C270.627 74.2243 270.76 73.7747 270.942 73.1873C271.288 72.0731 271.619 70.5676 271.936 68.6697C272.252 66.7642 272.725 64.1744 273.359 60.8834C273.871 58.0818 274.255 55.7927 274.511 54.0304C274.767 52.2681 274.895 50.6414 274.895 49.166C274.895 47.2073 274.933 45.8829 275.009 45.205C275.084 44.527 275.708 44.1884 276.884 44.1884C277.154 44.1884 277.831 44.2256 278.916 44.3008C280.001 44.376 281.205 44.4146 282.53 44.4146C283.917 44.4146 285.168 44.376 286.281 44.3008C287.396 44.2256 288.344 44.1884 289.128 44.1884C290.151 44.1884 290.74 44.7904 290.891 45.996C291.282 49.8286 291.673 53.5406 292.065 57.1251C292.458 60.7176 292.726 63.2404 292.877 64.6859C293.18 67.2764 293.587 69.4074 294.097 71.0645C294.369 71.9381 294.654 72.6911 294.956 73.3312C295.408 74.2951 295.634 74.8527 295.634 75.0029C295.634 75.3649 295.492 75.5984 295.205 75.7028C294.919 75.8086 294.67 75.8611 294.46 75.8611L292.742 75.7261L290.8 75.5904L287.818 75.7261L286.055 75.8611C285.634 75.8611 285.347 75.7632 285.196 75.5678C285.047 75.3714 284.97 75.1532 284.97 74.9124C284.97 74.7015 285.152 74.4002 285.513 74.0091C285.875 73.6172 286.055 73.18 286.055 72.6984C286.055 72.1563 285.859 71.7192 285.468 71.3879C284.865 70.8755 283.948 70.6201 282.712 70.6201ZM282.712 65.8309C283.526 65.8309 284.076 65.6879 284.362 65.4017C284.647 65.1158 284.791 64.656 284.791 64.0234V61.4029C284.791 59.1136 284.609 57.2382 284.248 55.7774C283.887 54.3164 283.435 53.586 282.893 53.586C282.29 53.586 281.771 54.8206 281.335 57.2909C280.898 59.761 280.679 61.6742 280.679 63.0294C280.679 64.2342 280.814 65.0026 281.086 65.3333C281.356 65.6653 281.899 65.8309 282.712 65.8309ZM225.735 63.9329V57.2011C225.735 53.3144 226.293 50.4086 227.407 48.4807C229.185 45.4077 232.468 43.8717 237.258 43.8717C239.788 43.8717 241.558 44.0374 242.566 44.3686C243.575 44.6999 244.08 45.1064 244.08 45.5888C244.019 45.95 243.959 46.4542 243.9 47.1022C243.84 47.7494 243.809 48.315 243.809 48.7968C243.809 49.6702 243.847 50.3554 243.922 50.8523C243.998 51.3492 244.035 51.6732 244.035 51.8237C244.035 52.3359 243.914 52.7505 243.673 53.0663C243.432 53.3823 243.055 53.5406 242.545 53.5406C242.123 53.5406 241.716 53.451 241.323 53.2699C241.264 53.2401 240.962 53.0663 240.421 52.7505C239.879 52.4337 239.411 52.2009 239.02 52.0506C238.629 51.8995 238.101 51.8237 237.439 51.8237C235.963 51.8237 234.999 52.2228 234.547 53.0211C234.096 53.8195 233.868 55.4541 233.868 57.9242V62.1706C233.868 64.6407 234.065 66.3578 234.457 67.3218C235.12 68.9782 236.475 69.8064 238.522 69.8064C239.185 69.8064 239.772 69.7241 240.285 69.5584C240.797 69.3928 241.264 69.1666 241.686 68.8804C242.107 68.5944 242.401 68.4141 242.566 68.3383C242.732 68.2631 242.936 68.2252 243.176 68.2252C243.749 68.2252 244.035 68.5418 244.035 69.1739L243.989 71.4337L244.035 73.6924C244.035 74.4454 243.719 75.0029 243.087 75.3649C242.091 75.9363 240.254 76.223 237.574 76.223C232.904 76.223 229.653 74.9425 227.814 72.3817C226.429 70.4538 225.735 67.6378 225.735 63.9329ZM202.693 66.8547V53.3299C202.693 50.7319 202.579 49.0228 202.354 48.1939C202.128 47.3663 202.016 46.4478 202.016 45.4531C202.016 45.062 202.142 44.7525 202.398 44.527C202.654 44.3008 203.159 44.1884 203.911 44.1884L206.985 44.3686H210.102H212.677L215.569 44.1884C217.769 44.1884 219.493 44.9188 220.743 46.3791C221.993 47.8481 222.619 49.919 222.619 52.6073C222.619 53.9924 222.452 55.1147 222.121 55.9736C221.79 56.8318 221.278 57.5623 220.585 58.1723C220.554 58.2021 220.284 58.4284 219.772 58.8502C219.441 59.1209 219.274 59.3165 219.274 59.4369C219.274 59.4976 219.53 59.8141 220.044 60.3856C221.097 61.5912 221.865 62.6303 222.347 63.511C223.25 65.1684 223.702 66.946 223.702 68.8505C223.702 71.3206 222.813 73.1581 221.036 74.3703C219.562 75.3649 217.634 75.8611 215.253 75.8611C214.621 75.8013 213.86 75.7486 212.973 75.7028C212.083 75.6583 210.856 75.6357 209.29 75.6357C206.789 75.6357 205.201 75.6656 204.523 75.7261C203.844 75.786 203.28 75.8312 202.828 75.8611C201.895 75.8611 201.427 75.5153 201.427 74.8221C201.427 74.5811 201.473 74.2951 201.562 73.9631C202.074 72.1789 202.346 71.1849 202.377 70.974C202.586 69.6788 202.693 68.3083 202.693 66.8547ZM210.826 52.0506V53.7217C210.826 54.2639 211.073 54.6929 211.571 55.0096C212.067 55.3257 212.633 55.484 213.264 55.484C213.807 55.484 214.244 55.349 214.575 55.0776C215.087 54.6258 215.343 53.8872 215.343 52.8636C215.343 51.99 215.118 51.38 214.666 51.0333C214.214 50.6867 213.597 50.5137 212.813 50.5137C212.06 50.5137 211.541 50.6721 211.255 50.988C210.968 51.3047 210.826 51.6586 210.826 52.0506ZM210.826 63.6169V68.3609C210.826 69.4452 211.036 70.1684 211.457 70.5296C211.76 70.7706 212.272 70.891 212.994 70.891C213.807 70.891 214.379 70.7858 214.71 70.5749C215.283 70.1838 215.569 69.4001 215.569 68.2252C215.569 67.8034 215.525 67.4123 215.434 67.0504C215.253 66.538 215.118 66.1622 215.027 65.9214C214.486 64.3546 213.839 63.195 213.085 62.442C212.512 61.8699 211.986 61.5839 211.504 61.5839C211.322 61.5839 211.164 61.7488 211.029 62.0808C210.894 62.4121 210.826 62.9236 210.826 63.6169ZM178.791 67.864V53.451C178.791 50.5889 179.317 48.4654 180.372 47.0804C181.999 44.9414 185.07 43.8717 189.589 43.8717C192.03 43.8717 194.032 44.3387 195.599 45.2727C198.128 46.7789 199.394 49.3687 199.394 53.0444V67.4123C199.394 70.6647 198.219 73.045 195.869 74.5512C194.123 75.6656 191.939 76.223 189.317 76.223C186.306 76.223 183.897 75.6355 182.088 74.4607C179.89 73.0144 178.791 70.8157 178.791 67.864ZM186.924 54.5353V67.1407C186.924 68.2857 187.164 69.1139 187.646 69.6263C188.008 70.0174 188.46 70.2137 189.001 70.2137C189.755 70.2137 190.319 69.913 190.696 69.3103C191.073 68.7075 191.261 67.9245 191.261 66.9598V54.3091C191.261 53.135 191.096 52.306 190.763 51.8237C190.432 51.3419 189.876 51.1011 189.092 51.1011C188.158 51.1011 187.526 51.5077 187.194 52.3213C187.014 52.773 186.924 53.5107 186.924 54.5353ZM174.407 52.7352V70.2888C174.407 71.3126 174.498 71.968 174.679 72.2394C174.859 72.5102 175.153 72.6984 175.56 72.8035C175.966 72.9093 176.381 73.0071 176.803 73.0977C177.073 73.2181 177.209 73.4742 177.209 73.866C177.209 74.047 177.186 74.3483 177.141 74.7694C177.096 75.1913 177.073 75.5525 177.073 75.8538L177.164 77.6687L177.209 78.7984C177.209 79.0687 177.194 79.2643 177.164 79.3852C176.983 80.0486 176.531 80.3794 175.808 80.3794C175.055 80.3794 174.392 79.9277 173.82 79.0242C173.037 77.8197 172.374 77.0667 171.832 76.7652C171.29 76.464 170.198 76.2377 168.556 76.0873C166.915 75.9363 165.039 75.8611 162.931 75.8611C160.943 75.8611 159.512 75.9516 158.639 76.1326C157.192 76.4339 156.048 77.0667 155.205 78.0306C154.542 78.9637 154.12 79.5506 153.94 79.7925C153.639 80.1838 153.202 80.3794 152.629 80.3794C152.057 80.3794 151.643 80.2371 151.386 79.9508C151.131 79.6645 151.003 79.3248 151.003 78.9335C151.033 78.633 151.071 78.2415 151.116 77.7592C151.161 77.2696 151.184 76.8033 151.184 76.3515C151.184 75.7181 151.161 75.2139 151.116 74.8374C151.071 74.4607 151.033 74.0769 151.003 73.6851C151.003 73.1734 151.334 72.8795 151.997 72.8035C152.66 72.7292 153.066 72.6452 153.217 72.5554C153.668 72.3146 153.97 71.5614 154.12 70.2888C154.422 67.6378 154.745 65.0852 155.091 62.6456C155.438 60.2054 155.694 58.3832 155.86 57.1931C156.025 56.0036 156.109 54.8666 156.109 53.7821C156.109 52.298 156.018 50.9428 155.838 49.708C155.386 46.598 155.159 45.0319 155.159 45.0013C155.159 44.7605 155.258 44.5649 155.453 44.4146C155.649 44.2636 156.093 44.1884 156.786 44.1884L165.145 44.4591C166.712 44.4591 168.602 44.4146 170.816 44.3241C173.03 44.2336 174.227 44.1884 174.407 44.1884C174.92 44.1884 175.296 44.2183 175.537 44.2782C175.778 44.3387 175.898 44.5496 175.898 44.9108C175.898 45.664 175.748 46.2813 175.447 46.7636C174.754 47.886 174.407 49.8731 174.407 52.7352ZM166.275 68.8578V52.9993C166.275 52.4264 166.154 52.0046 165.913 51.7339C165.672 51.4625 165.296 51.3273 164.784 51.3273C164.151 51.3273 163.715 51.5829 163.473 52.0951C163.353 52.306 163.173 53.5559 162.931 55.8452C162.479 60.0018 162.133 62.9843 161.892 64.7917C161.531 67.6531 161.35 69.2044 161.35 69.4452C161.35 69.9576 161.545 70.3414 161.937 70.5975C162.329 70.8536 163.006 70.9813 163.97 70.9813C165.025 70.9813 165.702 70.7553 166.003 70.3035C166.184 70.0327 166.275 69.5511 166.275 68.8578ZM130.851 67.0809V52.5621C130.851 50.7166 130.746 49.3162 130.535 48.3523C130.264 47.3583 129.993 46.3418 129.721 45.3174C129.721 44.956 129.872 44.6773 130.173 44.4818C130.474 44.2862 130.957 44.1884 131.619 44.1884L134.873 44.4591C135.384 44.4591 136.183 44.4591 137.267 44.4591C138.351 44.4591 139.165 44.4591 139.707 44.4591H142.102H143.095C144.059 44.4591 145.039 44.3687 146.032 44.1884H147.93C148.352 44.1884 148.691 44.2782 148.947 44.4591C149.203 44.6401 149.331 44.986 149.331 45.5055C149.331 45.8975 149.3 46.4396 149.24 47.1401C149.18 47.8327 149.15 48.5332 149.15 49.2257C149.15 49.4366 149.165 49.6775 149.195 49.949C149.225 50.2277 149.278 50.5517 149.354 50.9275C149.429 51.3047 149.497 51.6361 149.557 51.9295C149.617 52.2155 149.648 52.4789 149.648 52.7197C149.648 53.6617 149.165 54.1281 148.201 54.1281C147.779 54.1281 147.358 54.0077 146.936 53.7668C146.454 53.4348 146.108 53.1947 145.897 53.0444C144.783 52.2914 143.562 51.914 142.237 51.914C141.153 51.914 140.339 52.125 139.798 52.5468C139.255 52.9687 138.984 53.4809 138.984 54.0836C138.984 54.7761 139.3 55.2584 139.933 55.5291C140.565 55.8007 141.439 55.9357 142.554 55.9357C143.005 55.9357 143.766 55.9051 144.835 55.8452C145.905 55.7847 146.47 55.7546 146.53 55.7546C147.584 55.7546 148.45 55.8832 149.127 56.1386C149.805 56.3954 150.144 56.8996 150.144 57.6528C150.144 58.165 149.88 58.6094 149.354 58.9852C148.826 59.3626 147.93 59.5501 146.665 59.5501H140.837C140.204 59.5501 139.737 59.6705 139.436 59.912C139.135 60.1528 138.984 60.6499 138.984 61.4029V68.2704C138.984 69.2343 139.255 69.8824 139.798 70.2137C140.159 70.4238 140.716 70.5296 141.469 70.5296H142.056C143.081 70.5296 143.886 70.4844 144.473 70.3939C145.061 70.3035 145.776 70.048 146.62 69.6263C146.981 69.4452 147.343 69.2498 147.704 69.0389C148.337 68.6469 148.849 68.4514 149.24 68.4514C149.662 68.4514 149.948 68.5645 150.099 68.79C150.25 69.0163 150.325 69.2498 150.325 69.4906C150.325 69.7919 150.287 70.1531 150.212 70.5749C150.137 70.9968 150.099 71.5235 150.099 72.1561L150.189 74.4155C150.189 75.0175 149.956 75.4093 149.489 75.5904C149.022 75.7707 148.382 75.8611 147.569 75.8611L142.147 75.6357H136.725C134.947 75.6357 133.637 75.6729 132.794 75.7486C131.95 75.8239 131.363 75.8611 131.032 75.8611C130.67 75.8611 130.331 75.8013 130.015 75.6809C129.699 75.5598 129.541 75.3496 129.541 75.0481C129.541 74.174 129.676 73.4815 129.947 72.9627C130.55 71.8177 130.851 69.8598 130.851 67.0809ZM126.062 52.7352V70.2888C126.062 71.3126 126.152 71.968 126.333 72.2394C126.513 72.5102 126.807 72.6984 127.213 72.8035C127.621 72.9093 128.034 73.0071 128.456 73.0977C128.728 73.2181 128.863 73.4742 128.863 73.866C128.863 74.047 128.84 74.3483 128.795 74.7694C128.75 75.1913 128.728 75.5525 128.728 75.8538L128.818 77.6687L128.863 78.7984C128.863 79.0687 128.848 79.2643 128.818 79.3852C128.637 80.0486 128.185 80.3794 127.462 80.3794C126.709 80.3794 126.046 79.9277 125.474 79.0242C124.691 77.8197 124.029 77.0667 123.487 76.7652C122.944 76.464 121.852 76.2377 120.21 76.0873C118.569 75.9363 116.693 75.8611 114.585 75.8611C112.597 75.8611 111.166 75.9516 110.292 76.1326C108.847 76.4339 107.702 77.0667 106.859 78.0306C106.196 78.9637 105.774 79.5506 105.593 79.7925C105.293 80.1838 104.856 80.3794 104.284 80.3794C103.711 80.3794 103.297 80.2371 103.041 79.9508C102.785 79.6645 102.657 79.3248 102.657 78.9335C102.687 78.633 102.725 78.2415 102.769 77.7592C102.815 77.2696 102.837 76.8033 102.837 76.3515C102.837 75.7181 102.815 75.2139 102.769 74.8374C102.725 74.4607 102.687 74.0769 102.657 73.6851C102.657 73.1734 102.988 72.8795 103.651 72.8035C104.313 72.7292 104.72 72.6452 104.871 72.5554C105.323 72.3146 105.624 71.5614 105.774 70.2888C106.076 67.6378 106.4 65.0852 106.746 62.6456C107.092 60.2054 107.349 58.3832 107.514 57.1931C107.68 56.0036 107.763 54.8666 107.763 53.7821C107.763 52.298 107.672 50.9428 107.492 49.708C107.04 46.598 106.814 45.0319 106.814 45.0013C106.814 44.7605 106.911 44.5649 107.107 44.4146C107.303 44.2636 107.748 44.1884 108.44 44.1884L116.799 44.4591C118.365 44.4591 120.256 44.4146 122.469 44.3241C124.683 44.2336 125.881 44.1884 126.062 44.1884C126.574 44.1884 126.95 44.2183 127.191 44.2782C127.432 44.3387 127.553 44.5496 127.553 44.9108C127.553 45.664 127.402 46.2813 127.101 46.7636C126.408 47.886 126.062 49.8731 126.062 52.7352ZM117.928 68.8578V52.9993C117.928 52.4264 117.808 52.0046 117.567 51.7339C117.326 51.4625 116.95 51.3273 116.437 51.3273C115.805 51.3273 115.368 51.5829 115.127 52.0951C115.007 52.306 114.826 53.5559 114.585 55.8452C114.134 60.0018 113.787 62.9843 113.545 64.7917C113.185 67.6531 113.004 69.2044 113.004 69.4452C113.004 69.9576 113.2 70.3414 113.591 70.5975C113.983 70.8536 114.66 70.9813 115.624 70.9813C116.679 70.9813 117.356 70.7553 117.657 70.3035C117.838 70.0327 117.928 69.5511 117.928 68.8578ZM80.4715 67.864V53.451C80.4715 50.5889 80.9985 48.4654 82.0529 47.0804C83.6795 44.9414 86.7516 43.8717 91.2702 43.8717C93.7104 43.8717 95.7137 44.3387 97.2796 45.2727C99.8096 46.7789 101.075 49.3687 101.075 53.0444V67.4123C101.075 70.6647 99.9 73.045 97.551 74.5512C95.8033 75.6656 93.6199 76.223 90.9988 76.223C87.9871 76.223 85.5768 75.6355 83.7701 74.4607C81.5713 73.0144 80.4715 70.8157 80.4715 67.864ZM88.6044 54.5353V67.1407C88.6044 68.2857 88.8453 69.1139 89.3276 69.6263C89.689 70.0174 90.1405 70.2137 90.6828 70.2137C91.4359 70.2137 92.0006 69.913 92.3773 69.3103C92.7538 68.7075 92.9421 67.9245 92.9421 66.9598V54.3091C92.9421 53.135 92.7764 52.306 92.445 51.8237C92.1139 51.3419 91.557 51.1011 90.7733 51.1011C89.8399 51.1011 89.2065 51.5077 88.8753 52.3213C88.695 52.773 88.6044 53.5107 88.6044 54.5353ZM51.6901 65.1383V52.5621C51.6901 51.5902 51.6667 50.6641 51.6222 49.776C51.5763 48.8871 51.4938 48.1866 51.3734 47.6751C51.253 47.1629 51.118 46.6651 50.967 46.1988C50.8166 45.7318 50.7408 45.3778 50.7408 45.137C50.7408 44.7758 50.8765 44.527 51.1479 44.3913C51.4186 44.2563 51.6901 44.1884 51.9608 44.1884C52.7439 44.1884 53.3918 44.2336 53.9034 44.3241C54.4156 44.4146 55.0329 44.4591 55.7562 44.4591C56.75 44.4591 57.4353 44.4146 57.8118 44.3241C58.1885 44.2336 58.5577 44.1884 58.9189 44.1884C59.5515 44.1884 60.0486 44.6095 60.4105 45.4531C60.6812 46.1164 60.9518 46.7636 61.2234 47.3964C61.7356 48.5414 62.1567 49.3541 62.4888 49.8366C63.0609 50.7093 63.6636 51.1465 64.2955 51.1465C64.6276 51.1465 64.9888 50.9501 65.3807 50.559C65.8922 50.0474 66.5394 49.1279 67.3232 47.8028C68.3172 46.1164 68.9724 45.0919 69.2884 44.7307C69.6051 44.3686 70.0188 44.1884 70.5312 44.1884C71.0732 44.1884 71.5097 44.2256 71.841 44.3008C72.173 44.376 72.6845 44.4146 73.3778 44.4146C74.3118 44.4146 75.0417 44.3913 75.5692 44.354C76.0962 44.3161 76.6302 44.2636 77.1725 44.1884C77.5643 44.1884 77.8504 44.2636 78.0313 44.4146C78.2116 44.5649 78.3022 44.7904 78.3022 45.0919C78.3022 45.9653 78.1211 46.8694 77.7599 47.8101C77.3987 48.7441 77.2184 50.2197 77.2184 52.2381V65.9513C77.2184 67.9391 77.3987 69.7992 77.7599 71.5163C77.8803 72.0585 78.024 72.6911 78.1891 73.4208C78.3553 74.1441 78.4379 74.6563 78.4379 74.9578C78.4379 75.2284 78.3699 75.4474 78.2349 75.613C78.0992 75.7787 77.8206 75.8611 77.3987 75.8611C77.098 75.8611 76.5251 75.8312 75.6816 75.7707C74.8388 75.7108 73.9346 75.6809 72.9707 75.6809C71.9774 75.6809 71.1938 75.7108 70.6217 75.7707C70.0489 75.8312 69.4614 75.8611 68.8592 75.8611C68.0764 75.8611 67.6844 75.6057 67.6844 75.0935C68.0764 73.858 68.4077 72.6006 68.6784 71.3206C68.9498 70.04 69.0847 68.5265 69.0847 66.7795V58.4664C69.0847 57.8936 68.9345 57.6074 68.633 57.6074C68.4827 57.6074 68.2419 57.8257 67.9099 58.2621C67.5786 58.6992 67.3232 59.0231 67.1423 59.234C66.7503 59.8061 66.3593 60.379 65.9675 60.9511C65.4857 61.5233 64.9735 61.8092 64.4312 61.8092C63.8891 61.8092 63.4301 61.651 63.0527 61.3349C62.6769 61.0184 62.1567 60.2732 61.4941 59.0983C61.313 58.7971 61.1176 58.473 60.9067 58.1271C60.6957 57.7805 60.4702 57.6074 60.2294 57.6074C60.0486 57.6074 59.9354 57.6754 59.8901 57.8104C59.8449 57.9461 59.8223 58.1351 59.8223 58.3759V66.689C59.8223 68.3463 59.958 69.8217 60.2294 71.1172C60.32 71.5988 60.5608 72.4124 60.9518 73.5565C61.1329 74.1594 61.2234 74.6264 61.2234 74.9578C61.2234 75.2284 61.1482 75.4474 60.9972 75.613C60.8469 75.7787 60.5156 75.8611 60.0032 75.8611C59.7624 75.8611 59.2356 75.8312 58.422 75.7707C57.609 75.7108 56.75 75.6809 55.8466 75.6809C54.7623 75.6809 53.934 75.7028 53.3619 75.7486C52.789 75.794 52.1717 75.8312 51.5091 75.8611C51.2683 75.8611 51.0268 75.8013 50.786 75.6809C50.5452 75.5598 50.4248 75.3044 50.4248 74.9124C50.4248 74.7015 50.4845 74.4155 50.6056 74.0536C51.0268 72.721 51.2829 71.8775 51.3734 71.5163C51.4639 71.1551 51.539 70.1911 51.5996 68.625C51.6594 67.0504 51.6901 65.8908 51.6901 65.1383ZM27.7876 67.864V53.451C27.7876 50.5889 28.3146 48.4654 29.369 47.0804C30.9956 44.9414 34.0677 43.8717 38.5862 43.8717C41.0265 43.8717 43.0288 44.3387 44.5957 45.2727C47.1255 46.7789 48.3909 49.3687 48.3909 53.0444V67.4123C48.3909 70.6647 47.2161 73.045 44.8671 74.5512C43.1201 75.6656 40.9359 76.223 38.3148 76.223C35.3032 76.223 32.8928 75.6355 31.0859 74.4607C28.8874 73.0144 27.7876 70.8157 27.7876 67.864ZM35.9205 54.5353V67.1407C35.9205 68.2857 36.1613 69.1139 36.6436 69.6263C37.0048 70.0174 37.4566 70.2137 37.9988 70.2137C38.7518 70.2137 39.3167 69.913 39.6932 69.3103C40.0698 68.7075 40.258 67.9245 40.258 66.9598V54.3091C40.258 53.135 40.0924 52.306 39.7611 51.8237C39.4298 51.3419 38.8722 51.1011 38.0893 51.1011C37.1553 51.1011 36.5225 51.5077 36.1912 52.3213C36.011 52.773 35.9205 53.5107 35.9205 54.5353ZM23.4047 52.7352V70.2888C23.4047 71.3126 23.4953 71.968 23.6756 72.2394C23.8565 72.5102 24.1506 72.6984 24.557 72.8035C24.9636 72.9093 25.378 73.0071 25.7991 73.0977C26.0705 73.2181 26.2062 73.4742 26.2062 73.866C26.2062 74.047 26.1836 74.3483 26.1384 74.7694C26.0931 75.1913 26.0705 75.5525 26.0705 75.8538L26.161 77.6687L26.2062 78.7984C26.2062 79.0687 26.1909 79.2643 26.161 79.3852C25.98 80.0486 25.5284 80.3794 24.8051 80.3794C24.0521 80.3794 23.3895 79.9277 22.8173 79.0242C22.0344 77.8197 21.3718 77.0667 20.8295 76.7652C20.2875 76.464 19.195 76.2377 17.5538 76.0873C15.9119 75.9363 14.0365 75.8611 11.9283 75.8611C9.94045 75.8611 8.50945 75.9516 7.63595 76.1326C6.18962 76.4339 5.04539 77.0667 4.20254 78.0306C3.53921 78.9637 3.11743 79.5506 2.93718 79.7925C2.63581 80.1838 2.19943 80.3794 1.62658 80.3794C1.05447 80.3794 0.640709 80.2371 0.383842 79.9508C0.128434 79.6645 0 79.3248 0 78.9335C0.0299191 78.633 0.067869 78.2415 0.113113 77.7592C0.158356 77.2696 0.180978 76.8033 0.180978 76.3515C0.180978 75.7181 0.158356 75.2139 0.113113 74.8374C0.067869 74.4607 0.0299191 74.0769 0 73.6851C0 73.1734 0.331299 72.8795 0.993899 72.8035C1.6565 72.7292 2.06296 72.6452 2.21403 72.5554C2.66572 72.3146 2.9671 71.5614 3.11743 70.2888C3.41881 67.6378 3.74281 65.0852 4.0887 62.6456C4.43533 60.2054 4.69148 58.3832 4.85712 57.1931C5.02277 56.0036 5.10597 54.8666 5.10597 53.7821C5.10597 52.298 5.01548 50.9428 4.8345 49.708C4.38279 46.598 4.15657 45.0319 4.15657 45.0013C4.15657 44.7605 4.2551 44.5649 4.44993 44.4146C4.64623 44.2636 5.09064 44.1884 5.78315 44.1884L14.1423 44.4591C15.709 44.4591 17.599 44.4146 19.8131 44.3241C22.0272 44.2336 23.2239 44.1884 23.4047 44.1884C23.9171 44.1884 24.2929 44.2183 24.5344 44.2782C24.7752 44.3387 24.8956 44.5496 24.8956 44.9108C24.8956 45.664 24.7454 46.2813 24.4439 46.7636C23.7514 47.886 23.4047 49.8731 23.4047 52.7352ZM15.2719 68.8578V52.9993C15.2719 52.4264 15.1508 52.0046 14.91 51.7339C14.6692 51.4625 14.2926 51.3273 13.7811 51.3273C13.1484 51.3273 12.7113 51.5829 12.4705 52.0951C12.3501 52.306 12.1691 53.5559 11.9283 55.8452C11.4765 60.0018 11.1299 62.9843 10.8891 64.7917C10.5279 67.6531 10.3469 69.2044 10.3469 69.4452C10.3469 69.9576 10.5425 70.3414 10.9344 70.5975C11.3255 70.8536 12.0034 70.9813 12.9674 70.9813C14.0219 70.9813 14.6991 70.7553 15.0004 70.3035C15.1814 70.0327 15.2719 69.5511 15.2719 68.8578ZM160.061 35.6571L159.705 33.2526C159.7 33.216 159.662 32.9606 159.61 32.5782H152.496C152.265 32.5782 152.135 32.4404 151.673 31.7084C151.349 31.1941 151.34 30.5488 151.651 30.0256C151.863 29.6667 152.202 29.4069 152.603 29.2952L158.477 27.646C158.321 26.5565 158.176 25.2503 158.047 23.7391C157.85 21.4586 157.711 18.9805 157.621 16.6854C156.919 16.5562 155.903 16.3665 154.43 16.0921C154.041 16.9372 153.579 17.3525 153.038 17.3525C152.386 17.3525 151.851 16.7526 151.419 15.5302C148.221 14.9341 143.705 14.0883 137.325 12.8915C136.651 12.7646 136.05 12.3624 135.675 11.7868L135.54 11.5758C134.953 10.6724 135.005 9.4961 135.67 8.64884C136.15 8.0358 136.874 7.68402 137.653 7.68402H150.407C150.442 5.54524 150.682 4.45932 151.629 4.45932H152.393L152.392 4.29517C152.372 4.28289 152.353 4.26742 152.337 4.24857C152.316 4.22225 152.301 4.19166 152.293 4.15947C149.585 4.15146 149.162 4.04049 149.103 4.01791L148.705 3.86105L149.103 3.70489C149.162 3.6823 149.596 3.5692 152.386 3.56404L152.568 2.65845C152.624 2.38688 152.865 2.19 153.142 2.19C153.438 2.1964 153.676 2.40448 153.72 2.68477L153.859 3.56404C156.645 3.5692 157.078 3.68159 157.136 3.70489L157.535 3.86105L157.136 4.01791C157.078 4.04049 156.654 4.15217 153.931 4.15947C153.922 4.19308 153.906 4.22598 153.882 4.25213C153.873 4.26529 153.86 4.27561 153.847 4.28574L153.848 4.45932H154.446C155.394 4.45932 155.634 5.54524 155.669 7.68402H157.565C157.64 5.83353 157.787 4.34407 158.007 3.18025C158.41 1.03987 159.082 0 160.061 0C161.04 0 161.712 1.03987 162.117 3.18025C162.336 4.34407 162.482 5.83353 162.56 7.68402H164.455C164.49 5.54524 164.73 4.45932 165.677 4.45932H166.365L166.366 4.29659C166.346 4.2829 166.326 4.26813 166.31 4.24857C166.289 4.22225 166.274 4.19095 166.266 4.15947C163.558 4.15217 163.135 4.04049 163.077 4.01862L162.678 3.86246L163.077 3.7056C163.135 3.68231 163.569 3.5692 166.359 3.56404L166.542 2.65916C166.597 2.38688 166.839 2.19071 167.115 2.19071C167.412 2.19658 167.649 2.40448 167.694 2.68477L167.833 3.56404C170.618 3.5692 171.05 3.6823 171.109 3.70489L171.507 3.86105L171.109 4.01862C171.051 4.04049 170.627 4.15217 167.905 4.15947C167.896 4.19379 167.879 4.22581 167.856 4.25284C167.845 4.26529 167.833 4.27561 167.821 4.28574V4.45932H168.494C169.442 4.45932 169.681 5.54524 169.716 7.68491L182.47 7.68402C183.249 7.68491 183.971 8.0358 184.451 8.64955C185.117 9.49681 185.17 10.6738 184.583 11.5765L184.448 11.7875C184.074 12.3632 183.472 12.7653 182.799 12.893C176.417 14.0883 171.902 14.9341 168.704 15.531C168.271 16.754 167.736 17.3525 167.085 17.3525C166.543 17.3525 166.081 16.9372 165.693 16.0921C164.22 16.3672 163.203 16.5562 162.5 16.6854C162.412 18.9805 162.272 21.46 162.076 23.7391C161.947 25.2503 161.802 26.5565 161.645 27.646L167.52 29.2952C167.921 29.4076 168.259 29.6674 168.471 30.0263C168.783 30.5495 168.774 31.1941 168.449 31.7084C167.988 32.4404 167.857 32.579 167.625 32.579L160.512 32.5782C160.46 32.9606 160.423 33.2162 160.417 33.2512L160.061 35.6571ZM44.4271 15.4595H41.4352L42.9406 13.6643H44.3337L45.1328 14.6181L44.4271 15.4595ZM54.5828 17.5926L52.417 20.1735H49.7541L47.5904 17.5926L49.7555 15.0115L52.417 15.0122L54.5828 17.5926ZM52.881 14.227L49.5307 14.2254L47.3663 11.6452H50.7159L52.881 14.227ZM42.6385 17.591L43.7674 18.9381L41.4279 18.9374L40.2982 17.591L41.4286 16.2447H43.7682L42.6385 17.591ZM46.2046 14.6743L44.511 12.6543H47.1876L48.8821 14.6743H46.2046ZM52.8796 20.9594L50.7145 23.539H47.3649L49.53 20.9586L52.8796 20.9594ZM43.6638 17.5917L45.4516 15.4595H48.353L46.5644 17.5926L48.3523 19.724H45.4516L43.6638 17.5917ZM45.1312 20.5654L44.333 21.5192H42.9399L41.4344 19.7233H44.4264L45.1312 20.5654ZM46.2039 20.5092L44.5094 22.5292H47.1862L48.8807 20.5092H46.2039ZM81.6341 18.0041C84.3954 18.0041 87.1568 18.0041 89.918 18.0041C88.2185 19.3817 86.5188 20.7587 84.8193 22.1365C82.0588 22.1365 79.2981 22.1365 76.5376 22.1365C78.2371 20.7587 79.9352 19.3817 81.6341 18.0041ZM101.257 18.0041C104.017 18.0041 106.779 18.0041 109.541 18.0041C107.841 19.3817 106.142 20.7587 104.442 22.1365C101.681 22.1365 98.9201 22.1365 96.1602 22.1365C97.859 20.7587 99.5571 19.3817 101.257 18.0041ZM100.309 16.4109C98.9266 15.2894 97.543 14.1671 96.1602 13.0447C98.9201 13.0447 101.681 13.0447 104.442 13.0447C105.826 14.1671 107.211 15.2894 108.595 16.4109C109.104 16.4109 109.614 16.4109 110.123 16.4109C108.739 15.2894 107.356 14.1671 105.973 13.0447C108.733 13.0447 111.494 13.0447 114.255 13.0447C115.638 14.1671 117.023 15.2894 118.407 16.4109C120.424 16.4109 122.441 16.4109 124.457 16.4109C124.745 16.6665 125.033 16.9205 125.32 17.1759H105.698H105.345H104.997H104.73H104.295H104.115H103.593H103.501H102.892H102.886H102.271H102.19H101.654H101.489H101.038H100.787H100.42H100.085H99.8008H99.3826H99.1799H98.6814H98.5574H97.9801H97.9341H97.3081H97.2782H96.6804H96.5769H96.0507H95.8748H95.4188H95.1728H94.7839H94.4716H94.1461H93.7696H93.5054H93.0682H92.8617H92.367H92.2153H91.665H91.565H90.9638H90.9111H90.2618H90.2538H89.5926H89.5597H88.9263H88.8577H88.2571H88.1564H87.5822H87.4545H86.9035H86.7532H86.2204H86.0511H85.5316H85.3499H84.8384H84.6479H84.1385H60.7907C60.5031 16.9205 60.2148 16.6665 59.9273 16.4109C63.5776 16.4109 67.2277 16.4109 70.8785 16.4109C69.8088 15.5434 68.7381 14.6764 67.6684 13.8094C67.1233 13.8094 66.5782 13.8094 66.0324 13.8094C65.7448 13.5547 65.4572 13.2993 65.1691 13.0447C68.4491 13.0447 71.73 13.0447 75.0095 13.0447C76.3932 14.1671 77.7766 15.2894 79.1603 16.4109C79.6696 16.4109 80.179 16.4109 80.6876 16.4109C79.3047 15.2894 77.9212 14.1671 76.5376 13.0447C79.2981 13.0447 82.0588 13.0447 84.8193 13.0447C86.2037 14.1671 87.5888 15.2894 88.9722 16.4109H88.9957H89.0204H89.0336H89.0437H89.0679H89.0919H89.1161H89.1394H89.1606H89.1634H89.1869H89.2109H89.2356H89.2591H89.2831H89.2918H89.3066H89.3306H89.3539H89.3788H89.4021H89.4261H89.4503H89.4743H89.4978H89.5218H89.5451H89.5662H89.5693H89.594H89.6175H89.6415H89.6648H89.6889H89.7092H89.7122H89.7363H89.7604H89.7845H89.8086H89.8326H89.8559H89.8583H89.8801H89.9034H89.9274H89.9516H89.9749H89.9998H90.0107H90.0231H90.0471H90.0713H90.0946H90.1186H90.1428H90.1661H90.169H90.1901H90.2143H90.2383H90.2618H90.2858H90.3091H90.3326H90.3333H90.3573H90.3815H90.4055H90.4295H90.453H90.477H90.5003C89.1175 15.2894 87.7339 14.1671 86.3504 13.0447C89.1109 13.0447 91.8715 13.0447 94.6322 13.0447L94.6971 13.0973L94.762 13.1505L94.8262 13.2031L94.8911 13.2549H94.8918L94.956 13.3082L95.0211 13.36H95.0219L95.0861 13.4133H95.0868L95.1517 13.4658L95.2159 13.5183L95.2808 13.5709L95.345 13.6234H95.3459L95.4101 13.676H95.4108L95.4757 13.7285L95.6048 13.8343H95.6055L98.7851 16.4109H98.8055H98.8295H98.8535H98.8777H98.8799H98.9017H98.9259H98.9492H98.9732H98.9748H98.9967H99.0207H99.0449H99.0689H99.0929H99.1164H99.1404H99.163H99.1637H99.1879H99.2119H99.2361H99.258H99.2594H99.2841H99.3076H99.3316H99.3521H99.3549H99.3791H99.4024H99.4273H99.4468H99.4506H99.4746H99.4988H99.5221H99.5411H99.5461H99.5703H99.5936H99.6176H99.6359H99.6418H99.6651H99.6892H99.7133H99.73H99.7373H99.7607H99.7855H99.8089H99.8249H99.8329H99.8562H99.8804H99.9037H99.919H99.9277H99.9519H99.9759H100H100.014H100.023H100.047H100.071H100.095H100.108H100.119H100.143H100.166H100.191H100.203H100.215H100.239H100.262H100.286H100.298H100.309ZM105.973 22.1365C107.672 20.7587 109.37 19.3817 111.069 18.0041C113.83 18.0041 116.592 18.0041 119.353 18.0041C117.654 19.3817 115.954 20.7602 114.255 22.1379C111.494 22.1379 108.733 22.1372 105.973 22.1365ZM65.1691 21.3739C66.0023 21.3739 66.835 21.3739 67.6684 21.3739C68.7381 20.5055 69.8088 19.6387 70.8785 18.7703H59.9273L60.7907 18.0062C64.7553 18.0062 67.8567 18.0062 71.8213 18.0062C71.8227 18.0055 71.8236 18.0048 71.8243 18.0041C74.5848 18.0041 77.3454 18.0041 80.1053 18.0041C78.4071 19.3817 76.7083 20.7587 75.0095 22.1365C74.7957 22.1365 74.5804 22.1365 74.3666 22.1365C74.3666 22.1372 74.3666 22.1379 74.3666 22.1379C71.5885 22.1379 68.8105 22.1379 66.0324 22.1379C65.7448 21.8833 65.4572 21.6286 65.1691 21.3739ZM86.3504 22.1365C88.0499 20.7587 89.748 19.3817 91.4461 18.0041C94.2073 18.0041 96.9694 18.0041 99.7307 18.0041C98.0319 19.3817 96.3317 20.7602 94.6322 22.1379C91.8715 22.1379 89.1109 22.1372 86.3504 22.1365ZM275.696 15.4595H278.689L277.182 13.6643H275.79L274.991 14.6181L275.696 15.4595ZM265.541 17.5926L267.707 20.1735H270.369L272.533 17.5926L270.367 15.0115L267.707 15.0122L265.541 17.5926ZM267.243 14.227L270.593 14.2254L272.758 11.6452H269.407L267.243 14.227ZM277.485 17.591L276.355 18.9381L278.696 18.9374L279.825 17.591L278.694 16.2447H276.355L277.485 17.591ZM273.919 14.6743L275.612 12.6543H272.935L271.241 14.6743H273.919ZM267.244 20.9594L269.409 23.539H272.758L270.593 20.9586L267.244 20.9594ZM276.46 17.5917L274.671 15.4595H271.77L273.56 17.5926L271.77 19.724H274.671L276.46 17.5917ZM274.991 20.5654L275.79 21.5192H277.184L278.689 19.7233H275.697L274.991 20.5654ZM273.919 20.5092L275.614 22.5292H272.937L271.242 20.5092H273.919ZM218.867 18.0041C216.106 18.0041 213.344 18.0041 210.582 18.0041C212.283 19.3817 213.981 20.7587 215.681 22.1365C218.441 22.1365 221.203 22.1365 223.964 22.1365C222.265 20.7587 220.567 19.3817 218.867 18.0041ZM219.814 16.4109C221.196 15.2894 222.58 14.1671 223.964 13.0447C221.203 13.0447 218.441 13.0447 215.681 13.0447C214.298 14.1671 212.912 15.2894 211.529 16.4109C211.02 16.4109 210.51 16.4109 210.001 16.4109C211.385 15.2894 212.768 14.1671 214.15 13.0447C211.39 13.0447 208.63 13.0447 205.87 13.0447C204.486 14.1671 203.1 15.2894 201.717 16.4109C199.7 16.4109 197.683 16.4109 195.666 16.4109C195.378 16.6665 195.09 16.9205 194.802 17.1759H214.424H214.778H215.126H215.393H215.829H216.009H216.53H216.622H217.232H217.237H217.853H217.933H218.468H218.635H219.085H219.336H219.704H220.039H220.323H220.741H220.944H221.442H221.566H222.142H222.189H222.815H222.845H223.443H223.546H224.072H224.248H224.705H224.951H225.34H225.651H225.977H226.354H226.617H227.055H227.261H227.757H227.908H228.458H228.559H229.16H229.212H229.861H229.87H230.531H230.563H231.197H231.266H231.865H231.967H232.541H232.669H233.221H233.37H233.903H234.072H234.592H234.773H235.285H235.476H235.984H259.332C259.62 16.9205 259.908 16.6665 260.196 16.4109C256.547 16.4109 252.896 16.4109 249.244 16.4109C250.315 15.5434 251.386 14.6764 252.455 13.8094C253.001 13.8094 253.545 13.8094 254.091 13.8094C254.379 13.5547 254.665 13.2993 254.955 13.0447C251.674 13.0447 248.393 13.0447 245.113 13.0447C243.729 14.1671 242.346 15.2894 240.964 16.4109C240.454 16.4109 239.945 16.4109 239.436 16.4109C240.818 15.2894 242.202 14.1671 243.585 13.0447C240.825 13.0447 238.065 13.0447 235.303 13.0447C233.919 14.1671 232.534 15.2894 231.15 16.4109H231.127H231.102H231.09H231.079H231.056H231.031H231.008H230.983H230.964H230.96H230.937H230.912H230.887H230.864H230.841H230.832H230.816H230.793H230.77H230.745H230.722H230.697H230.674H230.649H230.626H230.601H230.578H230.556H230.555H230.53H230.507H230.482H230.459H230.434H230.414H230.411H230.387H230.363H230.339H230.314H230.291H230.266H230.265H230.243H230.22H230.195H230.172H230.149H230.124H230.112H230.101H230.076H230.051H230.028H230.005H229.98H229.957H229.953H229.934H229.909H229.884H229.861H229.838H229.815H229.792H229.79H229.767H229.742H229.719H229.694H229.671H229.646H229.623C231.006 15.2894 232.39 14.1671 233.774 13.0447C231.012 13.0447 228.251 13.0447 225.491 13.0447L225.426 13.0973L225.361 13.1505L225.297 13.2031L225.232 13.2549L225.168 13.3082L225.102 13.36L225.038 13.4133H225.036L224.972 13.4658L224.908 13.5183L224.842 13.5709L224.778 13.6234L224.714 13.676H224.712L224.648 13.7285L224.518 13.8343L221.339 16.4109H221.317H221.294H221.269H221.246H221.243H221.221H221.198H221.175H221.15H221.148H221.127H221.102H221.079H221.054H221.031H221.008H220.983H220.96H220.935H220.912H220.887H220.866H220.864H220.839H220.816H220.791H220.771H220.768H220.745H220.721H220.697H220.677H220.673H220.649H220.625H220.601H220.583H220.577H220.553H220.529H220.506H220.487H220.481H220.458H220.433H220.41H220.392H220.385H220.362H220.337H220.314H220.298H220.291H220.266H220.243H220.22H220.204H220.195H220.172H220.147H220.124H220.11H220.101H220.076H220.053H220.028H220.015H220.005H219.98H219.957H219.932H219.921H219.909H219.884H219.861H219.838H219.825H219.814ZM214.15 22.1365C212.452 20.7587 210.753 19.3817 209.055 18.0041C206.293 18.0041 203.531 18.0041 200.771 18.0041C202.469 19.3817 204.169 20.7602 205.87 22.1379C208.63 22.1379 211.39 22.1372 214.15 22.1365ZM254.955 21.3739C254.121 21.3739 253.289 21.3739 252.455 21.3739C251.386 20.5055 250.315 19.6387 249.244 18.7703H260.196L259.332 18.0062C255.368 18.0062 252.266 18.0062 248.302 18.0062C248.3 18.0055 248.3 18.0048 248.298 18.0041C245.538 18.0041 242.778 18.0041 240.018 18.0041C241.716 19.3817 243.415 20.7587 245.113 22.1365C245.328 22.1365 245.543 22.1365 245.757 22.1365C245.757 22.1372 245.757 22.1379 245.757 22.1379C248.535 22.1379 251.313 22.1379 254.091 22.1379C254.379 21.8833 254.665 21.6286 254.955 21.3739ZM233.774 22.1365C232.073 20.7587 230.375 19.3817 228.677 18.0041C225.916 18.0041 223.154 18.0041 220.392 18.0041C222.091 19.3817 223.791 20.7602 225.491 22.1379C228.251 22.1379 231.012 22.1372 233.774 22.1365Z" fill="white"/>
</svg>
