<svg width="103" height="90" viewBox="0 0 103 90" fill="none" xmlns="http://www.w3.org/2000/svg">
<path d="M12.9488 0L12.9488 22.755L12.9488 35.0826L12.9488 70.4332C12.9488 78.239 19.2705 84.5673 27.0682 84.5673L43.3079 84.5673C45.955 84.5673 48.452 85.7942 50.0737 87.8906L51.2841 90L52.4096 88.5094C54.0248 86.3651 56.5522 85.1056 59.2363 85.1056H75.6829C83.4806 85.1056 89.8023 78.7772 89.8023 70.9714L89.8023 35.0826V22.7571V0L12.9488 0ZM89.8023 35.0826C80.9706 36.7387 74.2701 37.9939 69.187 38.9441C68.2966 41.4654 67.1929 42.7032 65.8498 42.7032C64.733 42.7032 63.7839 41.8446 62.9806 40.1034C59.946 40.67 57.8497 41.0579 56.402 41.3259C56.2192 46.0591 55.9318 51.1736 55.5269 55.8785C55.2591 58.9969 54.9631 61.6903 54.6387 63.9392L66.7467 67.3387C67.5739 67.5719 68.2705 68.108 68.7081 68.8489C69.3481 69.9298 69.3307 71.2591 68.6602 72.3182C67.7111 73.8283 67.4411 74.1138 66.9644 74.1138H52.3029C52.1962 74.9027 52.12 75.4278 52.1092 75.5019L51.3734 80.4661L50.6419 75.5041C50.631 75.43 50.5527 74.9027 50.446 74.1138H35.7845C35.3078 74.1138 35.0378 73.8283 34.0887 72.3182C33.4204 71.2569 33.4008 69.9276 34.0408 68.8467C34.4784 68.1058 35.1772 67.5719 36.0044 67.3387L48.1102 63.937C47.788 61.6903 47.4898 58.9947 47.222 55.8785C46.8193 51.1736 46.5297 46.0591 46.3469 41.3259C44.8992 41.0579 42.8051 40.67 39.7683 40.1012C38.9672 41.8446 38.0159 42.701 36.8991 42.701C35.556 42.701 34.4544 41.4654 33.5641 38.9419C28.481 37.9939 21.7805 36.7387 12.9488 35.0826L4.51761 33.4983C3.12874 33.2368 1.89008 32.4065 1.11946 31.2189L0.838635 30.7852C-0.371725 28.9199 -0.26288 26.4944 1.10639 24.7446C2.09906 23.4806 3.58807 22.755 5.19463 22.755L12.9488 22.755L31.4786 22.755C31.5504 18.3421 32.0446 16.1019 33.9973 16.1019L35.5712 16.1041V15.7642C35.5298 15.738 35.4885 15.7075 35.458 15.6683C35.4123 15.6138 35.3818 15.5506 35.3644 15.4831C29.785 15.4678 28.912 15.239 28.7923 15.191L27.9716 14.8685L28.7923 14.546C28.9142 14.4981 29.8067 14.2649 35.556 14.254L35.9326 12.3864C36.0479 11.8286 36.5443 11.4211 37.1146 11.4211C37.7263 11.4341 38.2161 11.8634 38.3076 12.4409L38.5927 14.2562C44.3354 14.2671 45.2258 14.4981 45.3477 14.546L46.1684 14.8685L45.3477 15.1932C45.228 15.239 44.3528 15.47 38.7429 15.4831C38.7234 15.5528 38.6907 15.6203 38.6406 15.6748C38.621 15.701 38.5949 15.7228 38.5688 15.7446L38.571 16.1041H39.8031C41.7558 16.1041 42.2499 18.3421 42.3218 22.755L46.2293 22.7571C46.3861 18.937 46.6887 15.8644 47.1415 13.463C47.973 9.04794 49.3575 6.90363 51.3755 6.90145C53.3935 6.90363 54.778 9.04794 55.6118 13.463C56.0624 15.8644 56.365 18.937 56.5239 22.755L60.4293 22.7571C60.5011 18.3421 60.9975 16.1041 62.948 16.1019L64.3673 16.1041V15.7663C64.326 15.738 64.2868 15.7075 64.2541 15.6683C64.2106 15.6138 64.1779 15.5506 64.1605 15.4831C58.5811 15.47 57.7103 15.239 57.5906 15.1932L56.7699 14.8707L57.5906 14.5482C57.7103 14.4981 58.6029 14.2671 64.3543 14.2562L64.7309 12.3886C64.8462 11.8286 65.3426 11.4211 65.9129 11.4211C66.5225 11.4341 67.0144 11.8656 67.1037 12.4409L67.3889 14.254C73.1316 14.2671 74.0219 14.4981 74.1438 14.546L74.9645 14.8685L74.1438 15.1932C74.0241 15.239 73.149 15.47 67.5391 15.4831C67.5217 15.555 67.4868 15.6203 67.4389 15.677C67.4172 15.701 67.391 15.7249 67.3671 15.7446V16.1041H68.7538C70.7065 16.1041 71.2006 18.3421 71.2725 22.7571L89.8023 22.7571H97.5586C99.163 22.7571 100.652 23.4828 101.643 24.7467C103.014 26.4944 103.121 28.922 101.912 30.7852L101.632 31.2211C100.861 32.4087 99.6223 33.2368 98.2357 33.5005L89.8023 35.0826Z" fill="white"/>
</svg>
